<svg width="44" height="28" viewBox="0 0 44 28" fill="none" xmlns="http://www.w3.org/2000/svg">
<g clip-path="url(#clip0_167_792)">
<path d="M0 0H44V27.5H0V0Z" fill="#74ACDF"/>
<path d="M0 9.16675H44V18.3336H0V9.16675Z" fill="white"/>
<path d="M21.8262 13.8222L23.3911 17.2317C23.3911 17.2317 23.4181 17.2969 23.4615 17.279C23.505 17.261 23.478 17.1958 23.478 17.1958L22.1737 13.6782M22.1363 15.0048C22.1172 15.5234 22.4361 15.8085 22.3944 16.2716C22.3528 16.7347 22.6071 16.9965 22.6661 17.1766C22.7251 17.3566 22.6023 17.4643 22.6552 17.4899C22.7082 17.5156 22.8241 17.3733 22.7863 17.1173C22.7485 16.8613 22.5542 16.7853 22.5999 16.2197C22.6455 15.6542 22.3685 15.5224 22.436 15.0065" fill="#F6B40E"/>
<path d="M21.8262 13.8222L23.3911 17.2317C23.3911 17.2317 23.4181 17.2969 23.4615 17.279C23.505 17.261 23.478 17.1958 23.478 17.1958L22.1737 13.6782M22.1363 15.0048C22.1172 15.5234 22.4361 15.8085 22.3944 16.2716C22.3528 16.7347 22.6071 16.9965 22.6661 17.1766C22.7251 17.3566 22.6023 17.4643 22.6552 17.4899C22.7082 17.5156 22.8241 17.3733 22.7863 17.1173C22.7485 16.8613 22.5542 16.7853 22.5999 16.2197C22.6455 15.6542 22.3685 15.5224 22.436 15.0065" stroke="#85340A" stroke-width="1.112"/>
<path d="M21.8121 13.7502L21.9532 17.4991C21.9532 17.4991 21.9531 17.5696 22.0001 17.5697C22.0472 17.5697 22.0471 17.4991 22.0471 17.4991L22.1882 13.7502M21.646 14.9615C21.4299 15.4332 21.6155 15.8188 21.3998 16.2306C21.1841 16.6425 21.3188 16.9817 21.3045 17.1707C21.2901 17.3596 21.1354 17.4121 21.1745 17.456C21.2136 17.5 21.3751 17.4129 21.4382 17.1619C21.5012 16.9109 21.3508 16.7663 21.6094 16.2613C21.868 15.7563 21.6625 15.5286 21.9222 15.0777" fill="#F6B40E"/>
<path d="M21.8121 13.7502L21.9532 17.4991C21.9532 17.4991 21.9531 17.5696 22.0001 17.5697C22.0472 17.5697 22.0471 17.4991 22.0471 17.4991L22.1882 13.7502M21.646 14.9615C21.4299 15.4332 21.6155 15.8188 21.3998 16.2306C21.1841 16.6425 21.3188 16.9817 21.3045 17.1707C21.2901 17.3596 21.1354 17.4121 21.1745 17.456C21.2136 17.5 21.3751 17.4129 21.4382 17.1619C21.5012 16.9109 21.3508 16.7663 21.6094 16.2613C21.868 15.7563 21.6625 15.5286 21.9222 15.0777" stroke="#85340A" stroke-width="1.112"/>
<path d="M21.826 13.6782L20.5216 17.1957C20.5216 17.1957 20.4946 17.2609 20.538 17.2789C20.5814 17.2969 20.6084 17.2317 20.6084 17.2317L22.1734 13.8221M21.209 14.7337C20.8288 15.0869 20.8527 15.5141 20.4958 15.812C20.1389 16.11 20.1336 16.475 20.048 16.6441C19.9624 16.8131 19.7994 16.8024 19.8187 16.858C19.838 16.9135 20.0205 16.8949 20.1748 16.6871C20.3292 16.4794 20.2455 16.2882 20.6777 15.9206C21.1099 15.553 21.0072 15.264 21.4197 14.9469" fill="#F6B40E"/>
<path d="M21.826 13.6782L20.5216 17.1957C20.5216 17.1957 20.4946 17.2609 20.538 17.2789C20.5814 17.2969 20.6084 17.2317 20.6084 17.2317L22.1734 13.8221M21.209 14.7337C20.8288 15.0869 20.8527 15.5141 20.4958 15.812C20.1389 16.11 20.1336 16.475 20.048 16.6441C19.9624 16.8131 19.7994 16.8024 19.8187 16.858C19.838 16.9135 20.0205 16.8949 20.1748 16.6871C20.3292 16.4794 20.2455 16.2882 20.6777 15.9206C21.1099 15.553 21.0072 15.264 21.4197 14.9469" stroke="#85340A" stroke-width="1.112"/>
<path d="M21.867 13.6171L19.3159 16.3677C19.3159 16.3677 19.266 16.4176 19.2992 16.4508C19.3324 16.4841 19.3823 16.4342 19.3823 16.4342L22.133 13.8831M20.893 14.3562C20.4067 14.537 20.2653 14.9408 19.8215 15.0795C19.3777 15.2182 19.2332 15.5534 19.0894 15.6768C18.9456 15.8002 18.7991 15.728 18.7957 15.7867C18.7923 15.8454 18.968 15.898 19.1901 15.7651C19.4122 15.6323 19.4081 15.4236 19.948 15.2494C20.488 15.0751 20.5037 14.7688 21.0062 14.6337" fill="#F6B40E"/>
<path d="M21.867 13.6171L19.3159 16.3677C19.3159 16.3677 19.266 16.4176 19.2992 16.4508C19.3324 16.4841 19.3823 16.4342 19.3823 16.4342L22.133 13.8831M20.893 14.3562C20.4067 14.537 20.2653 14.9408 19.8215 15.0795C19.3777 15.2182 19.2332 15.5534 19.0894 15.6768C18.9456 15.8002 18.7991 15.728 18.7957 15.7867C18.7923 15.8454 18.968 15.898 19.1901 15.7651C19.4122 15.6323 19.4081 15.4236 19.948 15.2494C20.488 15.0751 20.5037 14.7688 21.0062 14.6337" stroke="#85340A" stroke-width="1.112"/>
<path d="M22.237 15.0928C22.262 15.5907 22.5443 15.8112 22.4889 16.265C22.6106 15.9061 22.3171 15.628 22.3338 15.0979M21.9131 13.7913L22.9849 16.133L22.0868 13.7192" fill="#85340A"/>
<path d="M21.7053 15.0812C21.5378 15.5508 21.7143 15.8625 21.4894 16.2606C21.7392 15.9756 21.5744 15.6063 21.7927 15.123M21.9041 13.7548L21.9981 16.3284L22.0921 13.7547" fill="#85340A"/>
<path d="M21.2178 14.867C20.8833 15.2368 20.9271 15.5924 20.567 15.874C20.9068 15.7063 20.8959 15.3021 21.2826 14.9391M21.909 13.7177L21.011 16.1314L22.0828 13.7896" fill="#85340A"/>
<path d="M20.8501 14.4829C20.3996 14.6965 20.3039 15.0417 19.8635 15.1642C20.2416 15.1393 20.3863 14.7616 20.8824 14.5742M21.9286 13.6855L20.1752 15.5719L22.0616 13.8184" fill="#85340A"/>
<path d="M21.9283 13.5762L18.5188 15.1411C18.5188 15.1411 18.4536 15.1681 18.4715 15.2115C18.4895 15.255 18.5547 15.228 18.5547 15.228L22.0723 13.9237M20.7457 13.8863C20.2271 13.8672 19.942 14.1861 19.4789 14.1444C19.0158 14.1028 18.754 14.3571 18.5739 14.4161C18.3939 14.4751 18.2862 14.3523 18.2605 14.4052C18.2349 14.4582 18.3771 14.5741 18.6332 14.5363C18.8892 14.4985 18.9652 14.3042 19.5308 14.3499C20.0963 14.3955 20.2281 14.1185 20.744 14.186" fill="#F6B40E"/>
<path d="M21.9283 13.5762L18.5188 15.1411C18.5188 15.1411 18.4536 15.1681 18.4715 15.2115C18.4895 15.255 18.5547 15.228 18.5547 15.228L22.0723 13.9237M20.7457 13.8863C20.2271 13.8672 19.942 14.1861 19.4789 14.1444C19.0158 14.1028 18.754 14.3571 18.5739 14.4161C18.3939 14.4751 18.2862 14.3523 18.2605 14.4052C18.2349 14.4582 18.3771 14.5741 18.6332 14.5363C18.8892 14.4985 18.9652 14.3042 19.5308 14.3499C20.0963 14.3955 20.2281 14.1185 20.744 14.186" stroke="#85340A" stroke-width="1.112"/>
<path d="M22.0008 13.5619L18.2519 13.7029C18.2519 13.7029 18.1814 13.7029 18.1813 13.7499C18.1813 13.7969 18.2518 13.7969 18.2518 13.7969L22.0008 13.938M20.7895 13.3958C20.3177 13.1797 19.9322 13.3652 19.5204 13.1495C19.1085 12.9338 18.7693 13.0686 18.5803 13.0542C18.3914 13.0398 18.3389 12.8851 18.2949 12.9242C18.251 12.9633 18.3381 13.1248 18.5891 13.1879C18.84 13.251 18.9846 13.1005 19.4897 13.3591C19.9947 13.6178 20.2224 13.4123 20.6732 13.672" fill="#F6B40E"/>
<path d="M22.0008 13.5619L18.2519 13.7029C18.2519 13.7029 18.1814 13.7029 18.1813 13.7499C18.1813 13.7969 18.2518 13.7969 18.2518 13.7969L22.0008 13.938M20.7895 13.3958C20.3177 13.1797 19.9322 13.3652 19.5204 13.1495C19.1085 12.9338 18.7693 13.0686 18.5803 13.0542C18.3914 13.0398 18.3389 12.8851 18.2949 12.9242C18.251 12.9633 18.3381 13.1248 18.5891 13.1879C18.84 13.251 18.9846 13.1005 19.4897 13.3591C19.9947 13.6178 20.2224 13.4123 20.6732 13.672" stroke="#85340A" stroke-width="1.112"/>
<path d="M22.0721 13.5762L18.5545 12.2719C18.5545 12.2719 18.4894 12.2448 18.4713 12.2883C18.4533 12.3317 18.5185 12.3587 18.5185 12.3587L21.9281 13.9237M21.0165 12.9592C20.6633 12.579 20.2362 12.6029 19.9382 12.246C19.6402 11.8891 19.2753 11.8838 19.1062 11.7982C18.9371 11.7126 18.9478 11.5496 18.8923 11.5689C18.8367 11.5883 18.8553 11.7708 19.0631 11.9251C19.2709 12.0794 19.462 11.9958 19.8296 12.4279C20.1973 12.8601 20.4863 12.7574 20.8034 13.1699" fill="#F6B40E"/>
<path d="M22.0721 13.5762L18.5545 12.2719C18.5545 12.2719 18.4894 12.2448 18.4713 12.2883C18.4533 12.3317 18.5185 12.3587 18.5185 12.3587L21.9281 13.9237M21.0165 12.9592C20.6633 12.579 20.2362 12.6029 19.9382 12.246C19.6402 11.8891 19.2753 11.8838 19.1062 11.7982C18.9371 11.7126 18.9478 11.5496 18.8923 11.5689C18.8367 11.5883 18.8553 11.7708 19.0631 11.9251C19.2709 12.0794 19.462 11.9958 19.8296 12.4279C20.1973 12.8601 20.4863 12.7574 20.8034 13.1699" stroke="#85340A" stroke-width="1.112"/>
<path d="M22.1334 13.617L19.3828 11.0659C19.3828 11.0659 19.3329 11.016 19.2996 11.0492C19.2664 11.0824 19.3163 11.1323 19.3163 11.1323L21.8674 13.883M21.3943 12.643C21.2135 12.1567 20.8097 12.0153 20.671 11.5715C20.5323 11.1277 20.1971 10.9832 20.0737 10.8394C19.9503 10.6956 20.0225 10.5491 19.9638 10.5457C19.9051 10.5423 19.8525 10.718 19.9853 10.9401C20.1182 11.1622 20.3268 11.1581 20.5011 11.698C20.6754 12.238 20.9817 12.2537 21.1168 12.7562" fill="#F6B40E"/>
<path d="M22.1334 13.617L19.3828 11.0659C19.3828 11.0659 19.3329 11.016 19.2996 11.0492C19.2664 11.0824 19.3163 11.1323 19.3163 11.1323L21.8674 13.883M21.3943 12.643C21.2135 12.1567 20.8097 12.0153 20.671 11.5715C20.5323 11.1277 20.1971 10.9832 20.0737 10.8394C19.9503 10.6956 20.0225 10.5491 19.9638 10.5457C19.9051 10.5423 19.8525 10.718 19.9853 10.9401C20.1182 11.1622 20.3268 11.1581 20.5011 11.698C20.6754 12.238 20.9817 12.2537 21.1168 12.7562" stroke="#85340A" stroke-width="1.112"/>
<path d="M20.6577 13.987C20.1598 14.012 19.9393 14.2943 19.4855 14.2389C19.8443 14.3606 20.1225 14.0671 20.6526 14.0838M21.9592 13.6631L19.6175 14.7349L22.0312 13.8368" fill="#85340A"/>
<path d="M20.6696 13.4553C20.2 13.2878 19.8882 13.4643 19.4902 13.2394C19.7751 13.4892 20.1445 13.3244 20.6278 13.5427M21.9959 13.6541L19.4223 13.7481L21.996 13.8421" fill="#85340A"/>
<path d="M20.8837 12.9683C20.514 12.6338 20.1584 12.6775 19.8767 12.3175C20.0444 12.6573 20.4487 12.6464 20.8116 13.033M22.033 13.6595L19.6193 12.7615L21.9612 13.8333" fill="#85340A"/>
<path d="M21.2679 12.6004C21.0543 12.1498 20.709 12.0542 20.5866 11.6137C20.6115 11.9918 20.9891 12.1365 21.1765 12.6326M22.0652 13.6788L20.1789 11.9255L21.9323 13.8118" fill="#85340A"/>
<path d="M22.1738 13.6778L20.6089 10.2683C20.6089 10.2683 20.5819 10.2031 20.5385 10.221C20.495 10.239 20.522 10.3042 20.522 10.3042L21.8263 13.8218M21.8637 12.4952C21.8828 11.9766 21.5639 11.6915 21.6056 11.2284C21.6472 10.7653 21.3929 10.5035 21.3339 10.3234C21.2749 10.1434 21.3977 10.0357 21.3448 10.0101C21.2918 9.98443 21.1759 10.1267 21.2137 10.3827C21.2515 10.6387 21.4458 10.7147 21.4001 11.2803C21.3545 11.8458 21.6315 11.9776 21.564 12.4935" fill="#F6B40E"/>
<path d="M22.1738 13.6778L20.6089 10.2683C20.6089 10.2683 20.5819 10.2031 20.5385 10.221C20.495 10.239 20.522 10.3042 20.522 10.3042L21.8263 13.8218M21.8637 12.4952C21.8828 11.9766 21.5639 11.6915 21.6056 11.2284C21.6472 10.7653 21.3929 10.5035 21.3339 10.3234C21.2749 10.1434 21.3977 10.0357 21.3448 10.0101C21.2918 9.98443 21.1759 10.1267 21.2137 10.3827C21.2515 10.6387 21.4458 10.7147 21.4001 11.2803C21.3545 11.8458 21.6315 11.9776 21.564 12.4935" stroke="#85340A" stroke-width="1.112"/>
<path d="M22.1879 13.7498L22.0468 10.0009C22.0468 10.0009 22.0469 9.93039 21.9999 9.93033C21.9528 9.93032 21.9529 10.0009 21.9529 10.0009L21.8118 13.7498M22.354 12.5385C22.5701 12.0668 22.3845 11.6812 22.6002 11.2694C22.8159 10.8575 22.6812 10.5183 22.6955 10.3293C22.7099 10.1404 22.8646 10.0879 22.8255 10.044C22.7864 10 22.6249 10.0871 22.5618 10.3381C22.4988 10.5891 22.6492 10.7337 22.3906 11.2387C22.132 11.7437 22.3375 11.9714 22.0778 12.4223" fill="#F6B40E"/>
<path d="M22.1879 13.7498L22.0468 10.0009C22.0468 10.0009 22.0469 9.93039 21.9999 9.93033C21.9528 9.93032 21.9529 10.0009 21.9529 10.0009L21.8118 13.7498M22.354 12.5385C22.5701 12.0668 22.3845 11.6812 22.6002 11.2694C22.8159 10.8575 22.6812 10.5183 22.6955 10.3293C22.7099 10.1404 22.8646 10.0879 22.8255 10.044C22.7864 10 22.6249 10.0871 22.5618 10.3381C22.4988 10.5891 22.6492 10.7337 22.3906 11.2387C22.132 11.7437 22.3375 11.9714 22.0778 12.4223" stroke="#85340A" stroke-width="1.112"/>
<path d="M22.174 13.8218L23.4784 10.3043C23.4784 10.3043 23.5054 10.2391 23.462 10.2211C23.4186 10.2031 23.3916 10.2683 23.3916 10.2683L21.8266 13.6779M22.791 12.7663C23.1712 12.4131 23.1473 11.9859 23.5042 11.688C23.8611 11.39 23.8664 11.025 23.952 10.8559C24.0376 10.6869 24.2006 10.6976 24.1813 10.642C24.162 10.5865 23.9795 10.6051 23.8252 10.8129C23.6708 11.0206 23.7545 11.2118 23.3223 11.5794C22.8901 11.947 22.9928 12.236 22.5803 12.5531" fill="#F6B40E"/>
<path d="M22.174 13.8218L23.4784 10.3043C23.4784 10.3043 23.5054 10.2391 23.462 10.2211C23.4186 10.2031 23.3916 10.2683 23.3916 10.2683L21.8266 13.6779M22.791 12.7663C23.1712 12.4131 23.1473 11.9859 23.5042 11.688C23.8611 11.39 23.8664 11.025 23.952 10.8559C24.0376 10.6869 24.2006 10.6976 24.1813 10.642C24.162 10.5865 23.9795 10.6051 23.8252 10.8129C23.6708 11.0206 23.7545 11.2118 23.3223 11.5794C22.8901 11.947 22.9928 12.236 22.5803 12.5531" stroke="#85340A" stroke-width="1.112"/>
<path d="M22.133 13.8829L24.6841 11.1323C24.6841 11.1323 24.734 11.0824 24.7008 11.0492C24.6676 11.0159 24.6177 11.0658 24.6177 11.0658L21.867 13.6169M23.107 13.1438C23.5933 12.963 23.7347 12.5592 24.1785 12.4205C24.6223 12.2818 24.7668 11.9466 24.9106 11.8232C25.0544 11.6998 25.2009 11.772 25.2043 11.7133C25.2077 11.6546 25.032 11.602 24.8099 11.7349C24.5878 11.8677 24.5919 12.0764 24.052 12.2506C23.512 12.4249 23.4963 12.7312 22.9938 12.8663" fill="#F6B40E"/>
<path d="M22.133 13.8829L24.6841 11.1323C24.6841 11.1323 24.734 11.0824 24.7008 11.0492C24.6676 11.0159 24.6177 11.0658 24.6177 11.0658L21.867 13.6169M23.107 13.1438C23.5933 12.963 23.7347 12.5592 24.1785 12.4205C24.6223 12.2818 24.7668 11.9466 24.9106 11.8232C25.0544 11.6998 25.2009 11.772 25.2043 11.7133C25.2077 11.6546 25.032 11.602 24.8099 11.7349C24.5878 11.8677 24.5919 12.0764 24.052 12.2506C23.512 12.4249 23.4963 12.7312 22.9938 12.8663" stroke="#85340A" stroke-width="1.112"/>
<path d="M21.763 12.4072C21.738 11.9093 21.4557 11.6888 21.5111 11.235C21.3894 11.5939 21.6829 11.872 21.6662 12.4021M22.0869 13.7087L21.0151 11.367L21.9132 13.7808" fill="#85340A"/>
<path d="M22.2947 12.4188C22.4622 11.9492 22.2857 11.6375 22.5106 11.2394C22.2608 11.5244 22.4256 11.8937 22.2073 12.377M22.0959 13.7452L22.0019 11.1716L21.9079 13.7453" fill="#85340A"/>
<path d="M22.7822 12.633C23.1167 12.2632 23.0729 11.9076 23.433 11.626C23.0932 11.7937 23.1041 12.1979 22.7174 12.5609M22.091 13.7823L22.989 11.3686L21.9172 13.7104" fill="#85340A"/>
<path d="M23.1499 13.0171C23.6004 12.8035 23.6961 12.4583 24.1365 12.3358C23.7584 12.3607 23.6137 12.7384 23.1176 12.9258M22.0714 13.8145L23.8248 11.9281L21.9384 13.6816" fill="#85340A"/>
<path d="M22.0717 13.9238L25.4812 12.3589C25.4812 12.3589 25.5464 12.3319 25.5285 12.2885C25.5105 12.245 25.4453 12.272 25.4453 12.272L21.9277 13.5763M23.2543 13.6137C23.7729 13.6328 24.058 13.3139 24.5211 13.3556C24.9842 13.3972 25.246 13.1429 25.4261 13.0839C25.6061 13.0249 25.7138 13.1477 25.7395 13.0948C25.7651 13.0418 25.6229 12.9259 25.3668 12.9637C25.1108 13.0015 25.0348 13.1958 24.4692 13.1501C23.9037 13.1045 23.7719 13.3815 23.256 13.314" fill="#F6B40E"/>
<path d="M22.0717 13.9238L25.4812 12.3589C25.4812 12.3589 25.5464 12.3319 25.5285 12.2885C25.5105 12.245 25.4453 12.272 25.4453 12.272L21.9277 13.5763M23.2543 13.6137C23.7729 13.6328 24.058 13.3139 24.5211 13.3556C24.9842 13.3972 25.246 13.1429 25.4261 13.0839C25.6061 13.0249 25.7138 13.1477 25.7395 13.0948C25.7651 13.0418 25.6229 12.9259 25.3668 12.9637C25.1108 13.0015 25.0348 13.1958 24.4692 13.1501C23.9037 13.1045 23.7719 13.3815 23.256 13.314" stroke="#85340A" stroke-width="1.112"/>
<path d="M21.9992 13.9381L25.7481 13.7971C25.7481 13.7971 25.8186 13.7971 25.8187 13.7501C25.8187 13.7031 25.7482 13.7031 25.7482 13.7031L21.9992 13.562M23.2105 14.1042C23.6823 14.3203 24.0678 14.1348 24.4796 14.3505C24.8915 14.5662 25.2307 14.4314 25.4197 14.4458C25.6086 14.4602 25.6611 14.6149 25.7051 14.5758C25.749 14.5367 25.6619 14.3752 25.4109 14.3121C25.16 14.249 25.0154 14.3995 24.5103 14.1409C24.0053 13.8822 23.7776 14.0877 23.3268 13.828" fill="#F6B40E"/>
<path d="M21.9992 13.9381L25.7481 13.7971C25.7481 13.7971 25.8186 13.7971 25.8187 13.7501C25.8187 13.7031 25.7482 13.7031 25.7482 13.7031L21.9992 13.562M23.2105 14.1042C23.6823 14.3203 24.0678 14.1348 24.4796 14.3505C24.8915 14.5662 25.2307 14.4314 25.4197 14.4458C25.6086 14.4602 25.6611 14.6149 25.7051 14.5758C25.749 14.5367 25.6619 14.3752 25.4109 14.3121C25.16 14.249 25.0154 14.3995 24.5103 14.1409C24.0053 13.8822 23.7776 14.0877 23.3268 13.828" stroke="#85340A" stroke-width="1.112"/>
<path d="M21.9279 13.9238L25.4455 15.2281C25.4455 15.2281 25.5106 15.2552 25.5287 15.2117C25.5467 15.1683 25.4815 15.1413 25.4815 15.1413L22.0719 13.5763M22.9835 14.5408C23.3367 14.921 23.7638 14.8971 24.0618 15.254C24.3598 15.6109 24.7247 15.6162 24.8938 15.7018C25.0629 15.7874 25.0522 15.9504 25.1077 15.9311C25.1633 15.9117 25.1447 15.7292 24.9369 15.5749C24.7291 15.4206 24.538 15.5042 24.1704 15.0721C23.8027 14.6399 23.5137 14.7426 23.1966 14.3301" fill="#F6B40E"/>
<path d="M21.9279 13.9238L25.4455 15.2281C25.4455 15.2281 25.5106 15.2552 25.5287 15.2117C25.5467 15.1683 25.4815 15.1413 25.4815 15.1413L22.0719 13.5763M22.9835 14.5408C23.3367 14.921 23.7638 14.8971 24.0618 15.254C24.3598 15.6109 24.7247 15.6162 24.8938 15.7018C25.0629 15.7874 25.0522 15.9504 25.1077 15.9311C25.1633 15.9117 25.1447 15.7292 24.9369 15.5749C24.7291 15.4206 24.538 15.5042 24.1704 15.0721C23.8027 14.6399 23.5137 14.7426 23.1966 14.3301" stroke="#85340A" stroke-width="1.112"/>
<path d="M21.8666 13.883L24.6172 16.4341C24.6172 16.4341 24.6671 16.484 24.7004 16.4508C24.7336 16.4176 24.6837 16.3677 24.6837 16.3677L22.1326 13.617M22.6057 14.857C22.7865 15.3433 23.1903 15.4847 23.329 15.9285C23.4677 16.3723 23.8029 16.5168 23.9263 16.6606C24.0497 16.8044 23.9775 16.9509 24.0362 16.9543C24.0949 16.9577 24.1475 16.782 24.0147 16.5599C23.8818 16.3378 23.6732 16.3419 23.4989 15.802C23.3246 15.262 23.0183 15.2463 22.8832 14.7438" fill="#F6B40E"/>
<path d="M21.8666 13.883L24.6172 16.4341C24.6172 16.4341 24.6671 16.484 24.7004 16.4508C24.7336 16.4176 24.6837 16.3677 24.6837 16.3677L22.1326 13.617M22.6057 14.857C22.7865 15.3433 23.1903 15.4847 23.329 15.9285C23.4677 16.3723 23.8029 16.5168 23.9263 16.6606C24.0497 16.8044 23.9775 16.9509 24.0362 16.9543C24.0949 16.9577 24.1475 16.782 24.0147 16.5599C23.8818 16.3378 23.6732 16.3419 23.4989 15.802C23.3246 15.262 23.0183 15.2463 22.8832 14.7438" stroke="#85340A" stroke-width="1.112"/>
<path d="M23.3423 13.513C23.8402 13.488 24.0607 13.2057 24.5145 13.2611C24.1557 13.1394 23.8775 13.4329 23.3474 13.4162M22.0408 13.8369L24.3825 12.7651L21.9688 13.6632" fill="#85340A"/>
<path d="M23.3304 14.0447C23.8 14.2122 24.1118 14.0357 24.5098 14.2606C24.2249 14.0108 23.8555 14.1756 23.3722 13.9573M22.0041 13.8459L24.5777 13.7519L22.004 13.6579" fill="#85340A"/>
<path d="M23.1163 14.5317C23.486 14.8662 23.8416 14.8225 24.1233 15.1825C23.9556 14.8427 23.5513 14.8536 23.1884 14.467M21.967 13.8405L24.3807 14.7385L22.0388 13.6667" fill="#85340A"/>
<path d="M22.7321 14.8996C22.9457 15.3502 23.291 15.4458 23.4134 15.8863C23.3885 15.5082 23.0109 15.3635 22.8235 14.8674M21.9348 13.8212L23.8211 15.5745L22.0677 13.6882" fill="#85340A"/>
<path d="M22.0004 15.2777C22.8442 15.2777 23.5282 14.5937 23.5282 13.75C23.5282 12.9062 22.8442 12.2222 22.0004 12.2222C21.1567 12.2222 20.4727 12.9062 20.4727 13.75C20.4727 14.5937 21.1567 15.2777 22.0004 15.2777Z" fill="#F6B40E" stroke="#85340A" stroke-width="1.5"/>
<path d="M22.5208 13.4233C22.4164 13.4233 22.3166 13.4686 22.2578 13.5625C22.3753 13.6683 22.6349 13.6798 22.8112 13.5505C22.7739 13.5108 22.7289 13.479 22.679 13.4572C22.6291 13.4353 22.5753 13.4238 22.5208 13.4233ZM22.5191 13.4474C22.6206 13.4456 22.7155 13.4922 22.7287 13.5385C22.6112 13.6678 22.4235 13.6565 22.3059 13.5625C22.3574 13.4803 22.4401 13.4489 22.5191 13.4474V13.4474Z" fill="#843511"/>
<path d="M22.5405 13.3506C22.3877 13.3506 22.3524 13.3859 22.282 13.4446C22.2114 13.5034 22.1762 13.4916 22.1644 13.5034C22.1527 13.5152 22.1644 13.5503 22.1879 13.5386C22.2113 13.5268 22.2585 13.5034 22.3289 13.4446C22.3995 13.3858 22.4699 13.3858 22.5404 13.3858C22.752 13.3858 22.8695 13.5621 22.893 13.5503C22.9164 13.5386 22.7755 13.3506 22.5405 13.3506Z" fill="#85340A"/>
<path d="M22.9639 13.4212C22.6935 13.1862 22.3528 13.1509 22.1647 13.3272C22.1187 13.3889 22.0892 13.4548 22.0771 13.5236C22.0535 13.6574 22.0953 13.802 22.2001 13.9501C22.1883 13.9501 22.1647 13.9618 22.153 13.9736C22.0597 13.7952 22.0267 13.6119 22.0573 13.4376C22.0655 13.3919 22.0778 13.3471 22.0942 13.3036C22.3527 13.0921 22.7052 13.0687 22.9637 13.4212H22.9639Z" fill="#85340A"/>
<path d="M22.5169 13.6439C22.5753 13.6439 22.6227 13.5965 22.6227 13.5381C22.6227 13.4797 22.5753 13.4324 22.5169 13.4324C22.4585 13.4324 22.4111 13.4797 22.4111 13.5381C22.4111 13.5965 22.4585 13.6439 22.5169 13.6439Z" fill="#85340A"/>
<path d="M22.8232 13.6092C22.6234 13.762 22.4237 13.7502 22.3061 13.6797C22.1887 13.6092 22.1887 13.5857 22.2121 13.5857C22.2356 13.5857 22.259 13.6092 22.3531 13.6561C22.4472 13.7032 22.5881 13.7032 22.8231 13.6092H22.8232Z" fill="#85340A"/>
<path d="M21.7662 13.9612C21.716 13.9704 21.6802 14.0149 21.6802 14.066C21.6802 14.1244 21.7285 14.1708 21.7868 14.1708C21.8037 14.1709 21.8204 14.1669 21.8353 14.1591C21.8503 14.1514 21.8632 14.14 21.8728 14.1262C21.9134 14.1568 21.9698 14.16 22 14.1606C22.0046 14.1607 22.0106 14.1606 22.0137 14.1606C22.0438 14.16 22.1002 14.1568 22.1409 14.1262C22.1607 14.1546 22.1923 14.1708 22.2268 14.1708C22.2851 14.1708 22.3334 14.1244 22.3334 14.066C22.3334 14.0149 22.2977 13.9703 22.2475 13.9612C22.2757 13.9711 22.2939 13.9984 22.2939 14.0282C22.2939 14.0375 22.2921 14.0466 22.2885 14.0552C22.285 14.0637 22.2798 14.0715 22.2733 14.0781C22.2667 14.0846 22.2589 14.0898 22.2504 14.0933C22.2418 14.0969 22.2327 14.0987 22.2234 14.0987C22.186 14.0987 22.1551 14.069 22.1529 14.0316C22.1415 14.0546 22.096 14.1227 22.0068 14.1262C21.9176 14.1227 21.8722 14.0546 21.8608 14.0316C21.8586 14.069 21.8278 14.0987 21.7903 14.0987C21.781 14.0987 21.7719 14.0969 21.7633 14.0933C21.7548 14.0898 21.747 14.0846 21.7405 14.0781C21.7339 14.0715 21.7287 14.0637 21.7252 14.0552C21.7217 14.0466 21.7198 14.0375 21.7198 14.0282C21.7198 13.9984 21.738 13.9711 21.7662 13.9612ZM21.8812 14.2741C21.7636 14.2741 21.7171 14.3807 21.6113 14.4512C21.6701 14.4277 21.7164 14.3813 21.7987 14.3343C21.8809 14.2873 21.9511 14.3446 21.998 14.3446H21.9997C22.0467 14.3446 22.1169 14.2873 22.1991 14.3343C22.2814 14.3814 22.3294 14.4277 22.3882 14.4512C22.2824 14.3807 22.2342 14.2741 22.1166 14.2741C22.0932 14.2741 22.0467 14.2868 21.9997 14.3102H21.998C21.9511 14.2868 21.9046 14.2741 21.8812 14.2741Z" fill="#85340A"/>
<path d="M21.8415 14.4134C21.7951 14.4154 21.7337 14.4248 21.6455 14.4512C21.8571 14.4042 21.9038 14.4753 21.9979 14.4753H21.9995C22.0936 14.4753 22.1403 14.4042 22.3519 14.4512C22.1169 14.3807 22.0701 14.4271 21.9996 14.4271H21.9979C21.9538 14.4271 21.9189 14.41 21.8415 14.4134Z" fill="#85340A"/>
<path d="M21.656 14.4497C21.6424 14.4499 21.6275 14.45 21.6113 14.4514C21.8582 14.475 21.7395 14.6164 21.9981 14.6164H21.9997C22.2583 14.6164 22.1414 14.475 22.3882 14.4514C22.1297 14.428 22.2114 14.5803 21.9998 14.5803H21.9981C21.7996 14.5803 21.8608 14.4472 21.656 14.4497H21.656ZM22.2115 14.8314C22.2115 14.7753 22.1892 14.7215 22.1496 14.6819C22.1099 14.6422 22.0561 14.6199 22 14.6199C21.9439 14.6199 21.8901 14.6422 21.8504 14.6819C21.8108 14.7215 21.7885 14.7753 21.7884 14.8314C21.7997 14.7838 21.8268 14.7414 21.8652 14.7111C21.9036 14.6807 21.9511 14.6642 22 14.6642C22.0489 14.6642 22.0964 14.6807 22.1348 14.7111C22.1732 14.7414 22.2003 14.7838 22.2115 14.8314Z" fill="#85340A"/>
<path d="M21.0498 13.4212C21.3201 13.1862 21.6609 13.1509 21.849 13.3272C21.895 13.3889 21.9245 13.4548 21.9366 13.5236C21.9602 13.6574 21.9184 13.802 21.8136 13.9501C21.8254 13.9501 21.849 13.9618 21.8607 13.9736C21.954 13.7952 21.987 13.6119 21.9564 13.4376C21.9482 13.3919 21.9359 13.3471 21.9195 13.3036C21.661 13.0921 21.3085 13.0687 21.05 13.4212H21.0498Z" fill="#85340A"/>
<path d="M21.4732 13.3506C21.6259 13.3506 21.6612 13.3859 21.7317 13.4446C21.8023 13.5034 21.8375 13.4916 21.8492 13.5034C21.8609 13.5152 21.8492 13.5503 21.8258 13.5386C21.8024 13.5268 21.7552 13.5034 21.6848 13.4446C21.6142 13.3858 21.5438 13.3858 21.4732 13.3858C21.2617 13.3858 21.1442 13.5621 21.1207 13.5503C21.0973 13.5386 21.2382 13.3506 21.4732 13.3506Z" fill="#85340A"/>
<path d="M21.4661 13.4233C21.3617 13.4233 21.2619 13.4686 21.2031 13.5625C21.3206 13.6683 21.5802 13.6798 21.7565 13.5505C21.7192 13.5108 21.6742 13.479 21.6243 13.4572C21.5744 13.4353 21.5206 13.4238 21.4661 13.4233ZM21.4644 13.4474C21.5659 13.4456 21.6608 13.4922 21.674 13.5385C21.5566 13.6678 21.3688 13.6565 21.2512 13.5625C21.3027 13.4803 21.3854 13.4489 21.4644 13.4474V13.4474Z" fill="#843511"/>
<path d="M21.4798 13.6439C21.5382 13.6439 21.5856 13.5965 21.5856 13.5381C21.5856 13.4797 21.5382 13.4324 21.4798 13.4324C21.4214 13.4324 21.374 13.4797 21.374 13.5381C21.374 13.5965 21.4214 13.6439 21.4798 13.6439Z" fill="#85340A"/>
<path d="M21.1914 13.6092C21.3912 13.762 21.591 13.7502 21.7085 13.6797C21.826 13.6092 21.826 13.5857 21.8026 13.5857C21.7791 13.5857 21.7557 13.6092 21.6615 13.6561C21.5675 13.7032 21.4265 13.7032 21.1915 13.6092H21.1914Z" fill="#85340A"/>
</g>
<defs>
<clipPath id="clip0_167_792">
<rect width="44" height="27.5" rx="8" fill="white"/>
</clipPath>
</defs>
</svg>
