<svg width="38" height="33" viewBox="0 0 38 33" fill="none" xmlns="http://www.w3.org/2000/svg">
<rect x="1.73438" y="1.76825" width="33.97" height="28.1681" fill="white"/>
<path d="M0.308594 27.612C0.308594 28.854 0.800876 30.0451 1.67714 30.9233C2.55341 31.8015 3.74188 32.2949 4.98111 32.2949H33.0162C34.2555 32.2949 35.4439 31.8015 36.3202 30.9233C37.1965 30.0451 37.6888 28.854 37.6888 27.612V4.97785C37.6888 3.73586 37.1965 2.54474 36.3202 1.66652C35.4439 0.7883 34.2555 0.294922 33.0162 0.294922H4.98111C3.74188 0.294922 2.55341 0.7883 1.67714 1.66652C0.800876 2.54474 0.308594 3.73586 0.308594 4.97785L0.308594 27.612ZM22.8924 4.19736C22.8852 4.4746 22.8022 4.74455 22.6526 4.97785C22.5227 5.2141 22.3319 5.4111 22.1001 5.54829C21.8683 5.68549 21.6041 5.75786 21.3349 5.75786C21.0658 5.75786 20.8015 5.68549 20.5698 5.54829C20.338 5.4111 20.1472 5.2141 20.0173 4.97785C19.8677 4.74455 19.7847 4.4746 19.7774 4.19736C19.7845 3.92008 19.8674 3.65007 20.0173 3.41687C20.1472 3.18062 20.338 2.98362 20.5698 2.84643C20.8015 2.70923 21.0658 2.63686 21.3349 2.63686C21.6041 2.63686 21.8683 2.70923 22.1001 2.84643C22.3319 2.98362 22.5227 3.18062 22.6526 3.41687C22.8024 3.65007 22.8854 3.92008 22.8924 4.19736V4.19736ZM28.3437 4.19736C28.3364 4.4746 28.2535 4.74455 28.1039 4.97785C27.9739 5.2141 27.7831 5.4111 27.5514 5.54829C27.3196 5.68549 27.0554 5.75786 26.7862 5.75786C26.517 5.75786 26.2528 5.68549 26.021 5.54829C25.7893 5.4111 25.5985 5.2141 25.4686 4.97785C25.3189 4.74455 25.236 4.4746 25.2287 4.19736C25.2357 3.92008 25.3187 3.65007 25.4686 3.41687C25.5985 3.18062 25.7893 2.98362 26.021 2.84643C26.2528 2.70923 26.517 2.63686 26.7862 2.63686C27.0554 2.63686 27.3196 2.70923 27.5514 2.84643C27.7831 2.98362 27.9739 3.18062 28.1039 3.41687C28.2537 3.65007 28.3367 3.92008 28.3437 4.19736V4.19736ZM33.795 4.19736C33.7877 4.4746 33.7048 4.74455 33.5551 4.97785C33.4252 5.2141 33.2344 5.4111 33.0026 5.54829C32.7709 5.68549 32.5066 5.75786 32.2375 5.75786C31.9683 5.75786 31.7041 5.68549 31.4723 5.54829C31.2406 5.4111 31.0498 5.2141 30.9198 4.97785C30.7702 4.74455 30.6872 4.4746 30.68 4.19736C30.687 3.92008 30.77 3.65007 30.9198 3.41687C31.0518 3.18235 31.2431 2.98676 31.4744 2.84976C31.7056 2.71277 31.9688 2.63917 32.2375 2.63639C32.5367 2.63775 32.8292 2.72548 33.08 2.88908C33.3308 3.05269 33.5293 3.28524 33.6517 3.55892C33.7445 3.759 33.7934 3.97672 33.795 4.19736V4.19736ZM3.42361 8.48848C3.42361 8.38498 3.46463 8.28572 3.53765 8.21254C3.61068 8.13935 3.70971 8.09824 3.81298 8.09824H34.1844C34.2876 8.09824 34.3867 8.13935 34.4597 8.21254C34.5327 8.28572 34.5737 8.38498 34.5737 8.48848V27.6104C34.5737 28.0244 34.4096 28.4215 34.1176 28.7142C33.8255 29.007 33.4293 29.1714 33.0162 29.1714H4.98111C4.56804 29.1714 4.17188 29.007 3.87979 28.7142C3.5877 28.4215 3.42361 28.0244 3.42361 27.6104V8.48848Z" fill="#172155"/>
<path d="M10.8877 23.2523C11.1797 23.545 11.5758 23.7094 11.9888 23.7094C12.4018 23.7094 12.7979 23.545 13.09 23.2523L16.9837 19.3499C17.2757 19.0572 17.4398 18.6602 17.4398 18.2463C17.4398 17.8324 17.2757 17.4354 16.9837 17.1427L13.09 13.2402C12.7962 12.9559 12.4028 12.7986 11.9944 12.8021C11.586 12.8057 11.1954 12.9698 10.9066 13.2593C10.6179 13.5487 10.4541 13.9402 10.4505 14.3495C10.447 14.7588 10.6039 15.1531 10.8877 15.4475L13.4046 17.97C13.4408 18.0063 13.4696 18.0493 13.4892 18.0967C13.5089 18.1441 13.519 18.195 13.519 18.2463C13.519 18.2976 13.5089 18.3485 13.4892 18.3959C13.4696 18.4433 13.4408 18.4863 13.4046 18.5226L10.8877 21.0451C10.5957 21.3379 10.4316 21.7348 10.4316 22.1487C10.4316 22.5627 10.5957 22.9596 10.8877 23.2523V23.2523Z" fill="#172155"/>
<path d="M20.5556 23.7098H26.7856C27.1987 23.7098 27.5948 23.5454 27.8869 23.2526C28.179 22.9599 28.3431 22.5629 28.3431 22.1489C28.3431 21.7349 28.179 21.3378 27.8869 21.0451C27.5948 20.7523 27.1987 20.5879 26.7856 20.5879H20.5556C20.1425 20.5879 19.7463 20.7523 19.4542 21.0451C19.1621 21.3378 18.998 21.7349 18.998 22.1489C18.998 22.5629 19.1621 22.9599 19.4542 23.2526C19.7463 23.5454 20.1425 23.7098 20.5556 23.7098V23.7098Z" fill="#172155"/>
</svg>
