<svg width="38" height="32" viewBox="0 0 38 32" fill="none" xmlns="http://www.w3.org/2000/svg">
<rect x="1.92969" y="1.57141" width="33.97" height="27.9782" fill="white"/>
<rect x="7.08594" y="9.97131" width="23.6567" height="5.62373" rx="0.680278" fill="#172155"/>
<rect x="7.08594" y="18.3476" width="10.8166" height="7.27036" rx="0.680278" fill="#172155"/>
<rect x="19.9258" y="18.3476" width="10.8166" height="2.2928" rx="0.680278" fill="#172155"/>
<rect x="19.9258" y="23.3256" width="10.8166" height="2.2928" rx="0.680278" fill="#172155"/>
<path d="M0.503906 27.241C0.503906 28.4746 0.996188 29.6577 1.87246 30.53C2.74872 31.4023 3.9372 31.8924 5.17643 31.8924H33.2115C34.4508 31.8924 35.6392 31.4023 36.5155 30.53C37.3918 29.6577 37.8841 28.4746 37.8841 27.241V4.7594C37.8841 3.52578 37.3918 2.34269 36.5155 1.47039C35.6392 0.598086 34.4508 0.108032 33.2115 0.108032H5.17643C3.9372 0.108032 2.74872 0.598086 1.87246 1.47039C0.996188 2.34269 0.503906 3.52578 0.503906 4.7594L0.503906 27.241ZM23.0878 3.98417C23.0805 4.25955 22.9975 4.52767 22.8479 4.7594C22.718 4.99407 22.5272 5.18973 22.2954 5.326C22.0637 5.46228 21.7994 5.53416 21.5302 5.53416C21.2611 5.53416 20.9968 5.46228 20.7651 5.326C20.5333 5.18973 20.3425 4.99407 20.2126 4.7594C20.063 4.52767 19.98 4.25955 19.9727 3.98417C19.9798 3.70876 20.0628 3.44057 20.2126 3.20895C20.3425 2.97428 20.5333 2.77861 20.7651 2.64234C20.9968 2.50607 21.2611 2.43419 21.5302 2.43419C21.7994 2.43419 22.0637 2.50607 22.2954 2.64234C22.5272 2.77861 22.718 2.97428 22.8479 3.20895C22.9977 3.44057 23.0807 3.70876 23.0878 3.98417V3.98417ZM28.539 3.98417C28.5317 4.25955 28.4488 4.52767 28.2992 4.7594C28.1692 4.99407 27.9784 5.18973 27.7467 5.326C27.5149 5.46228 27.2507 5.53416 26.9815 5.53416C26.7123 5.53416 26.4481 5.46228 26.2163 5.326C25.9846 5.18973 25.7938 4.99407 25.6639 4.7594C25.5142 4.52767 25.4313 4.25955 25.424 3.98417C25.431 3.70876 25.514 3.44057 25.6639 3.20895C25.7938 2.97428 25.9846 2.77861 26.2163 2.64234C26.4481 2.50607 26.7123 2.43419 26.9815 2.43419C27.2507 2.43419 27.5149 2.50607 27.7467 2.64234C27.9784 2.77861 28.1692 2.97428 28.2992 3.20895C28.449 3.44057 28.532 3.70876 28.539 3.98417V3.98417ZM33.9903 3.98417C33.983 4.25955 33.9001 4.52767 33.7504 4.7594C33.6205 4.99407 33.4297 5.18973 33.198 5.326C32.9662 5.46228 32.702 5.53416 32.4328 5.53416C32.1636 5.53416 31.8994 5.46228 31.6676 5.326C31.4359 5.18973 31.2451 4.99407 31.1151 4.7594C30.9655 4.52767 30.8826 4.25955 30.8753 3.98417C30.8823 3.70876 30.9653 3.44057 31.1151 3.20895C31.2471 2.976 31.4384 2.78174 31.6697 2.64566C31.901 2.50958 32.1641 2.43649 32.4328 2.43372C32.732 2.43507 33.0246 2.52221 33.2754 2.68471C33.5262 2.84721 33.7246 3.0782 33.847 3.35004C33.9398 3.54876 33.9887 3.76502 33.9903 3.98417V3.98417ZM3.61892 8.24638C3.61892 8.14358 3.65994 8.04499 3.73297 7.97229C3.80599 7.8996 3.90503 7.85877 4.0083 7.85877H34.3797C34.4829 7.85877 34.582 7.8996 34.655 7.97229C34.728 8.04499 34.7691 8.14358 34.7691 8.24638V27.2395C34.7691 27.6507 34.605 28.045 34.3129 28.3358C34.0208 28.6266 33.6246 28.7899 33.2115 28.7899H5.17643C4.76335 28.7899 4.36719 28.6266 4.0751 28.3358C3.78301 28.045 3.61892 27.6507 3.61892 27.2395V8.24638Z" fill="#172155"/>
</svg>
