<svg width="44" height="32" viewBox="0 0 44 32" fill="none" xmlns="http://www.w3.org/2000/svg">
<g clip-path="url(#clip0_167_1367)">
<path d="M0 0.799805H44V31.5998H0V0.799805Z" fill="#009B3A"/>
<path d="M3.74023 16.2L22.0002 27.86L40.2602 16.2L22.0002 4.54004L3.74023 16.2Z" fill="#FEDF00"/>
<path d="M21.9998 23.9C26.2524 23.9 29.6998 20.4526 29.6998 16.2C29.6998 11.9474 26.2524 8.5 21.9998 8.5C17.7472 8.5 14.2998 11.9474 14.2998 16.2C14.2998 20.4526 17.7472 23.9 21.9998 23.9Z" fill="#002776"/>
<mask id="mask0_167_1367" style="mask-type:luminance" maskUnits="userSpaceOnUse" x="14" y="8" width="16" height="16">
<path d="M21.9998 23.9C26.2524 23.9 29.6998 20.4526 29.6998 16.2C29.6998 11.9474 26.2524 8.5 21.9998 8.5C17.7472 8.5 14.2998 11.9474 14.2998 16.2C14.2998 20.4526 17.7472 23.9 21.9998 23.9Z" fill="white"/>
</mask>
<g mask="url(#mask0_167_1367)">
<path d="M-1.10059 31.5999C-1.10059 26.6404 0.869588 21.8839 4.37652 18.377C7.88345 14.8701 12.6399 12.8999 17.5994 12.8999C22.559 12.8999 27.3154 14.8701 30.8223 18.377C34.3292 21.8839 36.2994 26.6404 36.2994 31.5999H35.1994C35.1994 26.9321 33.3451 22.4555 30.0445 19.1548C26.7439 15.8542 22.2672 13.9999 17.5994 13.9999C12.9316 13.9999 8.45498 15.8542 5.15433 19.1548C1.85369 22.4555 -0.000585794 26.9321 -0.000585794 31.5999H-1.10059Z" fill="white"/>
</g>
<path fill-rule="evenodd" clip-rule="evenodd" d="M15.4325 13.9489C15.5194 13.9382 15.598 13.8896 15.6511 13.8138C15.7041 13.7381 15.7272 13.6413 15.7154 13.5447C15.7035 13.4482 15.6577 13.3599 15.5879 13.2992C15.5181 13.2385 15.43 13.2103 15.3432 13.221C15.2563 13.2317 15.1777 13.2803 15.1246 13.356C15.0716 13.4318 15.0485 13.5286 15.0603 13.6252C15.0722 13.7217 15.118 13.81 15.1878 13.8707C15.2576 13.9314 15.3457 13.9595 15.4325 13.9489ZM15.4159 13.8137C15.467 13.8074 15.5129 13.7773 15.5437 13.73C15.5745 13.6827 15.5877 13.622 15.5802 13.5613C15.5728 13.5007 15.5454 13.445 15.504 13.4065C15.4627 13.368 15.4108 13.3499 15.3598 13.3562C15.3087 13.3625 15.2628 13.3926 15.232 13.4399C15.2012 13.4872 15.188 13.5479 15.1955 13.6086C15.2029 13.6692 15.2303 13.7249 15.2717 13.7634C15.313 13.8019 15.3649 13.82 15.4159 13.8137Z" fill="#009B3A"/>
<path fill-rule="evenodd" clip-rule="evenodd" d="M16.0297 13.8829L16.1655 13.8734L16.1465 13.6017L16.4391 13.5812C16.5001 13.577 16.5569 13.5487 16.597 13.5025C16.6371 13.4564 16.6572 13.3962 16.653 13.3352C16.6487 13.2743 16.6204 13.2175 16.5743 13.1774C16.5281 13.1373 16.468 13.1171 16.407 13.1214L15.989 13.1506L16.0297 13.8829ZM16.137 13.4658L16.4192 13.4461C16.4441 13.4444 16.4674 13.4328 16.4838 13.4139C16.5002 13.395 16.5084 13.3704 16.5067 13.3455C16.5049 13.3205 16.4933 13.2973 16.4745 13.2809C16.4556 13.2645 16.431 13.2562 16.406 13.258L16.1239 13.2777L16.137 13.4658Z" fill="#009B3A"/>
<path d="M16.6512 13.8394C16.6439 13.7349 16.6278 13.5049 16.471 13.5159L16.2725 13.5298C16.5024 13.5137 16.5185 13.7436 16.5258 13.8481" fill="#009B3A"/>
<path fill-rule="evenodd" clip-rule="evenodd" d="M16.959 13.825L17.3047 13.8189C17.3459 13.8182 17.3867 13.8094 17.4245 13.7929C17.4624 13.7765 17.4966 13.7527 17.5253 13.723C17.5539 13.6933 17.5765 13.6583 17.5916 13.6199C17.6067 13.5815 17.6142 13.5405 17.6135 13.4992L17.6116 13.3944C17.6109 13.3532 17.6021 13.3125 17.5856 13.2746C17.5692 13.2368 17.5454 13.2025 17.5157 13.1739C17.4861 13.1452 17.451 13.1227 17.4126 13.1075C17.3742 13.0924 17.3332 13.085 17.292 13.0857L16.9463 13.0918L16.959 13.825ZM17.0928 13.6865L17.2918 13.683C17.3446 13.682 17.3949 13.6602 17.4315 13.6222C17.4682 13.5842 17.4883 13.5332 17.4874 13.4804L17.4863 13.4176C17.4854 13.3648 17.4635 13.3146 17.4256 13.2779C17.3876 13.2412 17.3366 13.2212 17.2838 13.2221L17.0848 13.2256L17.0928 13.6865Z" fill="#009B3A"/>
<path d="M17.8906 13.8159L18.5502 13.8391L18.5549 13.703L18.0209 13.6842L18.0275 13.4957L18.4463 13.5105L18.4506 13.3848L18.0318 13.3701L18.0369 13.2235L18.5395 13.2412L18.5442 13.1051L17.916 13.083L17.8906 13.8159Z" fill="#009B3A"/>
<path d="M18.8209 13.8551L18.9461 13.866L18.9899 13.3651L19.0922 13.8788L19.207 13.8888L19.3969 13.4007L19.3531 13.9016L19.4783 13.9126L19.5423 13.182L19.3596 13.1661L19.1697 13.6542L19.0674 13.1405L18.8848 13.1245L18.8209 13.8551Z" fill="#009B3A"/>
<path d="M20.3404 14.0264L20.8824 14.1196L20.9037 13.9957L20.4856 13.9238L20.514 13.7586L20.8547 13.8172L20.876 13.6933L20.5352 13.6347L20.5548 13.5212L20.96 13.5908L20.9813 13.4669L20.4521 13.376L20.3404 14.0264Z" fill="#009B3A"/>
<path fill-rule="evenodd" clip-rule="evenodd" d="M21.7324 14.3003L21.8643 14.3344L21.9325 14.0707L22.2164 14.1441C22.2756 14.1595 22.3385 14.1506 22.3911 14.1196C22.4438 14.0886 22.482 14.0379 22.4973 13.9787C22.5126 13.9195 22.5038 13.8567 22.4727 13.804C22.4417 13.7514 22.391 13.7132 22.3319 13.6979L21.9262 13.593L21.7324 14.3003ZM21.9666 13.9388L22.2404 14.0097C22.2646 14.0159 22.2903 14.0123 22.3119 13.9996C22.3334 13.9869 22.349 13.9662 22.3553 13.942C22.3616 13.9178 22.3579 13.8921 22.3452 13.8705C22.3326 13.849 22.3118 13.8334 22.2876 13.8271L22.0138 13.7563L21.9666 13.9388Z" fill="#009B3A"/>
<path fill-rule="evenodd" clip-rule="evenodd" d="M22.633 14.5402L22.7629 14.5812L22.8448 14.3214L23.1245 14.4096C23.1828 14.428 23.2461 14.4225 23.3003 14.3942C23.3545 14.366 23.3953 14.3174 23.4137 14.2591C23.432 14.2008 23.4265 14.1376 23.3983 14.0834C23.3701 14.0291 23.3215 13.9884 23.2632 13.97L22.8635 13.844L22.633 14.5402ZM22.8857 14.1915L23.1555 14.2766C23.1794 14.2841 23.2052 14.2818 23.2274 14.2703C23.2496 14.2587 23.2663 14.2388 23.2738 14.215C23.2813 14.1911 23.279 14.1653 23.2675 14.1431C23.2559 14.1209 23.2361 14.1042 23.2122 14.0967L22.9424 14.0117L22.8857 14.1915Z" fill="#009B3A"/>
<path d="M23.2272 14.7276C23.2587 14.6277 23.328 14.4079 23.1781 14.3606L22.9883 14.3008C23.2081 14.3701 23.1388 14.5899 23.1073 14.6898" fill="#009B3A"/>
<path fill-rule="evenodd" clip-rule="evenodd" d="M23.8277 14.9426C23.9097 14.9732 24.0018 14.9665 24.0839 14.9237C24.1659 14.881 24.2311 14.8058 24.2652 14.7147C24.2992 14.6236 24.2993 14.5241 24.2655 14.438C24.2316 14.3519 24.1665 14.2864 24.0845 14.2557C24.0025 14.2251 23.9104 14.2318 23.8283 14.2746C23.7463 14.3173 23.681 14.3925 23.647 14.4836C23.6129 14.5747 23.6128 14.6742 23.6467 14.7603C23.6806 14.8464 23.7457 14.9119 23.8277 14.9426ZM23.8754 14.815C23.9235 14.833 23.9782 14.8276 24.0274 14.7998C24.0766 14.772 24.1162 14.7243 24.1376 14.667C24.159 14.6098 24.1604 14.5477 24.1415 14.4945C24.1226 14.4413 24.0849 14.4013 24.0368 14.3833C23.9887 14.3653 23.934 14.3708 23.8848 14.3985C23.8356 14.4263 23.796 14.474 23.7745 14.5313C23.7531 14.5885 23.7517 14.6506 23.7706 14.7038C23.7896 14.757 23.8272 14.797 23.8754 14.815Z" fill="#009B3A"/>
<mask id="mask1_167_1367" style="mask-type:luminance" maskUnits="userSpaceOnUse" x="24" y="14" width="2" height="2">
<path d="M24.3882 15.1598L24.6807 14.4873L25.2859 14.7505L24.9935 15.423L24.3882 15.1598ZM24.8872 14.8399L24.8371 14.9551L25.1397 15.0867L25.1898 14.9714L24.8872 14.8399Z" fill="white"/>
</mask>
<g mask="url(#mask1_167_1367)">
<path fill-rule="evenodd" clip-rule="evenodd" d="M24.6909 15.2914C24.7711 15.3263 24.8635 15.3243 24.9477 15.286C25.0319 15.2476 25.1009 15.1759 25.1397 15.0867C25.1785 14.9976 25.1838 14.8982 25.1545 14.8104C25.1251 14.7227 25.0636 14.6538 24.9833 14.6189C24.903 14.584 24.8107 14.586 24.7265 14.6243C24.6423 14.6627 24.5732 14.7344 24.5345 14.8236C24.4957 14.9127 24.4904 15.0121 24.5197 15.0999C24.549 15.1876 24.6106 15.2565 24.6909 15.2914ZM24.7452 15.1665C24.7923 15.187 24.8472 15.1844 24.8978 15.1592C24.9483 15.1341 24.9904 15.0885 25.0148 15.0324C25.0392 14.9764 25.0438 14.9145 25.0277 14.8603C25.0116 14.8062 24.9761 14.7643 24.929 14.7438C24.8818 14.7233 24.827 14.7259 24.7764 14.751C24.7258 14.7762 24.6837 14.8218 24.6593 14.8779C24.635 14.9339 24.6303 14.9958 24.6464 15.05C24.6625 15.1041 24.698 15.146 24.7452 15.1665Z" fill="#009B3A"/>
</g>
<path d="M24.8848 14.9761L25.1398 15.087L25.0979 15.1833L24.8429 15.0724L24.8848 14.9761Z" fill="#009B3A"/>
<path d="M25.0439 15.0449L25.14 15.0867L24.9938 15.423L24.8977 15.3812L25.0439 15.0449Z" fill="#009B3A"/>
<path fill-rule="evenodd" clip-rule="evenodd" d="M25.2392 15.5376L25.3611 15.5984L25.4826 15.3546L25.7451 15.4855C25.7998 15.5128 25.8631 15.5172 25.9211 15.4978C25.9791 15.4784 26.0269 15.4368 26.0542 15.3821C26.0815 15.3274 26.0859 15.2641 26.0665 15.2061C26.0471 15.1482 26.0055 15.1003 25.9508 15.073L25.5758 14.886L25.2392 15.5376ZM25.5434 15.2328L25.7965 15.359C25.8189 15.3701 25.8448 15.3719 25.8685 15.364C25.8922 15.3561 25.9118 15.339 25.923 15.3167C25.9341 15.2943 25.9359 15.2684 25.928 15.2447C25.9201 15.221 25.903 15.2014 25.8807 15.1902L25.6275 15.064L25.5434 15.2328Z" fill="#009B3A"/>
<path d="M25.7971 15.8159C25.8439 15.7221 25.9467 15.5159 25.8061 15.4457L25.6279 15.3569C25.8342 15.4598 25.7314 15.666 25.6846 15.7598" fill="#009B3A"/>
<path d="M26.0696 15.9595L26.644 16.2845L26.7111 16.166L26.246 15.9029L26.3389 15.7388L26.7036 15.9451L26.7655 15.8357L26.4008 15.6294L26.473 15.5017L26.9107 15.7493L26.9777 15.6308L26.4307 15.3213L26.0696 15.9595Z" fill="#009B3A"/>
<path d="M27.1394 16.3185C27.1 16.3803 27.14 16.4493 27.2283 16.5055C27.3167 16.5618 27.3769 16.5598 27.4023 16.5201C27.4825 16.3942 27.0188 16.2106 27.1617 15.9911C27.2849 15.8025 27.4958 15.9493 27.5753 15.9999C27.6548 16.0506 27.7825 16.1816 27.6832 16.3326L27.5485 16.2468C27.5907 16.1805 27.5443 16.1168 27.4736 16.0718C27.4051 16.0282 27.3495 16.0082 27.3087 16.0723C27.2404 16.1747 27.6948 16.368 27.5555 16.5867C27.4528 16.7479 27.274 16.6775 27.1548 16.6015C27.0532 16.5368 26.9013 16.3842 27.0003 16.2298L27.1394 16.3185Z" fill="#009B3A"/>
<path d="M27.9263 16.8388C27.8837 16.8985 27.92 16.9694 28.0052 17.0302C28.0905 17.091 28.1507 17.0922 28.1782 17.0538C28.2649 16.9323 27.8114 16.7247 27.9656 16.513C28.0986 16.3311 28.3014 16.4887 28.3782 16.5434C28.4549 16.5982 28.5756 16.7357 28.4685 16.8813L28.3385 16.7886C28.3841 16.7246 28.3411 16.6586 28.2729 16.6099C28.2068 16.5627 28.1523 16.5399 28.1082 16.6018C28.0346 16.7005 28.4783 16.9172 28.3277 17.1283C28.2167 17.284 28.0419 17.2043 27.9268 17.1222C27.8287 17.0522 27.685 16.8919 27.7919 16.7429L27.9263 16.8388Z" fill="#009B3A"/>
<path fill-rule="evenodd" clip-rule="evenodd" d="M28.6699 17.6822C28.7384 17.7367 28.8281 17.7587 28.9194 17.7434C29.0106 17.7281 29.0959 17.6768 29.1564 17.6006C29.217 17.5245 29.2478 17.4299 29.2422 17.3376C29.2366 17.2452 29.1949 17.1627 29.1264 17.1083C29.0579 17.0538 28.9682 17.0318 28.877 17.047C28.7857 17.0623 28.7004 17.1137 28.6399 17.1898C28.5794 17.2659 28.5485 17.3605 28.5542 17.4529C28.5598 17.5452 28.6014 17.6277 28.6699 17.6822ZM28.7547 17.5756C28.7949 17.6076 28.8486 17.6193 28.904 17.6081C28.9593 17.5969 29.0118 17.5637 29.0498 17.5159C29.0879 17.468 29.1084 17.4094 29.1069 17.353C29.1053 17.2965 29.0819 17.2468 29.0416 17.2148C29.0014 17.1828 28.9477 17.1712 28.8924 17.1824C28.837 17.1936 28.7845 17.2267 28.7465 17.2746C28.7084 17.3224 28.6879 17.381 28.6895 17.4374C28.691 17.4939 28.7145 17.5436 28.7547 17.5756Z" fill="#009B3A"/>
<path d="M15.7139 14.4868L15.6119 14.8007L15.7688 14.8517" fill="white"/>
<path d="M15.7139 14.4868L15.8158 14.8007L15.6589 14.8517" fill="white"/>
<path d="M16.0283 14.7148L15.6982 14.7148L15.6982 14.8802" fill="white"/>
<path d="M16.0283 14.7148L15.7608 14.9092L15.6635 14.7753" fill="white"/>
<path d="M15.4004 14.7148L15.6679 14.9092L15.7652 14.7753" fill="white"/>
<path d="M15.4004 14.7148L15.7305 14.7148L15.7305 14.8802" fill="white"/>
<path d="M15.9082 15.084L15.8062 14.7701L15.6493 14.8211" fill="white"/>
<path d="M15.9082 15.084L15.6412 14.89L15.7382 14.7565" fill="white"/>
<path d="M15.5195 15.084L15.7865 14.89L15.6895 14.7565" fill="white"/>
<path d="M15.5195 15.084L15.6215 14.7701L15.7784 14.8211" fill="white"/>
<path d="M16.3955 17.7241L16.2935 18.038L16.4505 18.089" fill="white"/>
<path d="M16.3955 17.7241L16.4975 18.038L16.3406 18.089" fill="white"/>
<path d="M16.71 17.9521L16.3798 17.9521L16.3798 18.1175" fill="white"/>
<path d="M16.71 17.9521L16.4424 18.1465L16.3451 18.0126" fill="white"/>
<path d="M16.082 17.9521L16.3496 18.1465L16.4469 18.0126" fill="white"/>
<path d="M16.082 17.9521L16.4121 17.9521L16.4121 18.1175" fill="white"/>
<path d="M16.5898 18.3213L16.4879 18.0074L16.3309 18.0584" fill="white"/>
<path d="M16.5898 18.3213L16.3229 18.1273L16.4199 17.9938" fill="white"/>
<path d="M16.2012 18.3213L16.4681 18.1273L16.3712 17.9938" fill="white"/>
<path d="M16.2012 18.3213L16.3031 18.0074L16.4601 18.0584" fill="white"/>
<path d="M15.4521 18.4707L15.3672 18.7322L15.4979 18.7747" fill="white"/>
<path d="M15.4521 18.4707L15.5371 18.7322L15.4064 18.7747" fill="white"/>
<path d="M15.7139 18.6611L15.4388 18.6611L15.4388 18.7989" fill="white"/>
<path d="M15.7139 18.6611L15.4909 18.8231L15.4098 18.7115" fill="white"/>
<path d="M15.1904 18.6606L15.4134 18.8226L15.4945 18.711" fill="white"/>
<path d="M15.1904 18.6606L15.4655 18.6606L15.4655 18.7985" fill="white"/>
<path d="M15.6133 18.9683L15.528 18.7058L15.3967 18.7485" fill="white"/>
<path d="M15.6133 18.9683L15.39 18.8061L15.4712 18.6944" fill="white"/>
<path d="M15.29 18.9683L15.5133 18.8061L15.4322 18.6944" fill="white"/>
<path d="M15.29 18.9683L15.3753 18.7058L15.5066 18.7485" fill="white"/>
<path d="M17.1494 17.4253L17.1006 17.5756L17.1753 17.5999" fill="white"/>
<path d="M17.1494 17.4253L17.1983 17.5756L17.1235 17.5999" fill="white"/>
<path d="M17.2988 17.5342L17.1416 17.5342L17.1416 17.6129" fill="white"/>
<path d="M17.2988 17.5342L17.1714 17.6267L17.1251 17.563" fill="white"/>
<path d="M17 17.5337L17.1274 17.6263L17.1737 17.5625" fill="white"/>
<path d="M17 17.5337L17.1572 17.5337L17.1572 17.6124" fill="white"/>
<path d="M17.2402 17.7095L17.1915 17.5595L17.1165 17.5839" fill="white"/>
<path d="M17.2412 17.7095L17.1136 17.6168L17.16 17.553" fill="white"/>
<path d="M17.0566 17.7095L17.1842 17.6168L17.1379 17.553" fill="white"/>
<path d="M17.0566 17.7095L17.1054 17.5595L17.1804 17.5839" fill="white"/>
<path d="M17.998 18.5439L17.9131 18.8055L18.0438 18.848" fill="white"/>
<path d="M17.998 18.5439L18.083 18.8055L17.9523 18.848" fill="white"/>
<path d="M18.2598 18.7344L17.9847 18.7344L17.9847 18.8722" fill="white"/>
<path d="M18.2598 18.7344L18.0368 18.8964L17.9557 18.7848" fill="white"/>
<path d="M17.7363 18.7339L17.9593 18.8959L18.0404 18.7843" fill="white"/>
<path d="M17.7363 18.7339L18.0114 18.7339L18.0114 18.8717" fill="white"/>
<path d="M18.1592 19.0415L18.0739 18.7791L17.9426 18.8217" fill="white"/>
<path d="M18.1592 19.0415L17.9359 18.8793L18.0171 18.7677" fill="white"/>
<path d="M17.8359 19.0415L18.0592 18.8793L17.9781 18.7677" fill="white"/>
<path d="M17.8359 19.0415L17.9212 18.7791L18.0525 18.8217" fill="white"/>
<path d="M17.7676 19.3638L17.6996 19.573L17.8042 19.607" fill="white"/>
<path d="M17.7676 19.3638L17.8356 19.573L17.7309 19.607" fill="white"/>
<path d="M17.9766 19.5156L17.7565 19.5156L17.7565 19.6259" fill="white"/>
<path d="M17.9766 19.5156L17.7982 19.6452L17.7333 19.5559" fill="white"/>
<path d="M17.5586 19.5161L17.737 19.6457L17.8018 19.5564" fill="white"/>
<path d="M17.5586 19.5161L17.7787 19.5161L17.7787 19.6264" fill="white"/>
<path d="M17.8975 19.7617L17.8292 19.5518L17.7242 19.5859" fill="white"/>
<path d="M17.8975 19.7617L17.7189 19.632L17.7838 19.5426" fill="white"/>
<path d="M17.6387 19.7617L17.8173 19.632L17.7524 19.5426" fill="white"/>
<path d="M17.6387 19.7617L17.7069 19.5518L17.8119 19.5859" fill="white"/>
<path d="M24.3887 13.4814L24.2867 13.7953L24.4436 13.8463" fill="white"/>
<path d="M24.3887 13.4814L24.4906 13.7953L24.3337 13.8463" fill="white"/>
<path d="M24.7031 13.7095L24.373 13.7095L24.373 13.8748" fill="white"/>
<path d="M24.7031 13.7095L24.4356 13.9039L24.3383 13.7699" fill="white"/>
<path d="M24.0752 13.7095L24.3427 13.9039L24.44 13.7699" fill="white"/>
<path d="M24.0752 13.7095L24.4053 13.7095L24.4053 13.8748" fill="white"/>
<path d="M24.583 14.0786L24.481 13.7648L24.3241 13.8158" fill="white"/>
<path d="M24.583 14.0786L24.316 13.8846L24.413 13.7512" fill="white"/>
<path d="M24.1943 14.0786L24.4613 13.8846L24.3643 13.7512" fill="white"/>
<path d="M24.1943 14.0786L24.2963 13.7648L24.4532 13.8158" fill="white"/>
<path d="M27.3955 18.5728L27.2935 18.8866L27.4505 18.9376" fill="white"/>
<path d="M27.3955 18.5728L27.4975 18.8866L27.3406 18.9376" fill="white"/>
<path d="M27.71 18.8008L27.3798 18.8008L27.3798 18.9662" fill="white"/>
<path d="M27.71 18.8008L27.4424 18.9952L27.3451 18.8612" fill="white"/>
<path d="M27.082 18.8008L27.3496 18.9952L27.4469 18.8612" fill="white"/>
<path d="M27.082 18.8008L27.4121 18.8008L27.4121 18.9662" fill="white"/>
<path d="M27.5898 19.1699L27.4879 18.8561L27.3309 18.9071" fill="white"/>
<path d="M27.5898 19.1699L27.3229 18.976L27.4199 18.8425" fill="white"/>
<path d="M27.2012 19.1699L27.4681 18.976L27.3712 18.8425" fill="white"/>
<path d="M27.2012 19.1699L27.3031 18.8561L27.4601 18.9071" fill="white"/>
<path d="M28.4639 18.7559L28.3959 18.9651L28.5005 18.9991" fill="white"/>
<path d="M28.4639 18.7559L28.5319 18.9651L28.4272 18.9991" fill="white"/>
<path d="M28.6729 18.9077L28.4528 18.9077L28.4528 19.018" fill="white"/>
<path d="M28.6729 18.9077L28.4945 19.0373L28.4296 18.948" fill="white"/>
<path d="M28.2549 18.9082L28.4332 19.0378L28.4981 18.9485" fill="white"/>
<path d="M28.2549 18.9082L28.475 18.9082L28.475 19.0185" fill="white"/>
<path d="M28.5938 19.1538L28.5255 18.9439L28.4205 18.978" fill="white"/>
<path d="M28.5938 19.1538L28.4152 19.0241L28.4801 18.9347" fill="white"/>
<path d="M28.335 19.1538L28.5136 19.0241L28.4487 18.9347" fill="white"/>
<path d="M28.335 19.1538L28.4032 18.9439L28.5082 18.978" fill="white"/>
<path d="M27.709 19.3086L27.624 19.5701L27.7548 19.6126" fill="white"/>
<path d="M27.709 19.3086L27.794 19.5701L27.6632 19.6126" fill="white"/>
<path d="M27.9707 19.499L27.6956 19.499L27.6956 19.6368" fill="white"/>
<path d="M27.9707 19.499L27.7477 19.661L27.6667 19.5494" fill="white"/>
<path d="M27.4473 19.4985L27.6702 19.6605L27.7513 19.5489" fill="white"/>
<path d="M27.4473 19.4985L27.7224 19.4985L27.7224 19.6363" fill="white"/>
<path d="M27.8701 19.8062L27.7848 19.5437L27.6535 19.5864" fill="white"/>
<path d="M27.8701 19.8062L27.6469 19.644L27.728 19.5323" fill="white"/>
<path d="M27.5469 19.8062L27.7701 19.644L27.689 19.5323" fill="white"/>
<path d="M27.5469 19.8062L27.6321 19.5437L27.7634 19.5864" fill="white"/>
<path d="M25.8555 20.9219L25.7705 21.1834L25.9013 21.2259" fill="white"/>
<path d="M25.8555 20.9219L25.9404 21.1834L25.8097 21.2259" fill="white"/>
<path d="M26.1182 21.1123L25.8431 21.1123L25.8431 21.2501" fill="white"/>
<path d="M26.1182 21.1123L25.8952 21.2743L25.8141 21.1627" fill="white"/>
<path d="M25.5938 21.1118L25.8167 21.2738L25.8978 21.1622" fill="white"/>
<path d="M25.5938 21.1118L25.8688 21.1118L25.8688 21.2496" fill="white"/>
<path d="M26.0166 21.4194L25.9313 21.157L25.8 21.1996" fill="white"/>
<path d="M26.0166 21.4194L25.7934 21.2572L25.8745 21.1456" fill="white"/>
<path d="M25.6934 21.4194L25.9166 21.2572L25.8355 21.1456" fill="white"/>
<path d="M25.6934 21.4194L25.7786 21.157L25.9099 21.1996" fill="white"/>
<path d="M25.8447 21.752L25.7767 21.9612L25.8814 21.9952" fill="white"/>
<path d="M25.8447 21.752L25.9127 21.9612L25.8081 21.9952" fill="white"/>
<path d="M26.0537 21.9038L25.8336 21.9038L25.8336 22.0141" fill="white"/>
<path d="M26.0537 21.9038L25.8753 22.0334L25.8105 21.9441" fill="white"/>
<path d="M25.6357 21.9043L25.8141 22.0339L25.879 21.9446" fill="white"/>
<path d="M25.6357 21.9043L25.8558 21.9043L25.8558 22.0145" fill="white"/>
<path d="M25.9746 22.1499L25.9064 21.94L25.8013 21.9741" fill="white"/>
<path d="M25.9746 22.1499L25.796 22.0201L25.8609 21.9308" fill="white"/>
<path d="M25.7158 22.1499L25.8944 22.0201L25.8295 21.9308" fill="white"/>
<path d="M25.7158 22.1499L25.784 21.9399L25.8891 21.9741" fill="white"/>
<path d="M26.6201 20.3691L26.5521 20.5784L26.6567 20.6124" fill="white"/>
<path d="M26.6201 20.3691L26.6881 20.5784L26.5835 20.6124" fill="white"/>
<path d="M26.8291 20.521L26.609 20.521L26.609 20.6312" fill="white"/>
<path d="M26.8291 20.521L26.6507 20.6506L26.5859 20.5613" fill="white"/>
<path d="M26.4111 20.5215L26.5895 20.6511L26.6544 20.5618" fill="white"/>
<path d="M26.4111 20.5215L26.6312 20.5215L26.6312 20.6317" fill="white"/>
<path d="M26.75 20.7671L26.6818 20.5571L26.5767 20.5913" fill="white"/>
<path d="M26.75 20.7671L26.5714 20.6373L26.6363 20.548" fill="white"/>
<path d="M26.4912 20.7671L26.6698 20.6373L26.6049 20.548" fill="white"/>
<path d="M26.4912 20.7671L26.5594 20.5571L26.6645 20.5913" fill="white"/>
<path d="M27.2383 19.9268L27.1533 20.1883L27.2841 20.2308" fill="white"/>
<path d="M27.2383 19.9268L27.3233 20.1883L27.1925 20.2308" fill="white"/>
<path d="M27.5 20.1172L27.2249 20.1172L27.2249 20.255" fill="white"/>
<path d="M27.5 20.1172L27.277 20.2792L27.196 20.1676" fill="white"/>
<path d="M26.9766 20.1167L27.1995 20.2787L27.2806 20.1671" fill="white"/>
<path d="M26.9766 20.1167L27.2517 20.1167L27.2517 20.2545" fill="white"/>
<path d="M27.3994 20.4243L27.3141 20.1619L27.1828 20.2045" fill="white"/>
<path d="M27.3994 20.4243L27.1762 20.2621L27.2573 20.1505" fill="white"/>
<path d="M27.0762 20.4243L27.2994 20.2621L27.2183 20.1505" fill="white"/>
<path d="M27.0762 20.4243L27.1614 20.1619L27.2927 20.2045" fill="white"/>
<path d="M25.8232 20.2227L25.7553 20.4319L25.8599 20.4659" fill="white"/>
<path d="M25.8232 20.2227L25.8912 20.4319L25.7866 20.4659" fill="white"/>
<path d="M26.0322 20.3745L25.8121 20.3745L25.8121 20.4848" fill="white"/>
<path d="M26.0322 20.3745L25.8539 20.5041L25.789 20.4148" fill="white"/>
<path d="M25.6143 20.375L25.7926 20.5046L25.8575 20.4153" fill="white"/>
<path d="M25.6143 20.375L25.8343 20.375L25.8343 20.4853" fill="white"/>
<path d="M25.9531 20.6206L25.8849 20.4107L25.7799 20.4448" fill="white"/>
<path d="M25.9531 20.6206L25.7745 20.4908L25.8394 20.4015" fill="white"/>
<path d="M25.6943 20.6206L25.8729 20.4908L25.808 20.4015" fill="white"/>
<path d="M25.6943 20.6206L25.7626 20.4106L25.8676 20.4448" fill="white"/>
<path d="M19.0664 16.2393L18.9814 16.5008L19.1122 16.5433" fill="white"/>
<path d="M19.0664 16.2393L19.1514 16.5008L19.0206 16.5433" fill="white"/>
<path d="M19.3281 16.4297L19.053 16.4297L19.053 16.5675" fill="white"/>
<path d="M19.3281 16.4297L19.1052 16.5917L19.0241 16.4801" fill="white"/>
<path d="M18.8047 16.4292L19.0276 16.5912L19.1087 16.4796" fill="white"/>
<path d="M18.8047 16.4292L19.0798 16.4292L19.0798 16.567" fill="white"/>
<path d="M19.2275 16.7368L19.1422 16.4744L19.0109 16.517" fill="white"/>
<path d="M19.2275 16.7368L19.0043 16.5746L19.0854 16.463" fill="white"/>
<path d="M18.9043 16.7368L19.1275 16.5746L19.0464 16.463" fill="white"/>
<path d="M18.9043 16.7368L18.9896 16.4744L19.1208 16.517" fill="white"/>
<path d="M24.0947 15.5923L24.0267 15.8015L24.1314 15.8355" fill="white"/>
<path d="M24.0947 15.5923L24.1627 15.8015L24.0581 15.8355" fill="white"/>
<path d="M24.3037 15.7441L24.0836 15.7441L24.0836 15.8544" fill="white"/>
<path d="M24.3037 15.7441L24.1253 15.8737L24.0605 15.7844" fill="white"/>
<path d="M23.8857 15.7446L24.0641 15.8742L24.129 15.7849" fill="white"/>
<path d="M23.8857 15.7446L24.1058 15.7446L24.1058 15.8549" fill="white"/>
<path d="M24.2246 15.9902L24.1564 15.7803L24.0513 15.8144" fill="white"/>
<path d="M24.2246 15.9902L24.046 15.8605L24.1109 15.7712" fill="white"/>
<path d="M23.9658 15.9902L24.1444 15.8605L24.0795 15.7712" fill="white"/>
<path d="M23.9658 15.9902L24.034 15.7803L24.1391 15.8144" fill="white"/>
<path d="M22 19.3271L21.898 19.641L22.0549 19.692" fill="white"/>
<path d="M22 19.3271L22.102 19.641L21.9451 19.692" fill="white"/>
<path d="M22.3145 19.5552L21.9843 19.5552L21.9843 19.7206" fill="white"/>
<path d="M22.3145 19.5552L22.0469 19.7496L21.9496 19.6156" fill="white"/>
<path d="M21.6865 19.5552L21.9541 19.7496L22.0514 19.6156" fill="white"/>
<path d="M21.6865 19.5552L22.0166 19.5552L22.0166 19.7206" fill="white"/>
<path d="M22.1943 19.9243L22.0924 19.6105L21.9354 19.6615" fill="white"/>
<path d="M22.1943 19.9243L21.9274 19.7303L22.0243 19.5969" fill="white"/>
<path d="M21.8057 19.9243L22.0726 19.7303L21.9757 19.5969" fill="white"/>
<path d="M21.8057 19.9243L21.9076 19.6105L22.0646 19.6615" fill="white"/>
<path d="M22.8906 17.8525L22.8056 18.1141L22.9364 18.1566" fill="white"/>
<path d="M22.8906 17.8525L22.9756 18.1141L22.8448 18.1566" fill="white"/>
<path d="M23.1523 18.043L22.8772 18.043L22.8772 18.1808" fill="white"/>
<path d="M23.1523 18.043L22.9294 18.205L22.8483 18.0934" fill="white"/>
<path d="M22.6289 18.0425L22.8519 18.2045L22.933 18.0929" fill="white"/>
<path d="M22.6289 18.0425L22.904 18.0425L22.904 18.1803" fill="white"/>
<path d="M23.0518 18.3501L22.9664 18.0877L22.8352 18.1303" fill="white"/>
<path d="M23.0518 18.3501L22.8285 18.1879L22.9096 18.0762" fill="white"/>
<path d="M22.7285 18.3501L22.9518 18.1879L22.8706 18.0762" fill="white"/>
<path d="M22.7285 18.3501L22.8138 18.0877L22.9451 18.1303" fill="white"/>
<path d="M22 17.1611L21.915 17.4227L22.0458 17.4652" fill="white"/>
<path d="M22 17.1611L22.085 17.4227L21.9542 17.4652" fill="white"/>
<path d="M22.2617 17.3516L21.9866 17.3516L21.9866 17.4894" fill="white"/>
<path d="M22.2617 17.3516L22.0388 17.5136L21.9577 17.4019" fill="white"/>
<path d="M21.7383 17.3511L21.9612 17.5131L22.0423 17.4015" fill="white"/>
<path d="M21.7383 17.3511L22.0134 17.3511L22.0134 17.4889" fill="white"/>
<path d="M22.1611 17.6587L22.0758 17.3963L21.9445 17.4389" fill="white"/>
<path d="M22.1611 17.6587L21.9379 17.4965L22.019 17.3848" fill="white"/>
<path d="M21.8379 17.6587L22.0611 17.4965L21.98 17.3848" fill="white"/>
<path d="M21.8379 17.6587L21.9232 17.3962L22.0544 17.4389" fill="white"/>
<path d="M21.2246 17.9072L21.1566 18.1165L21.2612 18.1505" fill="white"/>
<path d="M21.2246 17.9072L21.2926 18.1165L21.188 18.1505" fill="white"/>
<path d="M21.4336 18.0591L21.2135 18.0591L21.2135 18.1693" fill="white"/>
<path d="M21.4336 18.0591L21.2552 18.1887L21.1904 18.0994" fill="white"/>
<path d="M21.0156 18.0596L21.194 18.1892L21.2589 18.0999" fill="white"/>
<path d="M21.0156 18.0596L21.2357 18.0596L21.2357 18.1698" fill="white"/>
<path d="M21.3545 18.3052L21.2862 18.0952L21.1812 18.1293" fill="white"/>
<path d="M21.3545 18.3052L21.1759 18.1754L21.2408 18.0861" fill="white"/>
<path d="M21.0957 18.3052L21.2743 18.1754L21.2094 18.0861" fill="white"/>
<path d="M21.0957 18.3052L21.1639 18.0952L21.2689 18.1293" fill="white"/>
<path d="M21.6123 18.5044L21.5635 18.6547L21.6382 18.679" fill="white"/>
<path d="M21.6123 18.5044L21.6611 18.6547L21.5864 18.679" fill="white"/>
<path d="M21.7617 18.6133L21.6045 18.6133L21.6045 18.692" fill="white"/>
<path d="M21.7617 18.6133L21.6343 18.7058L21.588 18.6421" fill="white"/>
<path d="M21.4629 18.6128L21.5903 18.7054L21.6366 18.6416" fill="white"/>
<path d="M21.4629 18.6128L21.6201 18.6128L21.6201 18.6915" fill="white"/>
<path d="M21.7031 18.7886L21.6544 18.6386L21.5794 18.663" fill="white"/>
<path d="M21.7041 18.7886L21.5765 18.6959L21.6229 18.6321" fill="white"/>
<path d="M21.5195 18.7886L21.6471 18.6959L21.6007 18.6321" fill="white"/>
<path d="M21.5195 18.7886L21.5683 18.6386L21.6433 18.663" fill="white"/>
<path d="M24.3047 21.1104L24.2197 21.3719L24.3505 21.4144" fill="white"/>
<path d="M24.3047 21.1104L24.3897 21.3719L24.2589 21.4144" fill="white"/>
<path d="M24.5674 21.3008L24.2923 21.3008L24.2923 21.4386" fill="white"/>
<path d="M24.5674 21.3008L24.3444 21.4628L24.2633 21.3512" fill="white"/>
<path d="M24.043 21.3003L24.2659 21.4623L24.347 21.3507" fill="white"/>
<path d="M24.043 21.3003L24.3181 21.3003L24.3181 21.4381" fill="white"/>
<path d="M24.4658 21.6079L24.3805 21.3455L24.2492 21.3881" fill="white"/>
<path d="M24.4658 21.6079L24.2426 21.4457L24.3237 21.3341" fill="white"/>
<path d="M24.1426 21.6079L24.3658 21.4457L24.2847 21.3341" fill="white"/>
<path d="M24.1426 21.6079L24.2279 21.3455L24.3591 21.3881" fill="white"/>
<path d="M24.9648 20.4844L24.8969 20.6936L25.0015 20.7276" fill="white"/>
<path d="M24.9648 20.4844L25.0328 20.6936L24.9282 20.7276" fill="white"/>
<path d="M25.1738 20.6362L24.9538 20.6362L24.9538 20.7465" fill="white"/>
<path d="M25.1738 20.6362L24.9955 20.7658L24.9306 20.6765" fill="white"/>
<path d="M24.7559 20.6367L24.9342 20.7663L24.9991 20.677" fill="white"/>
<path d="M24.7559 20.6367L24.9759 20.6367L24.9759 20.747" fill="white"/>
<path d="M25.0947 20.8823L25.0265 20.6724L24.9215 20.7065" fill="white"/>
<path d="M25.0947 20.8823L24.9161 20.7526L24.981 20.6632" fill="white"/>
<path d="M24.8359 20.8823L25.0145 20.7526L24.9496 20.6632" fill="white"/>
<path d="M24.8359 20.8823L24.9042 20.6724L25.0092 20.7065" fill="white"/>
<path d="M23.6973 20.2959L23.6293 20.5051L23.7339 20.5391" fill="white"/>
<path d="M23.6973 20.2959L23.7652 20.5051L23.6606 20.5391" fill="white"/>
<path d="M23.9062 20.4478L23.6862 20.4478L23.6862 20.558" fill="white"/>
<path d="M23.9062 20.4478L23.7279 20.5773L23.663 20.4881" fill="white"/>
<path d="M23.4883 20.4482L23.6666 20.5778L23.7315 20.4885" fill="white"/>
<path d="M23.4883 20.4482L23.7084 20.4482L23.7084 20.5585" fill="white"/>
<path d="M23.8271 20.6938L23.7589 20.4839L23.6539 20.518" fill="white"/>
<path d="M23.8271 20.6938L23.6486 20.5641L23.7135 20.4748" fill="white"/>
<path d="M23.5684 20.6938L23.747 20.5641L23.6821 20.4748" fill="white"/>
<path d="M23.5684 20.6938L23.6366 20.4839L23.7416 20.518" fill="white"/>
<path d="M18.9092 19.9556L18.8072 20.2694L18.9641 20.3204" fill="white"/>
<path d="M18.9092 19.9556L19.0112 20.2694L18.8542 20.3204" fill="white"/>
<path d="M19.2236 20.1836L18.8935 20.1836L18.8935 20.349" fill="white"/>
<path d="M19.2236 20.1836L18.9561 20.378L18.8588 20.2441" fill="white"/>
<path d="M18.5957 20.1836L18.8633 20.378L18.9606 20.2441" fill="white"/>
<path d="M18.5957 20.1836L18.9258 20.1836L18.9258 20.349" fill="white"/>
<path d="M19.1035 20.5527L19.0015 20.2389L18.8446 20.2899" fill="white"/>
<path d="M19.1035 20.5527L18.8365 20.3588L18.9335 20.2253" fill="white"/>
<path d="M18.7148 20.5527L18.9818 20.3588L18.8848 20.2253" fill="white"/>
<path d="M18.7148 20.5527L18.8168 20.2389L18.9737 20.2899" fill="white"/>
<path d="M22 22.1138L21.9658 22.219L22.0181 22.236" fill="white"/>
<path d="M22 22.1138L22.0342 22.219L21.9819 22.236" fill="white"/>
<path d="M22.1045 22.1899L21.9945 22.1899L21.9945 22.2451" fill="white"/>
<path d="M22.1045 22.1899L22.0153 22.2547L21.9829 22.2101" fill="white"/>
<path d="M21.8955 22.1899L21.9847 22.2547L22.0171 22.2101" fill="white"/>
<path d="M21.8955 22.1899L22.0055 22.1899L22.0055 22.2451" fill="white"/>
<path d="M22.0645 22.313L22.0303 22.208L21.9778 22.2251" fill="white"/>
<path d="M22.0645 22.313L21.9752 22.2481L22.0076 22.2034" fill="white"/>
<path d="M21.9355 22.313L22.0248 22.2481L21.9924 22.2034" fill="white"/>
<path d="M21.9355 22.313L21.9697 22.208L22.0222 22.2251" fill="white"/>
</g>
<defs>
<clipPath id="clip0_167_1367">
<rect y="0.799805" width="44" height="30.8" rx="8" fill="white"/>
</clipPath>
</defs>
</svg>
