<svg width="29" height="30" viewBox="0 0 29 30" fill="none" xmlns="http://www.w3.org/2000/svg">
<g clip-path="url(#clip0_167_782)">
<path d="M-15 0H29V29.3333H-15V0Z" fill="#EE1C25"/>
<path d="M0.240699 1.58343L-0.00416166 4.36242L-1.43955 1.97025L1.12779 3.06192L-1.59088 3.68772L0.240699 1.58343Z" fill="#FFFF00"/>
<path d="M3.65289 4.84544L2.3488 7.31162L1.95421 4.5499L3.89672 6.55231L1.14825 6.07405L3.65289 4.84544Z" fill="#FFFF00"/>
<path d="M3.97736 9.76369L1.78068 11.4834L2.54701 8.80091L3.50369 11.4215L1.18941 9.86369L3.97736 9.76369Z" fill="#FFFF00"/>
<path d="M0.184099 11.8278L0.0546578 14.6146L-1.47867 12.284L1.13172 13.2683L-1.55867 14.0062L0.184099 11.8278Z" fill="#FFFF00"/>
</g>
<defs>
<clipPath id="clip0_167_782">
<rect x="-15" width="44" height="29.3333" rx="8" fill="white"/>
</clipPath>
</defs>
</svg>
