<svg width="184" height="70" viewBox="0 0 184 70" fill="none" xmlns="http://www.w3.org/2000/svg">
<mask id="mask0_167_1987" style="mask-type:luminance" maskUnits="userSpaceOnUse" x="0" y="0" width="184" height="70">
<path d="M184 0H0V70H184V0Z" fill="white"/>
</mask>
<g mask="url(#mask0_167_1987)">
<path d="M57.1184 35.4114C57.1184 39.1176 56.7004 42.4114 55.8652 46.1176C54.6117 51.4705 50.8518 55.1763 45.4209 56.4114C38.3187 58.0585 30.7989 58.0585 23.6968 56.4114C18.6835 55.1763 14.5059 51.0585 13.6703 46.1176C12.8348 42.4114 12.417 38.7056 12.417 35.4114C12.417 31.7057 12.8348 28.4116 13.6703 24.7057C14.9236 19.3528 18.6835 15.6468 24.1146 14.4116C27.4567 13.588 31.2167 13.1763 34.9766 13.1763C38.7363 13.1763 42.0786 13.588 45.8385 14.4116C51.2695 15.6468 55.0297 19.3528 56.2828 24.7057C56.7004 27.9998 57.1184 31.7057 57.1184 35.4114Z" fill="#80ADFD"/>
<path d="M48.6333 32.941C54.9195 32.941 60.0155 27.8713 60.0155 21.6175C60.0155 15.3637 54.9195 10.2939 48.6333 10.2939C42.347 10.2939 37.251 15.3637 37.251 21.6175C37.251 27.8713 42.347 32.941 48.6333 32.941Z" fill="#005AFF"/>
<path d="M77.9102 49.3498V23.2573H86.3696C88.8077 23.2573 90.5685 23.5023 91.6521 23.9923C92.982 24.6048 94.0286 25.5236 94.7921 26.7486C95.5555 27.9736 95.9372 29.4313 95.9372 31.1218C95.9372 32.7143 95.5309 34.1721 94.7182 35.4951C93.9301 36.7936 92.8588 37.7123 91.5043 38.2513V38.3248C91.7506 38.5698 92.0461 38.9986 92.3909 39.6111L97.7843 49.3498H92.4648L87.2562 39.6111H82.6755V49.3498H77.9102ZM82.6755 35.4951H86.9606C88.2412 35.4951 89.251 35.1398 89.9898 34.4293C90.7286 33.6943 91.098 32.6776 91.098 31.3791C91.098 30.0316 90.7409 29.0271 90.0267 28.3656C89.3125 27.6796 88.0689 27.3366 86.2957 27.3366H82.6755V35.4951Z" fill="black"/>
<path d="M99.9756 39.9788C99.9756 37.0878 100.862 34.7358 102.635 32.9228C104.433 31.0853 106.736 30.1665 109.543 30.1665C112.178 30.1665 114.222 31.0118 115.675 32.7023C117.153 34.3683 117.892 36.4875 117.892 39.06L117.781 40.8608H104.778C104.926 42.4288 105.529 43.6538 106.588 44.5358C107.672 45.3933 108.952 45.822 110.43 45.822C111.316 45.822 112.215 45.6505 113.126 45.3075C114.038 44.9645 114.727 44.6215 115.195 44.2785L115.86 43.764L117.67 47.1083C117.596 47.1818 117.485 47.2798 117.338 47.4023C117.19 47.5248 116.857 47.7453 116.34 48.0638C115.848 48.3578 115.331 48.6273 114.789 48.8723C114.247 49.0928 113.545 49.301 112.683 49.497C111.846 49.693 110.984 49.791 110.097 49.791C107.068 49.791 104.618 48.8478 102.746 46.9613C100.899 45.0503 99.9756 42.7228 99.9756 39.9788ZM104.926 37.6635H113.163C113.139 36.4385 112.769 35.483 112.055 34.797C111.366 34.111 110.491 33.768 109.432 33.768C108.226 33.768 107.228 34.111 106.44 34.797C105.652 35.483 105.147 36.4385 104.926 37.6635Z" fill="black"/>
<path d="M121.76 56.7V30.6075H126.045V31.9673L125.971 33.2535H126.045C126.094 33.18 126.156 33.0698 126.23 32.9228C126.328 32.7758 126.55 32.5308 126.895 32.1878C127.239 31.8203 127.621 31.5018 128.04 31.2323C128.458 30.9628 129.025 30.7178 129.739 30.4973C130.478 30.2768 131.266 30.1665 132.103 30.1665C134.64 30.1665 136.659 31.073 138.161 32.886C139.688 34.699 140.452 37.0633 140.452 39.9788C140.452 42.9188 139.639 45.2953 138.014 47.1083C136.413 48.8968 134.357 49.791 131.845 49.791C131.155 49.791 130.49 49.7052 129.85 49.5338C129.234 49.3623 128.729 49.154 128.335 48.909C127.941 48.6395 127.584 48.3823 127.264 48.1373C126.968 47.8678 126.759 47.6473 126.636 47.4758L126.451 47.2185H126.377C126.427 47.6595 126.451 48.1985 126.451 48.8355V56.7H121.76ZM126.303 40.089C126.303 41.657 126.71 43.0168 127.523 44.1683C128.36 45.2953 129.517 45.8588 130.995 45.8588C132.349 45.8588 133.47 45.3443 134.357 44.3153C135.268 43.2618 135.723 41.8408 135.723 40.0523C135.723 38.2883 135.292 36.8673 134.43 35.7893C133.568 34.7113 132.436 34.1723 131.032 34.1723C129.702 34.1723 128.581 34.6745 127.67 35.679C126.759 36.659 126.303 38.129 126.303 40.089Z" fill="black"/>
<path d="M144.084 43.5066V23.2573H148.739V42.8083C148.739 43.7883 148.886 44.4621 149.182 44.8296C149.502 45.1971 149.995 45.3808 150.659 45.3808L151.361 45.3441V49.4233C150.893 49.4968 150.401 49.5336 149.884 49.5336C149.12 49.5336 148.443 49.4723 147.852 49.3498C147.261 49.2028 146.658 48.9456 146.042 48.5781C145.426 48.1861 144.946 47.5613 144.601 46.7038C144.256 45.8463 144.084 44.7806 144.084 43.5066Z" fill="black"/>
<path d="M152.291 55.8547L153.843 52.3634C154.533 52.8779 155.234 53.1352 155.949 53.1352C157.426 53.1352 158.51 52.3267 159.199 50.7097L159.901 49.0559L151.959 30.6074H157.242L161.194 41.4119L161.896 43.9477H161.97C162.167 42.9677 162.376 42.1469 162.598 41.4854L166.292 30.6074H171.427L163.004 52.1797C162.364 53.8212 161.44 55.0462 160.234 55.8547C159.052 56.6632 157.709 57.0674 156.207 57.0674C155.542 57.0674 154.877 56.9694 154.212 56.7734C153.572 56.5774 153.092 56.3814 152.772 56.1854L152.291 55.8547Z" fill="black"/>
</g>
</svg>
