<svg width="53" height="53" viewBox="0 0 53 53" fill="none" xmlns="http://www.w3.org/2000/svg">
<rect width="53" height="53" rx="8" fill="#172155"/>
<path d="M25.0919 42.1167C25.4412 42.128 25.7712 41.9561 25.9621 41.6633L27.756 38.911C28.1896 38.2458 27.7122 37.3649 26.9182 37.3649H21.0245C20.6857 37.3649 20.37 37.5364 20.1856 37.8206L18.521 40.3858C18.0972 41.0388 18.5493 41.9043 19.3274 41.9296L25.0919 42.1167Z" fill="white"/>
<path d="M22.355 17.7347H37.7429C38.1462 17.7347 38.5101 17.4924 38.6656 17.1202L40.1466 13.5753C40.4208 12.9188 39.9414 12.194 39.2299 12.1895C35.886 12.1687 27.668 12.1153 22.355 12.062C15.6772 11.9949 13.3259 17.5261 13.2419 17.729C13.2393 17.7355 13.2382 17.738 13.2355 17.7444L8.30646 29.2772C8.28469 29.3281 8.26776 29.378 8.25629 29.4322C8.11658 30.0917 7.28422 34.6848 11.1988 34.6848H38.2732C38.6835 34.6848 39.0522 34.4341 39.2031 34.0526L40.5208 30.7215C40.7804 30.0652 40.2967 29.3537 39.5909 29.3537H19.2938C16.5926 29.3537 16.7606 27.5056 17.0387 26.5276C17.1441 26.157 17.4983 25.9363 17.8836 25.9363H23.3753C23.0857 25.9363 27.0292 20.4686 28.4579 20.4686H20.9813C20.2216 20.4686 19.7649 19.6653 20.2532 19.0832C20.8212 18.406 21.5798 17.7347 22.355 17.7347Z" fill="#F8561B"/>
<path d="M44.1449 25.3381C43.9919 25.7155 43.6254 25.9624 43.2182 25.9624H25.9355C25.9355 25.9624 29.0433 20.5111 32.6345 20.511C35.3648 20.511 41.7272 20.511 44.6213 20.511C45.3307 20.511 45.8107 21.2292 45.5441 21.8867L44.1449 25.3381Z" fill="white"/>
</svg>
