<svg width="141" height="45" viewBox="0 0 141 45" fill="none" xmlns="http://www.w3.org/2000/svg">
<g clip-path="url(#clip0_167_1998)">
<path d="M39.7129 43.8147V31.0249H42.184V42.2023H45.4387V43.8147H39.7129Z" fill="black"/>
<path d="M52.6309 43.8147V31.0249H58.3203V32.6742H55.1064V36.3461H57.6473V37.9897H55.1064V42.208H58.361V43.8204L52.6309 43.8147Z" fill="black"/>
<path d="M69.0652 43.985C67.7802 43.985 66.8553 43.6065 66.2902 42.8495C65.7252 42.0926 65.4424 40.992 65.4413 39.5481V35.3837C65.432 34.745 65.494 34.1073 65.6259 33.4818C65.7361 32.9801 65.9465 32.5046 66.2452 32.0823C66.5454 31.6741 66.9612 31.3603 67.4415 31.1796C68.0394 30.9643 68.6739 30.8621 69.3108 30.8787C70.6559 30.8787 71.6206 31.1885 72.205 31.8084C72.7893 32.4282 73.0801 33.3682 73.0771 34.6286V35.2531H70.7078V34.5889C70.7078 34.305 70.7078 34.0751 70.6874 33.8948C70.6732 33.711 70.6405 33.5289 70.59 33.3512C70.553 33.193 70.4753 33.0465 70.3647 32.9254C70.2499 32.8178 70.1125 32.7361 69.9621 32.6855C69.7618 32.6194 69.5513 32.5882 69.3399 32.5933C69.1719 32.5913 69.0044 32.6133 68.8428 32.6586C68.7137 32.6955 68.5909 32.7505 68.4779 32.8218C68.3746 32.8942 68.2904 32.9896 68.2323 33.1C68.1686 33.2084 68.1164 33.3231 68.0767 33.4421C68.036 33.5811 68.0088 33.7238 67.9953 33.8679C67.9764 34.0424 67.9633 34.1971 67.959 34.3306C67.9546 34.464 67.9503 34.6357 67.9503 34.8472V40.0122C67.9503 40.7825 68.0516 41.3469 68.2541 41.7055C68.4566 42.0642 68.8442 42.243 69.417 42.2421C69.6738 42.2509 69.9288 42.1961 70.1583 42.0831C70.3611 41.9745 70.5245 41.8074 70.6264 41.6048C70.7438 41.3741 70.8238 41.127 70.8633 40.8724C70.9136 40.5435 70.937 40.2112 70.9331 39.8788V38.8299H69.4591V37.3254H73.1556V43.8204H71.5479L71.3721 42.5188C70.9603 43.4972 70.1913 43.986 69.0652 43.985Z" fill="black"/>
<path d="M80.1953 43.8147L82.9572 31.0249H85.5388L88.2934 43.8147H85.9923L85.4428 40.8454H83.0894L82.5313 43.8147H80.1953ZM83.3525 39.3253H85.1725L84.2611 34.0737L83.3525 39.3253Z" fill="black"/>
<path d="M95.502 43.8147V31.0249H97.9731V42.2023H101.228V43.8147H95.502Z" fill="black"/>
<path d="M7.61099 26.7553C6.5797 26.7715 5.55232 26.6277 4.56714 26.3295C3.76475 26.0875 3.02236 25.686 2.38673 25.1501C1.79573 24.6242 1.31919 23.9875 0.985444 23.2779C0.621164 22.5169 0.366781 21.71 0.229569 20.8806C0.0764444 19.9267 0.00352071 18.9621 0.0115274 17.9965V8.91265C0.00210712 7.90484 0.0774638 6.89797 0.236837 5.9022C0.376969 5.06053 0.631665 4.24094 0.994166 3.46517C1.31673 2.75931 1.79176 2.12987 2.38673 1.62C3.02781 1.10202 3.76944 0.715806 4.56714 0.484521C5.55709 0.195825 6.58671 0.0579452 7.61971 0.0757462C8.94927 0.0757462 10.087 0.248908 11.0328 0.59523C11.9082 0.893702 12.6826 1.42156 13.2713 2.12104C13.8312 2.81486 14.2371 3.61482 14.4633 4.47007C14.7235 5.49533 14.8456 6.54932 14.8267 7.60542V9.83807H10.1388V7.61962C10.1388 6.32044 10.069 5.44563 9.9295 4.99523C9.65041 4.11334 8.96866 3.64021 7.88427 3.57588H7.62698C7.26458 3.57014 6.90339 3.61799 6.55567 3.71781C6.27017 3.80062 6.012 3.9553 5.80707 4.16633C5.62041 4.36111 5.46329 4.58096 5.34046 4.81923C5.20572 5.10583 5.11605 5.41063 5.07445 5.72336C5.01941 6.06432 4.98206 6.40776 4.96252 6.75239C4.94701 7.06749 4.93878 7.46586 4.93781 7.94749V18.9844C4.93781 20.5163 5.13162 21.6069 5.51925 22.256C5.90689 22.9051 6.60751 23.2297 7.62117 23.2297C7.9288 23.2349 8.23551 23.1952 8.53113 23.1119C8.76568 23.0467 8.98836 22.9462 9.19107 22.8138C9.38142 22.6781 9.5359 22.5 9.64168 22.2943C9.75495 22.0935 9.84933 21.883 9.92368 21.6655C10.0011 21.4017 10.0498 21.1304 10.069 20.8565C10.101 20.5102 10.1194 20.2164 10.1243 19.9751C10.1291 19.7338 10.132 19.4027 10.133 18.9815V16.6609H14.8267V18.7984C14.8346 19.678 14.7645 20.5565 14.6174 21.4242C14.4842 22.1819 14.243 22.9177 13.9008 23.6101C13.5899 24.26 13.1445 24.8399 12.5925 25.3133C11.986 25.7994 11.2848 26.1601 10.5313 26.3735C9.58332 26.6446 8.59862 26.7734 7.61099 26.7553Z" fill="black"/>
<path d="M20.5918 25.0278V1.78591H26.0472C27.132 1.76944 28.2152 1.87084 29.2771 2.08823C30.1219 2.26467 30.9208 2.60809 31.6247 3.09739C32.3013 3.58372 32.8198 4.25057 33.1175 5.01778C33.4479 5.82491 33.6132 6.81326 33.6132 7.98281C33.6132 9.44 33.3904 10.6313 32.9446 11.5567C32.5024 12.4807 31.7135 13.2033 30.7409 13.5751L34.0435 25.0278H29.6943L26.851 14.4167H24.9279V25.0278H20.5918ZM24.9279 11.7115H25.976C27.258 11.7115 28.1695 11.4451 28.7102 10.9124C29.2509 10.3796 29.5213 9.46839 29.5213 8.17868C29.5213 6.93532 29.2868 6.04539 28.8178 5.50887C28.3487 4.97236 27.4873 4.70362 26.2333 4.70268H24.925L24.9279 11.7115Z" fill="black"/>
<path d="M39.7129 24.1805V2.6333H48.9491V5.40246H43.7321V11.588H47.8575V14.3557H43.7321V21.461H49.016V24.1763L39.7129 24.1805Z" fill="black"/>
<path d="M53.2744 23.9764L57.6745 2.83936H61.7867L66.1737 23.9764H62.5048L61.6327 19.0683H57.8838L56.9957 23.9764H53.2744ZM58.301 16.556H61.1966L59.743 7.87524L58.301 16.556Z" fill="black"/>
<path d="M70.9973 23.9761V5.68344H67.3633V2.84473H78.4514V5.68344H74.9395V23.9761H70.9973Z" fill="black"/>
<path d="M89.1894 24.4416C86.9169 24.4416 85.2883 23.8398 84.3038 22.6362C83.3192 21.4326 82.8269 19.6688 82.8269 17.3448V9.39647C82.8098 8.39324 82.9215 7.39187 83.1598 6.41582C83.3573 5.62326 83.7222 4.87973 84.2311 4.23286C84.7457 3.60123 85.4302 3.12203 86.208 2.84899C87.0326 2.54147 88.0265 2.3877 89.1894 2.3877C91.4512 2.3877 93.0767 2.98099 94.0662 4.16757C95.0557 5.35415 95.5503 7.09711 95.5503 9.39647V17.3448C95.565 18.3445 95.4514 19.3422 95.2117 20.3141C95.0096 21.1186 94.6427 21.8747 94.1331 22.5368C93.6204 23.178 92.9369 23.6689 92.1576 23.9562C91.332 24.2798 90.3425 24.4416 89.1894 24.4416ZM88.1835 21.3616C88.5041 21.4818 88.846 21.5393 89.1894 21.5305C89.5299 21.5396 89.8689 21.4823 90.1865 21.3616C90.4381 21.2657 90.6639 21.1146 90.8465 20.9202C91.0247 20.7128 91.1559 20.471 91.2317 20.2105C91.3234 19.9225 91.3858 19.6263 91.4177 19.3263C91.4518 18.9762 91.4673 18.6247 91.4642 18.2731V8.48241C91.4701 8.04771 91.4433 7.61318 91.3843 7.18228C91.3334 6.84139 91.2279 6.51042 91.0718 6.2015C90.9242 5.90219 90.6787 5.65945 90.374 5.5117C90.0021 5.34854 89.5968 5.27085 89.1894 5.2846C88.7796 5.27121 88.372 5.34887 87.9974 5.5117C87.6905 5.6569 87.4437 5.90033 87.2982 6.2015C87.1476 6.512 87.0448 6.84248 86.993 7.18228C86.9339 7.61318 86.9072 8.04771 86.913 8.48241V18.2674C86.9099 18.619 86.9255 18.9706 86.9595 19.3206C86.9915 19.6206 87.0539 19.9169 87.1456 20.2048C87.2215 20.4642 87.3505 20.7056 87.525 20.9145C87.7051 21.1121 87.9308 21.2648 88.1835 21.3602V21.3616Z" fill="black"/>
<path d="M101.238 25.0278V1.78591H106.695C107.78 1.76944 108.863 1.87084 109.925 2.08823C110.77 2.26467 111.569 2.60809 112.273 3.09739C112.949 3.58372 113.468 4.25057 113.765 5.01778C114.091 5.82491 114.254 6.81136 114.254 7.97713C114.254 9.43433 114.031 10.6256 113.587 11.5511C113.143 12.4746 112.354 13.1969 111.382 13.5694L114.69 25.0278H110.341L107.498 14.4167H105.574V25.0278H101.238ZM105.574 11.7115H106.622C107.905 11.7115 108.816 11.4451 109.357 10.9124C109.897 10.3796 110.168 9.46839 110.168 8.17868C110.168 6.93532 109.933 6.04539 109.464 5.50887C108.995 4.97236 108.134 4.70362 106.88 4.70268H105.571L105.574 11.7115Z" fill="black"/>
<path d="M127.772 26.7551C123.071 26.7551 120.6 24.1028 120.358 18.7982L124.593 17.9339C124.7 21.3829 125.71 23.1074 127.621 23.1074C128.36 23.1074 128.91 22.887 129.27 22.446C129.631 22.005 129.811 21.4131 129.81 20.6704C129.818 19.9879 129.681 19.3113 129.407 18.6833C129.18 18.1446 128.865 17.6457 128.474 17.2057C127.995 16.7071 127.49 16.2333 126.961 15.7864L123.45 12.8029C122.42 11.9229 121.653 11.0084 121.148 10.0593C120.643 9.11019 120.39 7.92314 120.39 6.49811C120.39 4.476 120.999 2.90383 122.218 1.78159C123.436 0.659355 125.108 0.0878262 127.234 0.0670089C128.112 0.0428348 128.988 0.162781 129.826 0.421847C130.507 0.630319 131.139 0.967948 131.686 1.4154C132.192 1.85062 132.607 2.37623 132.91 2.96392C133.232 3.57444 133.477 4.22131 133.637 4.88998C133.808 5.62183 133.92 6.3654 133.974 7.11411L129.82 7.91604C129.8 7.39183 129.765 6.93574 129.715 6.54779C129.665 6.1492 129.582 5.75523 129.467 5.36972C129.373 5.02326 129.217 4.69558 129.007 4.40172C128.809 4.1472 128.548 3.9448 128.25 3.81269C127.904 3.66069 127.524 3.60094 127.147 3.63953C126.429 3.68211 125.879 3.91535 125.497 4.33927C125.115 4.76319 124.925 5.33093 124.926 6.0425C124.926 6.88087 125.095 7.57019 125.433 8.1105C125.871 8.76214 126.406 9.34705 127.019 9.84637L130.503 12.8029C131.037 13.2721 131.542 13.7712 132.016 14.2975C132.472 14.8138 132.883 15.3654 133.248 15.9468C133.647 16.5818 133.948 17.271 134.142 17.992C134.349 18.7615 134.452 19.554 134.448 20.3496C134.448 22.2477 133.833 23.7887 132.604 24.9724C131.374 26.1562 129.763 26.7505 127.772 26.7551Z" fill="black"/>
<path d="M136.69 2.94826V0.770968H135.895V0.328125H138.027V0.770968H137.232V2.94826H136.69Z" fill="black"/>
<path d="M138.369 2.94826V0.328125H139.18L139.667 2.1151L140.148 0.328125H140.962V2.94826H140.458V0.880257L139.926 2.94258H139.401L138.874 0.880257V2.94258L138.369 2.94826Z" fill="black"/>
</g>
<defs>
<clipPath id="clip0_167_1998">
<rect width="141" height="44" fill="white" transform="translate(0 0.0288086)"/>
</clipPath>
</defs>
</svg>
