<svg width="44" height="30" viewBox="0 0 44 30" fill="none" xmlns="http://www.w3.org/2000/svg">
<g clip-path="url(#clip0_167_852)">
<path d="M0 0H44V29.3333H0V0Z" fill="white"/>
<path d="M6.74609 8.90405L10.8139 2.80236L11.8309 3.48033L7.76304 9.58202L6.74609 8.90405ZM8.27151 9.92101L12.3393 3.81931L13.3563 4.49728L9.28846 10.599L8.27151 9.92101ZM9.79693 10.938L13.8647 4.83627L14.8817 5.51424L10.8139 11.6159L9.79693 10.938Z" fill="white"/>
<path d="M29.1191 23.8193L33.187 17.7176L34.2039 18.3956L30.1361 24.4973L29.1191 23.8193ZM30.6446 24.8363L34.7124 18.7346L35.7293 19.4126L31.6615 25.5143L30.6446 24.8363ZM32.17 25.8532L36.2378 19.7516L37.2547 20.4295L33.1869 26.5312L32.17 25.8532Z" fill="white"/>
<path d="M30.6445 20.4294L35.7293 23.8193L30.6445 20.4294Z" fill="white"/>
<path d="M30.6445 20.4294L35.7293 23.8193" stroke="white" stroke-width="12.5"/>
<path d="M15.8984 10.5989C16.9773 8.98061 18.6548 7.8572 20.562 7.47577C22.4691 7.09435 24.4497 7.48616 26.068 8.56501C27.6862 9.64386 28.8096 11.3214 29.1911 13.2285C29.5725 15.1357 29.1807 17.1162 28.1018 18.7345L15.8984 10.5989Z" fill="#CD2E3A"/>
<path d="M15.8989 10.5988C14.82 12.217 14.4282 14.1976 14.8096 16.1047C15.1911 18.0119 16.3145 19.6894 17.9327 20.7683C19.551 21.8471 21.5316 22.2389 23.4387 21.8575C25.3459 21.4761 27.0234 20.3527 28.1023 18.7344C28.6417 17.9253 28.8376 16.935 28.6469 15.9814C28.4562 15.0278 27.8944 14.1891 27.0853 13.6496C26.2762 13.1102 25.2859 12.9143 24.3323 13.105C23.3787 13.2957 22.54 13.8574 22.0006 14.6666L15.8989 10.5988Z" fill="#0047A0"/>
<path d="M21.9999 14.6666C23.1231 12.9817 22.6679 10.7052 20.9829 9.58188C19.298 8.45859 17.0215 8.91388 15.8982 10.5988C14.7749 12.2837 15.2302 14.5603 16.9151 15.6836C18.6 16.8069 20.8766 16.3516 21.9999 14.6666Z" fill="#CD2E3A"/>
<path d="M10.8135 26.5312L6.74566 20.4296L7.76261 19.7516L11.8304 25.8533L10.8135 26.5312ZM12.3389 25.5143L8.27108 19.4126L9.28802 18.7346L13.3558 24.8363L12.3389 25.5143ZM13.8643 24.4973L9.7965 18.3957L10.8134 17.7177L14.8813 23.8194L13.8643 24.4973Z" fill="white"/>
<path d="M33.1865 11.616L29.1187 5.51428L30.1357 4.83631L34.2035 10.938L33.1865 11.616ZM34.7119 10.599L30.6441 4.49732L31.6611 3.81935L35.7289 9.92104L34.7119 10.599ZM36.2374 9.58206L32.1695 3.48037L33.1865 2.8024L37.2543 8.90409L36.2374 9.58206Z" fill="white"/>
<path d="M10.0508 22.6328L11.5762 21.6159L10.0508 22.6328ZM30.644 8.90401L32.4237 7.71757L30.644 8.90401ZM33.9491 6.70062L35.4746 5.68367L33.9491 6.70062Z" fill="white"/>
<path d="M10.0508 22.6328L11.5762 21.6159M30.644 8.90401L32.4237 7.71757M33.9491 6.70062L35.4746 5.68367" stroke="white" stroke-width="12.5"/>
</g>
<defs>
<clipPath id="clip0_167_852">
<rect width="44" height="29.3333" rx="8" fill="white"/>
</clipPath>
</defs>
</svg>
