<svg width="166" height="46" viewBox="0 0 166 46" fill="none" xmlns="http://www.w3.org/2000/svg">
<g clip-path="url(#clip0_167_1958)">
<path fill-rule="evenodd" clip-rule="evenodd" d="M62.0693 16.963V13.8645H77.2912V16.963H71.7261V33.8894H67.6044V16.963H62.0693ZM87.3606 34.1245C86.2872 34.1643 85.217 33.9846 84.2184 33.5968C83.2197 33.2091 82.3145 32.6218 81.5604 31.8724C80.8011 31.0764 80.212 30.1398 79.8277 29.1176C79.4434 28.0953 79.2717 27.0081 79.3226 25.9199C79.2699 24.8346 79.4424 23.7501 79.8294 22.7319C80.2165 21.7136 80.8103 20.7828 81.5748 19.9956C82.3391 19.2536 83.2509 18.6733 84.2536 18.2908C85.2563 17.9082 86.3285 17.7315 87.4038 17.7717C88.4816 17.7322 89.5566 17.9035 90.566 18.2754C91.5755 18.6474 92.4992 19.2126 93.2833 19.938C94.0568 20.6912 94.6607 21.5947 95.0563 22.5903C95.4518 23.5859 95.6302 24.6517 95.5799 25.7189C95.5819 26.2376 95.5418 26.7557 95.4599 27.2681H83.5654C83.6223 28.2157 84.0428 29.1071 84.7425 29.7636C85.4551 30.4042 86.3965 30.7442 87.363 30.7099C88.0043 30.7431 88.6422 30.5994 89.2043 30.2952C89.7664 29.991 90.2301 29.5385 90.5427 28.989H95.0183C94.5557 30.489 93.5912 31.7928 92.2802 32.6905C90.8397 33.6729 89.115 34.1756 87.3606 34.1245ZM90.0844 22.135C89.3483 21.5038 88.3973 21.1662 87.4194 21.1887C86.458 21.1595 85.523 21.499 84.8133 22.135C84.0982 22.8007 83.6536 23.6977 83.5618 24.6598H91.2759C91.2665 24.181 91.1557 23.7093 90.9503 23.2746C90.745 22.84 90.4509 22.4519 90.0844 22.135ZM102.995 18.0033V20.8067C103.4 19.8987 104.067 19.1268 104.915 18.5864C105.763 18.0459 106.753 17.7607 107.765 17.7658V21.8999H106.734C106.23 21.8628 105.724 21.9236 105.244 22.0787C104.764 22.2338 104.32 22.4802 103.937 22.8038C103.216 23.679 102.878 24.7978 102.995 25.9164V33.8894H98.8436V17.995L102.995 18.0033ZM114.861 18.0033V20.3718C115.372 19.517 116.117 18.8195 117.012 18.3581C117.907 17.8968 118.916 17.69 119.924 17.7611C121.085 17.7419 122.229 18.0294 123.236 18.5933C124.211 19.1513 124.995 19.9801 125.488 20.9748C126.039 19.9996 126.848 19.1875 127.829 18.6239C128.842 18.0444 129.998 17.7469 131.171 17.7635C132.037 17.7266 132.901 17.8656 133.709 18.1716C134.517 18.4777 135.252 18.9442 135.867 19.5419C136.488 20.2162 136.965 21.005 137.271 21.8622C137.577 22.7194 137.705 23.6277 137.648 24.534V33.8894H133.52V25.11C133.593 24.07 133.244 23.0441 132.548 22.2549C132.202 21.9181 131.787 21.6562 131.331 21.4857C130.874 21.3153 130.387 21.2401 129.899 21.2651C129.409 21.2409 128.92 21.3164 128.461 21.4867C128.002 21.6571 127.585 21.9186 127.234 22.2549C126.886 22.6435 126.619 23.0959 126.45 23.5859C126.281 24.0759 126.212 24.5939 126.248 25.11V33.8894H122.126V25.11C122.199 24.07 121.849 23.0441 121.154 22.2549C120.808 21.9181 120.393 21.6562 119.936 21.4857C119.48 21.3153 118.993 21.2401 118.505 21.2651C118.015 21.2409 117.525 21.3164 117.067 21.4867C116.608 21.6571 116.19 21.9186 115.84 22.2549C115.491 22.6435 115.225 23.0959 115.056 23.5859C114.886 24.0759 114.818 24.5939 114.854 25.11V33.8894H110.702V17.995L114.861 18.0033ZM141.92 33.8894V12.6597H146.071V33.8894H141.92ZM154.878 33.6026L148.489 17.9962H153.141L157.293 29.2993L161.679 17.9962H166.007L155.82 41.4064H151.492L154.878 33.6026Z" fill="#1F1E33"/>
<path fill-rule="evenodd" clip-rule="evenodd" d="M24.0446 -0.000333977C30.3463 -0.0730953 36.4194 2.30904 40.9285 6.62221C45.4376 10.9354 48.0133 16.8264 48.0892 22.9997C48.0133 29.173 45.4376 35.064 40.9285 39.3771C36.4194 43.6903 30.3463 46.0724 24.0446 45.9997C17.7429 46.0724 11.6698 43.6903 7.1607 39.3771C2.65164 35.064 0.0759246 29.173 0 22.9997C0.0759246 16.8264 2.65164 10.9354 7.1607 6.62221C11.6698 2.30904 17.7429 -0.0730953 24.0446 -0.000333977ZM34.6432 12.4324H20.2445V37.2966L34.1633 18.6482H29.9973L34.6432 12.4324Z" fill="#4672FF"/>
</g>
<defs>
<clipPath id="clip0_167_1958">
<rect width="166" height="46" fill="white"/>
</clipPath>
</defs>
</svg>
