<svg width="185" height="38" viewBox="0 0 185 38" fill="none" xmlns="http://www.w3.org/2000/svg">
<path d="M182.273 16.5813C182.273 7.0336 175.006 0.318359 164.819 0.318359C151.85 0.318359 143.158 8.94315 143.158 21.2597C143.158 30.8711 150.494 37.5227 160.855 37.5227C170.277 37.5227 177.301 33.3535 180.186 26.7019H169.721C168.33 28.7706 165.375 30.0755 161.759 30.0755C156.196 30.0755 152.719 26.7019 152.406 21.9281H181.682C182.064 20.114 182.273 18.5545 182.273 16.5813ZM153.206 15.4674C154.145 11.0755 158.804 7.57464 164.436 7.57464C169.304 7.57464 172.989 10.8209 172.989 15.4674H153.206ZM115.03 36.6634L116.907 27.4976C122.644 28.5478 123.513 25.588 125.008 18.4591L125.739 14.9264C127.825 4.96492 132.032 0.000101447 144.062 1.33678L142.184 10.5026C136.447 9.45236 135.439 13.4306 134.153 19.6048L133.422 23.1375C131.336 33.2262 126.99 38.0001 115.03 36.6634ZM100.983 36.6952L108.076 1.17766H117.429L110.371 36.6952H100.983ZM47.4043 1.17766H56.479L59.4343 26.8611L71.3253 1.17766H80.3304L83.4944 27.1157L94.9681 1.17766H104.008L87.5623 36.6952H77.2707L73.9329 12.253L62.5635 36.6952H52.6196L47.4043 1.17766Z" fill="#2E4369"/>
<path d="M13.5049 10.5982L2.72656 20.0186H21.0497L22.962 15.9131H13.6787L19.4851 10.5982L16.1126 5.28326H31.8629L17.3295 36.6953H22.7882L39.2338 1.17773H7.45512L13.5049 10.5982Z" fill="#00B9FF"/>
</svg>
