<svg width="142" height="80" viewBox="0 0 142 80" fill="none" xmlns="http://www.w3.org/2000/svg">
<path d="M50.5992 47.4359V43.718H45.3805L50.5992 34.2741V30.8384H40.2764V34.5562H45.904L40.2764 44.6475V47.4359H50.5992ZM58.1245 47.8508C59.3678 47.8508 60.5948 47.4691 61.6091 46.7222C62.6561 46.0085 63.5068 44.9297 64.1121 43.5355H60.3494C59.8423 44.1828 59.237 44.6973 58.1245 44.6973C56.6849 44.6973 55.4743 43.8176 55.2453 42.3405H64.4393C64.5047 42.0085 64.5374 41.6931 64.5211 41.3612C64.5211 37.577 61.7727 34.5728 58.0427 34.5728C54.3128 34.5728 51.6135 37.7761 51.6135 41.2616C51.6135 44.8965 54.5254 47.8342 58.1245 47.8508ZM60.8566 39.8342H55.2943C55.4416 39.0873 56.1777 37.7097 58.0754 37.7097C59.9731 37.7097 60.7093 39.1039 60.8566 39.8342ZM70.2305 47.4359V40.6641C70.2305 39.9006 70.2305 38.0583 72.3245 38.0583C74.1241 38.0583 74.2386 39.5521 74.2549 40.4649V47.4359H77.9195V39.6683C77.9195 37.2284 77.1669 36.2326 76.5125 35.6517C75.8582 35.0707 74.5494 34.5728 73.3715 34.5728C71.1794 34.5728 70.4105 35.718 70.0342 36.3156H69.9851V34.9878H66.566V47.4359H70.2305ZM86.0992 47.8342C88.5695 47.8342 89.4529 46.606 89.7637 46.0915H89.8128V47.4359H93.2973V30.8384H89.6328V36.0334C89.2402 35.6351 88.1932 34.5562 86.0337 34.5562C82.9254 34.5562 79.9644 36.9629 79.9644 41.1786C79.948 44.9297 82.3856 47.8508 86.0992 47.8342ZM86.6881 44.3653C84.9704 44.3653 83.6125 43.0873 83.6125 41.162C83.6125 39.7346 84.6105 38.0417 86.7208 38.0417C88.7494 38.0417 89.8128 39.6517 89.8128 41.162C89.8291 42.4566 88.9948 44.3653 86.6881 44.3653ZM99.5957 47.4359V40.5977C99.5957 38.7056 100.79 38.3571 102.491 38.3073V34.5728C100.365 34.5728 99.7266 35.718 99.4158 36.3156H99.3667V34.9878H95.9148V47.4359H99.5957ZM110.017 47.8176C114.483 47.8176 116.626 44.2492 116.626 41.1952C116.626 38.1413 114.483 34.5728 110.017 34.5728C105.551 34.5728 103.407 38.1413 103.407 41.1952C103.407 44.2492 105.551 47.8176 110.017 47.8176ZM110.017 44.3322C108.43 44.3322 107.072 43.0044 107.072 41.1952C107.072 39.3861 108.413 38.0583 110.017 38.0583C111.62 38.0583 112.961 39.3861 112.961 41.1952C112.961 43.0044 111.604 44.3488 110.017 44.3322ZM122.368 51.5853V46.3073C122.81 46.772 123.84 47.8508 126.065 47.8508C129.55 47.8508 132.036 44.9131 132.036 41.328C132.036 38.44 130.401 34.5562 126.049 34.5562C124.168 34.5562 122.957 35.4027 122.221 36.3488H122.155V34.9878H118.704V51.5853H122.368ZM125.28 44.3985C123.35 44.3985 122.204 42.8052 122.204 41.245C122.204 39.7678 123.268 38.0583 125.28 38.0583C127.292 38.0583 128.356 39.7678 128.356 41.245C128.356 42.8052 127.194 44.3985 125.28 44.3985Z" fill="#212240"/>
<path d="M25.1768 28.4317C27.0745 28.4483 28.5141 29.4774 29.054 31.2699C29.4794 32.6807 29.2012 34.0085 28.2688 35.1703C25.1114 39.0541 21.9704 42.9546 18.813 46.8384C18.2404 47.5521 17.6515 48.2658 17.0625 48.9629C15.6065 50.6724 13.1199 50.938 11.5003 49.577C9.76622 48.1828 9.47175 45.6434 10.8459 43.884C10.8623 43.8508 10.895 43.8176 10.9277 43.7844C12.6946 41.5604 14.4941 39.3695 16.2773 37.162C16.3754 37.0127 16.4409 36.8467 16.5063 36.6807C16.3264 36.5977 16.1464 36.5479 15.9501 36.5147C15.3121 36.4815 14.6741 36.4649 14.0197 36.4815C11.8766 36.5479 10.077 34.855 9.99525 32.6641C9.99525 32.6143 9.99525 32.5479 9.99525 32.4981C9.96253 30.2077 11.6803 28.4483 14.0033 28.4151C15.8847 28.3819 17.766 28.4151 19.6473 28.4151C21.4959 28.4151 23.3282 28.3985 25.1768 28.4317Z" fill="url(#paint0_linear_167_1950)"/>
<path opacity="0.5" d="M23.0169 47.0543C23.0496 46.4402 23.2623 45.8593 23.6386 45.378C24.7346 44.0004 25.4054 43.1373 26.5505 41.8759C26.9759 41.4112 27.3031 41.627 27.4503 41.9921C28.121 43.6518 28.4973 44.6477 29.0699 46.3572C29.7406 48.2991 28.2519 50.407 26.2233 50.4402C26.027 50.4402 25.8307 50.4402 25.6344 50.4236C24.0475 50.1747 22.886 48.6975 23.0169 47.0543Z" fill="#8472ED"/>
<defs>
<linearGradient id="paint0_linear_167_1950" x1="20.8754" y1="41.3505" x2="8.9591" y2="27.4668" gradientUnits="userSpaceOnUse">
<stop stop-color="#8472ED"/>
<stop offset="1" stop-color="#B786F6"/>
</linearGradient>
</defs>
</svg>
