<svg width="64" height="64" viewBox="0 0 64 64" fill="none" xmlns="http://www.w3.org/2000/svg">
<circle cx="32" cy="32" r="32" fill="#72FF66" fill-opacity="0.15"/>
<path d="M37.1354 31.2791C37.7391 31.5292 38.3259 31.7686 38.9052 32.0237C39.2177 32.1613 39.5233 32.3213 39.8245 32.4864C40.4869 32.8484 40.72 33.5493 40.3988 34.1839C40.0776 34.8185 39.3545 35.0523 38.6908 34.7053C37.4947 34.0801 36.2536 33.5837 34.9319 33.303C32.1666 32.7159 29.4669 32.9397 26.8484 34.0076C24.0493 35.1486 21.8614 37.0255 20.2635 39.5846C19.4322 40.9234 18.8474 42.4004 18.5368 43.9455C18.3843 44.6889 18.8549 45.3504 19.6073 45.4692C19.7938 45.4931 19.9818 45.5025 20.1698 45.4973C23.2632 45.4973 26.3566 45.4973 29.45 45.4973C30.168 45.4973 30.6648 45.8793 30.7936 46.5139C30.8252 46.6832 30.8216 46.8572 30.7829 47.025C30.7443 47.1928 30.6714 47.3508 30.5688 47.489C30.4663 47.6273 30.3363 47.7429 30.187 47.8286C30.0377 47.9143 29.8723 47.9682 29.7012 47.987C29.6077 47.9953 29.5138 47.9987 29.42 47.997C26.2437 47.997 23.0669 47.997 19.8898 47.997C18.2343 47.997 16.8901 47.101 16.2858 45.6261C15.9899 44.9186 15.9217 44.1365 16.0908 43.3884C16.6439 40.8913 17.6931 38.6249 19.2936 36.6241C21.1765 34.238 23.6967 32.4346 26.5622 31.4229C26.659 31.3885 26.754 31.3485 26.8865 31.2979C24.4068 29.2452 23.2232 26.6549 23.5794 23.4538C23.8293 21.2111 24.873 19.3548 26.6122 17.9268C30.1293 15.042 35.2812 15.4634 38.2765 18.7427C41.2718 22.022 41.503 27.8241 37.1354 31.2791ZM38.0034 24.4879C37.9703 21.1355 35.2781 18.4601 31.9666 18.4889C31.176 18.4952 30.3945 18.6576 29.6668 18.9666C28.939 19.2756 28.2793 19.7252 27.7255 20.2897C27.1717 20.8541 26.7347 21.5223 26.4394 22.2561C26.1441 22.9898 25.9964 23.7745 26.0047 24.5654C26.0404 27.9004 28.7782 30.5238 32.1822 30.4857C35.3437 30.4501 38.0322 27.6784 38.0034 24.4879Z" fill="#227F19"/>
<path d="M44.4129 37.9317C43.9224 37.4372 43.4755 36.9939 43.0381 36.5412C42.6006 36.0886 42.5038 35.4977 42.7969 34.9976C43.2343 34.2473 44.1686 34.1491 44.821 34.7875C45.5655 35.5161 46.3042 36.2503 47.037 36.9901C47.2294 37.1803 47.3974 37.3936 47.537 37.6254C48.2988 38.9383 48.1081 40.4032 47.037 41.4911C46.3058 42.2327 45.5653 42.9648 44.8229 43.6957C44.2748 44.2353 43.5105 44.2584 43.0056 43.7645C42.4863 43.2574 42.5025 42.4909 43.0556 41.9263C43.528 41.4436 44.0111 40.971 44.5217 40.462C44.4537 40.4497 44.385 40.4414 44.3161 40.437H37.6293C36.7706 40.437 36.037 40.7165 35.4977 41.4105C34.9133 42.1608 34.7915 42.9998 35.1277 43.8826C35.4558 44.7448 36.0982 45.2637 37.0025 45.4457C37.1772 45.4739 37.3533 45.4933 37.5299 45.5038C38.2249 45.5707 38.7173 46.1253 38.6873 46.8168C38.6611 47.477 38.1186 47.9878 37.4318 47.9991C35.0733 48.0385 32.9354 46.2453 32.518 43.8776C32.2825 42.5752 32.5686 41.2323 33.3145 40.1392C34.0604 39.0461 35.2062 38.2904 36.5044 38.0355C36.862 37.9678 37.2253 37.9345 37.5893 37.9361C39.7766 37.9274 41.9638 37.9317 44.1511 37.9317H44.4129Z" fill="#227F19"/>
</svg>
