<svg width="65" height="64" viewBox="0 0 65 64" fill="none" xmlns="http://www.w3.org/2000/svg">
<circle cx="32.5" cy="32" r="32" fill="#B499FF" fill-opacity="0.15"/>
<path d="M37.6354 31.2791C38.2391 31.5292 38.8259 31.7686 39.4052 32.0237C39.7177 32.1613 40.0233 32.3213 40.3245 32.4864C40.9869 32.8484 41.22 33.5493 40.8988 34.1839C40.5776 34.8185 39.8545 35.0523 39.1908 34.7053C37.9947 34.0801 36.7536 33.5837 35.4319 33.303C32.6666 32.7159 29.9669 32.9397 27.3484 34.0076C24.5493 35.1486 22.3614 37.0255 20.7635 39.5846C19.9322 40.9234 19.3474 42.4004 19.0368 43.9455C18.8843 44.6889 19.3549 45.3504 20.1073 45.4692C20.2938 45.4931 20.4818 45.5025 20.6698 45.4973C23.7632 45.4973 26.8566 45.4973 29.95 45.4973C30.668 45.4973 31.1648 45.8793 31.2936 46.5139C31.3252 46.6832 31.3216 46.8572 31.2829 47.025C31.2443 47.1928 31.1714 47.3508 31.0688 47.489C30.9663 47.6273 30.8363 47.7429 30.687 47.8286C30.5377 47.9143 30.3723 47.9682 30.2012 47.987C30.1077 47.9953 30.0138 47.9987 29.92 47.997C26.7437 47.997 23.5669 47.997 20.3898 47.997C18.7343 47.997 17.3901 47.101 16.7858 45.6261C16.4899 44.9186 16.4217 44.1365 16.5908 43.3884C17.1439 40.8913 18.1931 38.6249 19.7936 36.6241C21.6765 34.238 24.1967 32.4346 27.0622 31.4229C27.159 31.3885 27.254 31.3485 27.3865 31.2979C24.9068 29.2452 23.7232 26.6549 24.0794 23.4538C24.3293 21.2111 25.373 19.3548 27.1122 17.9268C30.6293 15.042 35.7812 15.4634 38.7765 18.7427C41.7718 22.022 42.003 27.8241 37.6354 31.2791ZM38.5034 24.4879C38.4703 21.1355 35.7781 18.4601 32.4666 18.4889C31.676 18.4952 30.8945 18.6576 30.1668 18.9666C29.439 19.2756 28.7793 19.7252 28.2255 20.2897C27.6717 20.8541 27.2347 21.5223 26.9394 22.2561C26.6441 22.9898 26.4964 23.7745 26.5047 24.5654C26.5404 27.9004 29.2782 30.5238 32.6822 30.4857C35.8437 30.4501 38.5322 27.6784 38.5034 24.4879Z" fill="#7F00FF"/>
<path d="M44.9129 37.9317C44.4224 37.4372 43.9755 36.9939 43.5381 36.5412C43.1006 36.0886 43.0038 35.4977 43.2969 34.9976C43.7343 34.2473 44.6686 34.1491 45.321 34.7875C46.0655 35.5161 46.8042 36.2503 47.537 36.9901C47.7294 37.1803 47.8974 37.3936 48.037 37.6254C48.7988 38.9383 48.6081 40.4032 47.537 41.4911C46.8058 42.2327 46.0653 42.9648 45.3229 43.6957C44.7748 44.2353 44.0105 44.2584 43.5056 43.7645C42.9863 43.2574 43.0025 42.4909 43.5556 41.9263C44.028 41.4436 44.5111 40.971 45.0217 40.462C44.9537 40.4497 44.885 40.4414 44.8161 40.437H38.1293C37.2706 40.437 36.537 40.7165 35.9977 41.4105C35.4133 42.1608 35.2915 42.9998 35.6277 43.8826C35.9558 44.7448 36.5982 45.2637 37.5025 45.4457C37.6772 45.4739 37.8533 45.4933 38.0299 45.5038C38.7249 45.5707 39.2173 46.1253 39.1873 46.8168C39.1611 47.477 38.6186 47.9878 37.9318 47.9991C35.5733 48.0385 33.4354 46.2453 33.018 43.8776C32.7825 42.5752 33.0686 41.2323 33.8145 40.1392C34.5604 39.0461 35.7062 38.2904 37.0044 38.0355C37.362 37.9678 37.7253 37.9345 38.0893 37.9361C40.2766 37.9274 42.4638 37.9317 44.6511 37.9317H44.9129Z" fill="#7F00FF"/>
</svg>
