<svg width="40" height="25" viewBox="0 0 40 25" fill="none" xmlns="http://www.w3.org/2000/svg">
<g clip-path="url(#clip0_232_4339)">
<path d="M37.448 23.2542H2.55211C1.58274 23.2542 0.796875 22.4987 0.796875 21.5665V2.72511C0.796875 1.79304 1.58266 1.03748 2.55211 1.03748H37.448C38.4174 1.03748 39.2034 1.79296 39.2034 2.72511V21.5666C39.2034 22.4986 38.4175 23.2542 37.448 23.2542Z" fill="#172155"/>
<path d="M6.41406 19.2153C6.41406 16.151 9.17321 13.6671 12.5767 13.6671C15.9803 13.6671 18.7394 16.1511 18.7394 19.2153H6.41406Z" fill="#172155"/>
<path d="M12.5107 11.3905C14.359 11.3905 15.8574 9.94989 15.8574 8.17285C15.8574 6.39581 14.359 4.95523 12.5107 4.95523C10.6624 4.95523 9.16406 6.39581 9.16406 8.17285C9.16406 9.94989 10.6624 11.3905 12.5107 11.3905Z" fill="#172155"/>
<path d="M37.448 0.167175H2.55204C1.14485 0.167175 0 1.26788 0 2.62082V21.4623C0 22.8153 1.14485 23.916 2.55204 23.916H37.448C38.8552 23.916 40 22.8153 40 21.4624V2.62082C40.0001 1.26788 38.8552 0.167175 37.448 0.167175ZM38.4065 21.4624C38.4065 21.9705 37.9765 22.3839 37.448 22.3839H2.55204C2.0236 22.3839 1.5936 21.9705 1.5936 21.4624V2.62082C1.5936 2.11275 2.02352 1.69933 2.55204 1.69933H37.448C37.9765 1.69933 38.4064 2.11268 38.4064 2.62082L38.4065 21.4624Z" fill="#172155"/>
<path d="M24.2968 8.15145H34.7674C35.2074 8.15145 35.5642 7.80848 35.5642 7.38537C35.5642 6.96226 35.2074 6.61929 34.7674 6.61929H24.2968C23.8568 6.61929 23.5 6.96226 23.5 7.38537C23.5 7.80848 23.8567 8.15145 24.2968 8.15145Z" fill="white"/>
<path d="M24.2968 13.0705H34.7674C35.2074 13.0705 35.5642 12.7275 35.5642 12.3044C35.5642 11.8813 35.2074 11.5384 34.7674 11.5384H24.2968C23.8568 11.5384 23.5 11.8813 23.5 12.3044C23.5 12.7275 23.8567 13.0705 24.2968 13.0705Z" fill="white"/>
<path d="M34.811 16.4574H34.1835C33.7435 16.4574 33.3867 16.8003 33.3867 17.2234C33.3867 17.6466 33.7435 17.9895 34.1835 17.9895H34.811C35.251 17.9895 35.6078 17.6466 35.6078 17.2234C35.6078 16.8003 35.251 16.4574 34.811 16.4574Z" fill="white"/>
<path d="M31.155 16.4574H24.2968C23.8568 16.4574 23.5 16.8003 23.5 17.2234C23.5 17.6466 23.8568 17.9895 24.2968 17.9895H31.155C31.595 17.9895 31.9518 17.6466 31.9518 17.2234C31.9518 16.8003 31.595 16.4574 31.155 16.4574Z" fill="white"/>
<path d="M12.5767 12.901C8.73923 12.901 5.61719 15.7337 5.61719 19.2153C5.61719 19.6384 5.97391 19.9814 6.41399 19.9814H18.7393C19.1794 19.9814 19.5361 19.6384 19.5361 19.2153C19.5363 15.7336 16.4142 12.901 12.5767 12.901ZM11.7205 14.4952V18.4491H7.27969C7.64719 16.4239 9.44751 14.8216 11.7205 14.4952ZM13.3142 18.4492V14.4781C15.6432 14.7647 17.4999 16.3886 17.8739 18.4492H13.3142Z" fill="white"/>
<path d="M12.5106 12.1565C14.7953 12.1565 16.6541 10.3694 16.6541 8.17284C16.6541 5.97624 14.7953 4.18915 12.5106 4.18915C10.2259 4.18915 8.36719 5.97624 8.36719 8.17284C8.36719 10.3694 10.2259 12.1565 12.5106 12.1565ZM12.5106 5.72138C13.9166 5.72138 15.0604 6.82111 15.0604 8.17284C15.0604 9.52458 13.9166 10.6243 12.5106 10.6243C11.1047 10.6243 9.96086 9.52458 9.96086 8.17284C9.96086 6.82111 11.1046 5.72138 12.5106 5.72138Z" fill="white"/>
</g>
<defs>
<clipPath id="clip0_232_4339">
<rect width="40" height="23.9573" fill="white" transform="translate(0 0.167175)"/>
</clipPath>
</defs>
</svg>
