<svg width="36" height="26" viewBox="0 0 36 26" fill="none" xmlns="http://www.w3.org/2000/svg">
<g clip-path="url(#clip0_232_4355)">
<path d="M7.20943 25.1338H28.7908C32.7465 25.1338 35.9841 22.2329 35.9841 18.6884V8.44856C34.8432 6.50554 32.4454 5.15161 29.6526 5.15161H6.34618C3.55338 5.15161 1.15699 6.50554 0.0161133 8.44856V18.6884C0.0161133 22.2329 3.25366 25.1338 7.20943 25.1338ZM22.9635 15.5734C22.3129 15.5734 21.4897 15.7269 20.6306 15.8816C19.614 16.1377 18.8116 15.5734 18.9469 14.6662L19.0961 10.6045C19.0961 9.71215 19.7674 9.40399 20.6278 9.40399H26.1775C27.7825 9.40399 27.7466 11.5636 26.1775 11.5636H21.487L21.3737 13.6366C24.3751 12.9175 28.0145 14.066 28.0145 17.2206C28.0145 19.931 25.661 21.2676 22.7908 21.2676C21.1638 21.2676 19.7674 20.702 18.9442 19.4656C18.2149 18.285 20.1113 17.1352 20.9524 18.285C21.487 18.8852 22.1776 19.1612 22.7894 19.1612C24.1651 19.1612 25.4869 18.7132 25.4869 17.2219C25.4897 16.0016 24.1693 15.5734 22.9635 15.5734ZM8.39727 19.3963C10.1169 17.7516 11.7425 16.6885 13.5989 15.1811C15.3627 13.9472 15.3406 11.4782 12.7591 11.4782C11.9373 11.4782 11.0727 11.9225 10.5768 12.6267C9.81024 13.7071 7.80059 12.9856 8.56854 11.4435C9.42903 9.93615 11.0961 9.33468 12.7577 9.33468C17.2908 9.33468 19.0878 13.5165 15.4552 16.6885C14.0588 17.7503 13.1017 18.3667 11.7425 19.0869C12.5851 19.0869 13.5989 18.9842 14.4414 18.9842H16.661C18.1306 18.9842 18.3254 21.1946 16.661 21.1946H9.23566C8.05197 21.1958 7.57407 20.1686 8.39727 19.3963Z" fill="#172155"/>
<path d="M6.34593 4.07756H29.6529C32.1707 4.07756 34.4289 4.8823 35.9841 6.14965V5.75912C35.9841 2.67679 32.7467 0.156067 28.791 0.156067H7.20916C3.25353 0.154991 0.0161133 2.67679 0.0161133 5.75912V6.15073C1.57129 4.8823 3.82809 4.07756 6.34593 4.07756ZM24.5136 0.599319C25.1268 0.599319 25.6241 1.18351 25.6241 1.90648C25.6241 2.62946 25.1268 3.21472 24.5136 3.21472C23.899 3.21472 23.399 2.62946 23.399 1.90648C23.399 1.18351 23.899 0.599319 24.5136 0.599319ZM20.0649 0.599319C20.6768 0.599319 21.1754 1.18351 21.1754 1.90648C21.1754 2.62946 20.6782 3.21472 20.0649 3.21472C19.4489 3.21472 18.9503 2.62946 18.9503 1.90648C18.9503 1.18351 19.4489 0.599319 20.0649 0.599319ZM15.6121 0.599319C16.2281 0.599319 16.7267 1.18351 16.7267 1.90648C16.7267 2.62946 16.2267 3.21472 15.6121 3.21472C14.9975 3.21472 14.5016 2.62946 14.5016 1.90648C14.5016 1.18351 14.9989 0.599319 15.6121 0.599319ZM11.1634 0.599319C11.778 0.599319 12.2766 1.18351 12.2766 1.90648C12.2766 2.62946 11.7766 3.21472 11.1634 3.21472C10.5488 3.21472 10.0529 2.62946 10.0529 1.90648C10.0529 1.18351 10.5474 0.599319 11.1634 0.599319Z" fill="#172155"/>
</g>
<defs>
<clipPath id="clip0_232_4355">
<rect width="35.968" height="24.9778" fill="white" transform="translate(0.0161133 0.156067)"/>
</clipPath>
</defs>
</svg>
