<svg width="131" height="142" viewBox="0 0 131 142" fill="none" xmlns="http://www.w3.org/2000/svg">
<path fill-rule="evenodd" clip-rule="evenodd" d="M86.0493 53.6627L86.0954 59.1744L87.7246 58.1574L87.7796 53.7396C87.7796 53.7396 85.9795 53.2324 86.0493 53.6627Z" fill="#172155"/>
<path fill-rule="evenodd" clip-rule="evenodd" d="M86.6531 65.2273L87.2632 71.8527C87.2632 71.8527 88.0021 72.0722 88.3793 72.0599C88.7566 72.0476 88.8885 72.026 88.8885 72.026L88.4268 65.1094C87.8713 64.9288 87.2916 64.9034 86.6531 65.2273Z" fill="#172155"/>
<path fill-rule="evenodd" clip-rule="evenodd" d="M47.2291 13.9071L46.8982 13.7882C46.8982 13.7882 46.1373 13.2375 45.9906 11.3281C45.8448 9.43139 45.9814 6.19806 46.1086 5.43471C46.2367 4.68411 46.6416 5.10489 46.6416 5.10489L47.6642 5.33126L47.6361 5.33313C46.867 7.86644 46.7877 10.7506 47.2291 13.9071Z" fill="#172155"/>
<path fill-rule="evenodd" clip-rule="evenodd" d="M81.2254 63.1061L81.2144 62.2113C81.2144 62.2113 82.9661 61.148 83.4821 60.2564C83.9977 59.3777 85.3308 57.421 85.8668 57.347L85.9569 58.6972C85.9569 58.6972 85.4013 59.0923 85.1261 59.8655C84.8521 60.6386 83.4169 62.9476 81.2254 63.1061Z" fill="#172155"/>
<path fill-rule="evenodd" clip-rule="evenodd" d="M44.3018 66.5467C44.3018 66.5467 46.0964 66.5298 46.6059 66.9437C47.1155 67.3576 47.6769 68.2415 49.4 68.4212C51.1253 68.6135 51.4711 69.4349 52.0117 69.8723C52.5523 70.3098 55.4029 72.9992 55.4029 72.9992L55.8275 72.0625C55.8275 72.0625 52.3406 68.6351 51.6932 68.2687C51.0479 67.915 48.4069 67.387 47.4048 66.5452C46.4006 65.6908 44.6127 66.1166 44.3018 66.5467Z" fill="#172155"/>
<path fill-rule="evenodd" clip-rule="evenodd" d="M55.4558 72.9318L54.5012 74.454L54.8985 74.9136L63.0414 78.4281L63.1759 76.5255C60.7178 75.7037 58.1517 74.531 55.4558 72.9318Z" fill="#172155"/>
<path fill-rule="evenodd" clip-rule="evenodd" d="M42.3578 59.3577L37.9958 67.5932L37.7869 68.4772L38.1932 68.0536C38.1932 68.0536 39.1107 67.6855 39.6045 67.8446L43.4233 59.5172L42.3578 59.3577Z" fill="#172155"/>
<path fill-rule="evenodd" clip-rule="evenodd" d="M43.4503 69.2649L43.9081 66.7907L44.3556 66.5433L45.1812 66.4884L44.9178 69.1673C44.9178 69.1673 43.5298 69.1317 43.4503 69.2649Z" fill="#172155"/>
<path fill-rule="evenodd" clip-rule="evenodd" d="M20.2584 63.1816C20.2584 63.1816 24.3594 61.6932 25.4959 61.2082C26.6317 60.7104 31.292 59.4026 32.4698 57.7889C33.6469 56.1624 39.0402 53.1426 40.4286 52.4361L40.6898 51.0113L39.8008 51.3646C39.8008 51.3646 36.7998 52.6647 35.6483 53.6369C34.4968 54.6091 30.4315 57.208 30.4315 57.208L29.1903 58.3908C29.1903 58.3908 25.3174 60.1837 24.567 60.4256C23.8175 60.6801 20.3627 61.7287 20.3627 61.7287L19.3988 62.0745L19.432 62.5711L20.2584 63.1816Z" fill="#172155"/>
<path fill-rule="evenodd" clip-rule="evenodd" d="M4.31635 69.9737C4.31635 69.9737 8.16045 67.364 8.68238 67.0222C9.20346 66.6677 11.4914 65.9013 12.1542 65.9212C12.8156 65.9412 13.6804 65.8965 15.1572 65.3249C16.6333 64.7406 20.3697 63.2255 20.3697 63.2255L19.5202 62.5398L14.2134 64.7225C14.2134 64.7225 13.5804 64.9565 12.0836 64.8641C10.5863 64.7845 6.88901 67.4996 6.88901 67.4996L4.2815 69.4515C4.2815 69.4515 4.02711 69.9034 4.31635 69.9737Z" fill="#172155"/>
<path fill-rule="evenodd" clip-rule="evenodd" d="M34.4643 72.5621C34.4643 72.5621 34.0678 73.4969 34.1043 74.3133C34.14 75.117 34.2508 80.445 35.3414 81.5752L36.3754 82.1847C36.3754 82.1847 34.8869 76.5515 35.7752 73.1914L34.4643 72.5621Z" fill="#172155"/>
<path fill-rule="evenodd" clip-rule="evenodd" d="M38.3336 100.709C40.4735 111.416 42.5982 120.436 44.7093 127.87L49.8514 130.765C49.8514 130.765 47.2922 128.197 46.7265 125.868C45.4052 120.416 41.3967 98.1893 41.3967 98.1893C41.3967 98.1893 40.5289 99.6287 38.3336 100.709Z" fill="#172155"/>
<path fill-rule="evenodd" clip-rule="evenodd" d="M108.552 79.3037C108.417 79.4406 108.297 79.5892 108.203 79.749C107.605 80.8123 108.981 81.8468 109.431 82.6741C109.446 82.6986 109.383 82.8436 109.374 82.8825C109.32 83.078 109.272 83.2734 109.227 83.4811C109.067 84.1826 109.008 84.903 108.949 85.6234C108.885 86.3953 108.309 88.2119 108.223 88.9725C107.91 91.7698 107.145 94.9682 110.113 96.7541C110.551 97.0064 111.387 97.1811 111.937 97.1445C111.999 97.1404 111.855 97.0477 111.814 96.9992C111.721 96.8903 111.627 96.7685 111.539 96.6592C111.286 96.3178 109.251 94.9304 109.381 92.7979C109.461 91.4875 109.611 89.4433 109.791 88.1391C110.028 86.4472 110.674 84.4979 110.499 82.7694C110.427 82.045 109.861 81.8395 109.344 81.4389C108.813 81.0136 108.381 80.2619 108.497 79.5632" fill="#172155"/>
<path fill-rule="evenodd" clip-rule="evenodd" d="M93.2744 83.2623C93.2285 84.3401 93.861 84.9633 94.5789 85.696C94.8022 85.9114 95.4798 86.4037 95.5002 86.7478C95.5134 86.9644 95.3483 87.2953 95.2879 87.5041C95.1186 88.0783 94.9361 88.6662 94.7804 89.2523C94.0895 91.8444 92.8554 94.4597 92.726 97.168C92.6834 98.0664 92.6319 99.0039 92.7241 99.9062C92.7671 100.338 92.8109 100.783 93.1835 101.066C93.7139 101.465 94.3796 101.626 95.0168 101.763C95.2316 101.812 95.4468 101.849 95.6663 101.873C95.7348 101.881 95.8033 101.889 95.873 101.898C95.9113 101.895 96.0104 101.94 95.9875 101.903C95.9169 101.805 95.4732 101.707 95.3396 101.626C94.9215 101.372 94.2375 100.765 94.0721 100.303C93.5855 98.9662 93.9289 97.4848 94.1689 96.1254C94.4003 94.8305 94.6441 93.5091 94.967 92.2209C95.2729 91.0235 95.6319 89.8354 95.8421 88.606C95.9719 87.8425 96.2403 87.0057 96.214 86.227C96.1855 85.3972 95.7491 85.5414 95.1528 85.21C94.419 84.7982 93.744 83.8834 93.7139 83.0282" fill="#172155"/>
<path fill-rule="evenodd" clip-rule="evenodd" d="M55.1122 83.5102C54.9054 83.7159 54.726 83.9453 54.58 84.1981C53.8411 85.4371 54.9079 86.4792 55.4068 87.5592C55.6513 88.0931 55.7104 88.6906 55.5671 89.2503C55.208 90.6688 54.5121 91.9946 53.9195 93.3135C53.5298 94.1966 53.255 95.1104 52.881 95.9797C52.402 97.0991 51.9328 97.6934 51.994 98.956C52.0748 100.665 52.9242 101.773 54.6103 102.569C54.9425 102.726 55.3291 102.701 55.6932 102.74C55.7285 102.751 56.0118 102.809 56.0305 102.782C56.0599 102.741 55.9476 102.749 55.9063 102.726C55.8013 102.669 55.6962 102.612 55.595 102.555C55.3015 102.382 55.0178 102.184 54.7894 101.93C54.1318 101.219 53.9783 100.244 54.0073 99.2954C54.0554 97.808 54.5357 96.3431 55.0177 94.942C55.5111 93.5017 56.0038 92.049 56.4028 90.5766C56.6317 89.7426 56.9015 88.8674 56.9474 87.9815C56.9649 87.6477 56.9606 87.2769 56.7875 86.9686C56.2159 85.9702 54.5383 85.0708 55.2266 83.6688" fill="#172155"/>
<path fill-rule="evenodd" clip-rule="evenodd" d="M34.3518 79.0052C33.7257 80.2623 34.3577 81.0135 34.814 82.1858C35.1296 82.9965 35.2661 83.832 35.2019 84.6935C35.115 85.8508 34.7951 87.0107 34.5424 88.1406C34.1353 89.9718 33.7243 91.803 33.3771 93.6301C33.0367 95.444 32.8137 97.4805 33.561 99.2093C33.8447 99.8686 34.2615 100.468 34.8111 100.943C35.008 101.109 35.3665 101.239 35.5299 101.42C35.5877 101.48 35.3619 101.457 35.2764 101.462C35.1139 101.486 34.9493 101.497 34.7847 101.508C34.2891 101.553 33.7812 101.51 33.3061 101.363C31.8548 100.896 31.0241 99.5698 31.0791 98.0692C31.1059 97.3381 31.3548 96.6307 31.4688 95.9194C31.6335 94.8721 31.6931 93.8061 31.9224 92.7673C32.1985 91.5078 32.7064 90.2844 33.0885 89.0562C33.5437 87.5802 34.1495 86.0941 34.3303 84.5595C34.4354 83.6569 34.4584 82.8876 33.8391 82.1739C33.5018 81.7869 32.0195 80.9132 32.0697 80.3597C32.1165 79.832 33.4305 79.6805 33.7818 79.3757" fill="#172155"/>
<path fill-rule="evenodd" clip-rule="evenodd" d="M85.8744 46.8188C85.8744 46.8188 85.8355 44.5615 86.2427 44.3391C86.6499 44.1167 90.8852 43.8769 90.8852 43.8769L94.9554 43.7596C94.9554 43.7596 95.4187 45.0262 95.529 46.1767C95.6407 47.3272 95.5244 46.1073 95.5244 46.1073C95.5244 46.1073 102.042 47.2503 103.285 47.9488C104.527 48.6614 105.879 51.6265 105.879 51.6265C105.879 51.6265 102.629 51.2707 101.299 51.8055C99.9684 52.3265 98.3967 52.8356 97.8759 52.9261C97.355 53.0165 91.1774 53.5947 91.1774 53.5947L86.0601 53.5165L86.0436 57.1447C86.0436 57.1447 84.7107 57.9448 84.099 59.3107C83.4872 60.6767 82.3346 61.6046 82.3346 61.6046L81.1079 62.2161C81.1079 62.2161 81.4802 65.6371 82.0941 67.1726L83.5328 66.6168C83.5328 66.6168 85.1927 66.004 85.4738 65.6924C85.7563 65.3806 86.7237 65.1768 86.7237 65.1768L86.8201 66.6213L87.2846 71.8635C87.2846 71.8635 90.678 72.4332 93.0939 71.9237C95.5112 71.4142 100.566 70.492 100.566 70.492L105.411 69.4864L106.126 69.3549L106.96 74.2241C106.96 74.2241 101.208 76.5458 98.519 77.199L91.9082 78.7824C91.9082 78.7824 83.9496 79.8976 82.2944 79.9937C80.6391 80.0898 80.1058 80.1392 80.1058 80.1392L79.3006 71.6133C79.3006 71.6133 75.0461 76.0676 72.3562 74.5445C69.6654 73.0076 70.9314 66.9524 72.1165 63.4557C73.3011 59.973 75.5623 53.5871 76.2692 52.0334C76.9738 50.4659 78.2696 49.9471 79.6151 49.3554C80.9619 48.7636 85.8744 46.8188 85.8744 46.8188Z" fill="#F8561B"/>
<path fill-rule="evenodd" clip-rule="evenodd" d="M40.475 51.0097C40.4843 50.9812 42.9117 50.1223 43.4363 50.0455C43.4363 50.0455 43.2135 54.1199 43.9563 57.8371L52.6508 58.1378C52.6508 58.1378 53.0657 52.7114 55.2623 50.2356C56.3433 50.4566 57.2602 50.7724 58.057 51.1519C58.057 51.1519 55.2161 56.1814 56.4889 63.0859C57.2526 67.2202 57.6852 68.3634 57.6852 68.3634L56.9037 67.9829L56.785 68.4232L53.4157 66.2896C53.4157 66.2896 51.6655 64.9831 51.4021 64.4705C51.1363 63.9441 49.7821 62.4996 49.4709 62.2971C49.1607 62.1085 47.6057 61.319 47.6057 61.319L47.5083 59.8607C47.5083 59.8607 46.7218 59.09 45.7636 59.6002L45.3763 60.979L43.9956 61.2103L44.1204 60.2953C44.1204 60.2953 43.9924 59.4251 42.4341 59.2358L40.7375 62.3757C40.7375 62.3757 39.9892 56.0223 40.475 51.0097Z" fill="#F8561B"/>
<path fill-rule="evenodd" clip-rule="evenodd" d="M42.3206 75.5793L41.397 69.656C41.397 69.656 41.7323 69.1733 41.7537 68.7813C41.7755 68.3753 42.5362 65.9111 42.5362 65.9111L42.7626 65.3242L44.0699 65.6696C44.0699 65.6696 43.8867 66.5887 43.9382 66.8364C43.9906 67.098 43.3537 69.4283 43.3537 69.4283C43.3537 69.4283 43.2442 69.84 43.3982 70.0948C43.5522 70.3496 44.5177 71.0807 45.6331 71.0205C46.7508 70.9741 46.9573 70.1093 46.9573 70.1093L47.1837 67.639C47.1837 67.639 48.3747 68.4386 49.7938 68.5954C51.2144 68.752 51.6105 69.4092 52.1818 69.9711C52.7532 70.533 54.8345 72.5289 54.8345 72.5289L55.2793 73.0574C55.2793 73.0574 54.9184 73.8068 54.4527 74.3679L54.6744 74.7577C54.6744 74.7577 57.0939 75.9778 58.0975 76.4412C59.102 76.9184 63.1248 78.4367 63.1248 78.4367L63.0979 79.7079L53.5778 78.4297C53.5778 78.4297 48.6813 77.3463 46.9857 76.9848C45.2897 76.6372 42.3206 75.5793 42.3206 75.5793Z" fill="#F8561B"/>
<path fill-rule="evenodd" clip-rule="evenodd" d="M43.7618 61.84L43.535 62.734L44.5706 63.0698C44.5706 63.0698 45.5352 62.3219 45.5769 62.3609C45.6196 62.4139 45.5965 62.1087 45.5965 62.1087L45.2394 61.951L44.3322 62.0533L43.7618 61.84Z" fill="#F8561B"/>
<path d="M83.0364 27.4071C83.3685 27.4826 83.7126 27.6132 84.0159 27.7604C84.0581 27.7855 84.2984 27.9509 84.3192 27.9495C84.3253 27.9352 84.2872 27.7841 84.2835 27.7704C84.2464 27.5916 84.2121 27.4127 84.1889 27.2329C84.1259 26.7488 84.1139 26.2332 84.2159 25.7521" stroke="#172155" stroke-width="1.60556" stroke-miterlimit="1.5" stroke-linecap="round" stroke-linejoin="round"/>
<path d="M83.9505 28.3647C83.0387 28.3555 82.3555 29.1543 82.137 29.964C81.8137 31.1712 82.2681 32.3267 82.6433 33.4457" stroke="#172155" stroke-width="1.60556" stroke-miterlimit="1.5" stroke-linecap="round" stroke-linejoin="round"/>
<path d="M84.9453 27.4334C85.8567 25.6569 87.5705 24.2178 89.3816 23.3998C90.1079 23.0586 90.8987 22.7828 91.7112 22.8961C92.7899 23.0615 93.8422 24.3586 92.8464 25.2897C92.5983 25.5295 91.7027 25.9098 91.7626 25.2362C91.835 24.3944 92.9744 24.0257 93.6557 23.9106C95.0828 23.6623 97.6781 24.1453 97.3432 26.1206C97.3 26.3746 97.2114 26.6176 97.0899 26.8489C96.9266 27.1666 96.704 27.4328 96.4517 27.6728C95.9772 28.1228 95.4137 28.4533 94.8414 28.7564" stroke="#172155" stroke-width="1.60556" stroke-miterlimit="1.5" stroke-linecap="round" stroke-linejoin="round"/>
<path d="M95.6952 28.4905C95.8747 28.6459 96.0347 28.8025 96.1558 29.0037C96.7651 30.0094 95.7786 30.9122 94.8585 31.1547C93.8247 31.4327 92.7005 31.1727 91.7066 30.8761C91.209 30.7278 90.7108 30.5516 90.2526 30.303" stroke="#172155" stroke-width="1.60556" stroke-miterlimit="1.5" stroke-linecap="round" stroke-linejoin="round"/>
<path d="M92.1389 31.0984C91.3045 31.8096 90.2722 31.8364 89.2403 31.64C88.7454 31.5334 88.2677 31.4115 87.8262 31.1618" stroke="#172155" stroke-width="1.60556" stroke-miterlimit="1.5" stroke-linecap="round" stroke-linejoin="round"/>
<path d="M86.3035 31.1935C86.3039 31.9329 86.1796 32.6668 85.7251 33.269C85.4918 33.5635 85.1754 33.8076 84.8935 34.0635" stroke="#172155" stroke-width="1.60556" stroke-miterlimit="1.5" stroke-linecap="round" stroke-linejoin="round"/>
<path d="M84.8125 34.2222C85.2498 35.644 85.6328 37.0695 86.0867 38.4902" stroke="#172155" stroke-width="1.60556" stroke-miterlimit="1.5" stroke-linecap="round" stroke-linejoin="round"/>
<path d="M86.1087 38.7122C87.8502 38.3168 89.672 38.1399 91.4534 38.0494C92.548 37.9906 93.6833 37.9149 94.7783 38.0098" stroke="#172155" stroke-width="1.60556" stroke-miterlimit="1.5" stroke-linecap="round" stroke-linejoin="round"/>
<path d="M83.8656 34.285C84.4198 36.4523 85.0133 38.6032 85.6537 40.7648C85.7274 41.011 85.9041 41.2084 86.1383 41.3044C88.0935 42.123 89.8777 42.5346 91.5195 42.5928C91.6461 42.5844 91.7718 42.562 91.8901 42.5123C93.1502 41.9821 94.3264 41.1786 95.4293 40.1566C95.6028 39.9916 95.7006 39.7618 95.6974 39.5249C95.6594 37.1559 95.4713 34.6292 95.1755 31.9983" stroke="#172155" stroke-width="1.60556" stroke-miterlimit="1.5" stroke-linecap="round" stroke-linejoin="round"/>
<path d="M86.6328 41.5507C86.7251 42.3676 86.8188 43.1844 86.924 43.9865" stroke="#172155" stroke-width="1.60556" stroke-miterlimit="1.5" stroke-linecap="round" stroke-linejoin="round"/>
<path d="M94.3203 41.2349C94.3704 41.9849 94.4195 42.721 94.4696 43.4709" stroke="#172155" stroke-width="1.60556" stroke-miterlimit="1.5" stroke-linecap="round" stroke-linejoin="round"/>
<path d="M83.8209 34.1953C83.0005 33.9018 81.8925 33.8636 81.3358 34.6092C81.2486 34.7268 81.1887 34.8551 81.1435 34.9949C81.0847 35.1604 81.0603 35.3607 81.0658 35.5468C81.0742 35.8197 81.1425 36.0886 81.2544 36.3422C81.8192 37.6222 83.3648 38.1659 84.8431 37.9309" stroke="#172155" stroke-width="1.60556" stroke-miterlimit="1.5" stroke-linecap="round" stroke-linejoin="round"/>
<path d="M82.0781 35.6038C82.5289 35.7831 82.9838 35.962 83.424 36.1699" stroke="#172155" stroke-width="1.60556" stroke-miterlimit="1.5" stroke-linecap="round" stroke-linejoin="round"/>
<path d="M95.3084 32.8407C96.4484 32.2488 97.5967 33.1209 97.5646 34.3367C97.54 35.3288 96.759 36.3154 95.9492 36.8296" stroke="#172155" stroke-width="1.60556" stroke-miterlimit="1.5" stroke-linecap="round" stroke-linejoin="round"/>
<path d="M96.4653 34.1727C96.1597 34.4302 95.8536 34.7017 95.5637 34.9861" stroke="#172155" stroke-width="1.60556" stroke-miterlimit="1.5" stroke-linecap="round" stroke-linejoin="round"/>
<path d="M88.8516 39.2964C89.4002 39.7063 89.9785 39.9747 90.6751 40.026" stroke="#172155" stroke-width="1.60556" stroke-miterlimit="1.5" stroke-linecap="round" stroke-linejoin="round"/>
<path d="M91.4082 33.8114C90.975 34.5237 90.9972 35.3592 91.4164 36.0707C91.5004 36.2185 91.6001 36.3514 91.7096 36.4836C91.762 36.5359 91.8607 36.613 91.896 36.6804C91.9219 36.7345 91.7823 36.8835 91.7503 36.9274C91.5523 37.122 91.2684 37.1828 91.0055 37.2421" stroke="#172155" stroke-width="1.60556" stroke-miterlimit="1.5" stroke-linecap="round" stroke-linejoin="round"/>
<path d="M87.0999 33.8757C87.6597 33.4052 88.4338 33.2559 89.1253 33.4615" stroke="#172155" stroke-width="1.60556" stroke-miterlimit="1.5" stroke-linecap="round" stroke-linejoin="round"/>
<path d="M92.4657 33.3235C93.0431 32.9497 93.7323 32.8478 94.3547 33.1698" stroke="#172155" stroke-width="1.60556" stroke-miterlimit="1.5" stroke-linecap="round" stroke-linejoin="round"/>
<path d="M86.2355 44.3393C86.7985 44.232 87.3727 44.2078 87.9395 44.1561C89.3355 44.0074 90.7199 43.8733 92.1242 43.8497C93.0318 43.8173 93.951 43.7284 94.8601 43.7797" stroke="#172155" stroke-width="1.60556" stroke-miterlimit="1.5" stroke-linecap="round" stroke-linejoin="round"/>
<path d="M85.9208 44.9045C85.7283 45.4754 85.7774 46.0858 85.8437 46.6813" stroke="#172155" stroke-width="1.60556" stroke-miterlimit="1.5" stroke-linecap="round" stroke-linejoin="round"/>
<path d="M94.9844 43.7994C95.3266 44.4463 95.4078 45.264 95.4643 45.9857" stroke="#172155" stroke-width="1.60556" stroke-miterlimit="1.5" stroke-linecap="round" stroke-linejoin="round"/>
<path d="M86.7332 47.3197C88.0457 47.5119 89.3967 47.4221 90.7148 47.3205C92.1127 47.1996 93.4859 47.0663 94.8457 46.7103" stroke="#172155" stroke-width="1.60556" stroke-miterlimit="1.5" stroke-linecap="round" stroke-linejoin="round"/>
<path d="M87.9864 45.3059C88.0126 45.6994 88.0405 46.1185 88.0668 46.5119" stroke="#172155" stroke-width="1.60556" stroke-miterlimit="1.5" stroke-linecap="round" stroke-linejoin="round"/>
<path d="M90.5156 44.8068C90.5499 45.3207 90.5852 45.8487 90.6186 46.3487" stroke="#172155" stroke-width="1.60556" stroke-miterlimit="1.5" stroke-linecap="round" stroke-linejoin="round"/>
<path d="M93.2832 44.567C93.3194 45.1086 93.3555 45.6502 93.3908 46.178" stroke="#172155" stroke-width="1.60556" stroke-miterlimit="1.5" stroke-linecap="round" stroke-linejoin="round"/>
<path d="M81.1198 62.0755C81.2185 64.1615 81.5829 66.2717 82.4496 68.1811" stroke="#172155" stroke-width="1.60556" stroke-miterlimit="1.5" stroke-linecap="round" stroke-linejoin="round"/>
<path d="M78.2637 63.577C78.4922 65.8915 79.2791 68.2804 80.8053 70.0622" stroke="#172155" stroke-width="1.60556" stroke-miterlimit="1.5" stroke-linecap="round" stroke-linejoin="round"/>
<path d="M81.7491 61.9499C82.4012 61.5019 82.9828 60.9609 83.4563 60.3296C83.8807 59.7573 84.1966 59.1087 84.614 58.5369C84.9471 58.0822 85.3501 57.6926 85.7777 57.3154" stroke="#172155" stroke-width="1.60556" stroke-miterlimit="1.5" stroke-linecap="round" stroke-linejoin="round"/>
<path d="M85.0654 59.9583C85.5951 59.6023 86.1312 59.2596 86.6488 58.8904C87.0328 58.6138 87.401 58.2682 87.8389 58.0857C88.4079 57.8386 89.0405 57.7686 89.6499 57.6862C89.989 57.6358 90.3234 57.5577 90.6577 57.4797C90.8771 57.4372 91.1016 57.3665 91.1647 57.6413C91.2616 58.0674 90.8882 58.4827 90.5473 58.6728C90.0506 58.957 89.4556 59.0247 88.9217 59.2136C88.419 59.3865 87.971 59.6675 87.5178 59.9347" stroke="#172155" stroke-width="1.60556" stroke-miterlimit="1.5" stroke-linecap="round" stroke-linejoin="round"/>
<path d="M85.7665 60.9717C87.2636 60.4117 88.8118 60.3226 90.3863 60.483C90.8746 60.5342 91.6737 60.5509 91.6904 61.2194C91.6918 61.303 91.6765 61.3878 91.6445 61.4736C91.6032 61.588 91.5337 61.6763 91.465 61.7785" stroke="#172155" stroke-width="1.60556" stroke-miterlimit="1.5" stroke-linecap="round" stroke-linejoin="round"/>
<path d="M91.3824 61.8815C91.5224 62.2628 91.4704 62.7405 91.1805 63.0248" stroke="#172155" stroke-width="1.60556" stroke-miterlimit="1.5" stroke-linecap="round" stroke-linejoin="round"/>
<path d="M86.9983 63.3869C87.6096 63.2484 88.2366 63.2205 88.8599 63.179C89.5421 63.1197 90.2267 63.0743 90.9122 63.0846" stroke="#172155" stroke-width="1.60556" stroke-miterlimit="1.5" stroke-linecap="round" stroke-linejoin="round"/>
<path d="M87.0605 63.5218C87.8082 63.6256 88.553 63.7713 89.3006 63.875C89.8937 63.9472 90.4976 63.9906 91.0787 64.1333" stroke="#172155" stroke-width="1.60556" stroke-miterlimit="1.5" stroke-linecap="round" stroke-linejoin="round"/>
<path d="M91.1197 64.2426C91.0974 64.537 91.001 64.7667 90.7505 64.9508" stroke="#172155" stroke-width="1.60556" stroke-miterlimit="1.5" stroke-linecap="round" stroke-linejoin="round"/>
<path d="M90.0009 65.2097C89.1958 64.9981 88.2223 64.7978 87.388 64.9649C86.2744 65.1785 85.3366 65.9104 84.3218 66.3685C83.7467 66.63 83.1132 66.6859 82.5437 66.947" stroke="#172155" stroke-width="1.60556" stroke-miterlimit="1.5" stroke-linecap="round" stroke-linejoin="round"/>
<path d="M86.3933 62.1162C87.1192 61.9142 87.8672 61.7944 88.6176 61.7305C89.4478 61.6473 90.3332 61.6166 91.156 61.7994" stroke="#172155" stroke-width="1.60556" stroke-miterlimit="1.5" stroke-linecap="round" stroke-linejoin="round"/>
<path d="M86.0444 53.7266C86.041 55.373 86.0804 57.0304 86.0576 58.6781" stroke="#172155" stroke-width="1.60556" stroke-miterlimit="1.5" stroke-linecap="round" stroke-linejoin="round"/>
<path d="M86.6781 53.601C88.165 53.809 89.6616 53.7235 91.1554 53.6381C93.5333 53.5218 95.9699 53.262 98.3056 52.7858C99.4256 52.5439 100.419 51.9337 101.54 51.7336C102.804 51.524 104.128 51.6593 105.404 51.6442C106.94 51.6258 108.448 51.4556 109.974 51.3122" stroke="#172155" stroke-width="1.60556" stroke-miterlimit="1.5" stroke-linecap="round" stroke-linejoin="round"/>
<path d="M86.8149 66.1051C86.9243 67.4092 87.0259 68.7 87.113 70.0056C87.1524 70.6168 87.0935 71.3459 87.2377 71.9362C87.2437 71.9637 87.5415 71.9859 87.5772 71.9975C87.9116 72.045 88.2506 72.0782 88.5873 72.0976C90.0626 72.2367 91.5462 72.1658 93.0104 71.9708C96.3807 71.5234 99.6703 70.663 102.992 69.9678C105.564 69.434 108.429 69.0204 110.82 67.8848" stroke="#172155" stroke-width="1.60556" stroke-miterlimit="1.5" stroke-linecap="round" stroke-linejoin="round"/>
<path d="M111.15 62.6595C111.182 64.2477 111.316 65.8431 111.384 67.429" stroke="#172155" stroke-width="1.60556" stroke-miterlimit="1.5" stroke-linecap="round" stroke-linejoin="round"/>
<path d="M106.387 55.1361C106.841 55.2593 107.296 55.3546 107.754 55.4636C108.605 55.6442 109.456 55.8387 110.297 56.0618C111.137 56.271 112.16 56.4401 112.323 57.4477C112.354 57.641 112.351 57.8364 112.333 58.019" stroke="#172155" stroke-width="1.60556" stroke-miterlimit="1.5" stroke-linecap="round" stroke-linejoin="round"/>
<path d="M112.189 58.5028C112.306 58.76 112.354 59.0359 112.347 59.3293C112.343 59.4551 112.304 59.5831 112.305 59.7226C112.305 60.0155 112.43 60.3002 112.439 60.6065C112.447 60.8432 112.342 61.0454 112.334 61.2691C112.323 61.6046 112.424 62.0863 112.143 62.3561" stroke="#172155" stroke-width="1.60556" stroke-miterlimit="1.5" stroke-linecap="round" stroke-linejoin="round"/>
<path d="M106.122 55.4466C106.097 56.0761 106.531 56.4658 107.088 56.6799C107.485 56.8348 107.92 56.8895 108.333 56.9876C109.021 57.1371 109.714 57.3142 110.378 57.563" stroke="#172155" stroke-width="1.60556" stroke-miterlimit="1.5" stroke-linecap="round" stroke-linejoin="round"/>
<path d="M110.484 58.2118C109.043 58.1678 107.548 58.2953 106.111 58.4188" stroke="#172155" stroke-width="1.60556" stroke-miterlimit="1.5" stroke-linecap="round" stroke-linejoin="round"/>
<path d="M105.825 58.6189C105.642 59.0357 105.657 59.5648 106.034 59.8606" stroke="#172155" stroke-width="1.60556" stroke-miterlimit="1.5" stroke-linecap="round" stroke-linejoin="round"/>
<path d="M106.093 59.9124C105.805 60.4198 105.847 61.0448 106.428 61.2852" stroke="#172155" stroke-width="1.60556" stroke-miterlimit="1.5" stroke-linecap="round" stroke-linejoin="round"/>
<path d="M106.568 61.3319C106.711 61.3364 106.856 61.3547 107.001 61.373" stroke="#172155" stroke-width="1.60556" stroke-miterlimit="1.5" stroke-linecap="round" stroke-linejoin="round"/>
<path d="M107.177 61.375C107.082 61.7301 107.112 62.1465 107.454 62.347" stroke="#172155" stroke-width="1.60556" stroke-miterlimit="1.5" stroke-linecap="round" stroke-linejoin="round"/>
<path d="M107.477 62.4155C108.813 62.3965 110.142 62.5178 111.476 62.5548" stroke="#172155" stroke-width="1.60556" stroke-miterlimit="1.5" stroke-linecap="round" stroke-linejoin="round"/>
<path d="M106.114 59.9112C107.415 59.7967 108.751 59.8058 110.058 59.8307" stroke="#172155" stroke-width="1.60556" stroke-miterlimit="1.5" stroke-linecap="round" stroke-linejoin="round"/>
<path d="M107.157 61.3204C108.196 61.1255 109.32 61.1207 110.375 61.1204" stroke="#172155" stroke-width="1.60556" stroke-miterlimit="1.5" stroke-linecap="round" stroke-linejoin="round"/>
<path d="M110.172 51.3969C110.246 52.7731 110.435 54.1276 110.563 55.5002" stroke="#172155" stroke-width="1.60556" stroke-miterlimit="1.5" stroke-linecap="round" stroke-linejoin="round"/>
<path d="M43.4947 33.0576C42.5509 33.1762 41.5649 33.4788 40.8933 34.1791C39.8168 35.3249 39.6947 36.993 40.1371 38.4284C40.3189 39.0162 40.6106 39.6385 41.1026 40.0382" stroke="#172155" stroke-width="1.60556" stroke-miterlimit="1.5" stroke-linecap="round" stroke-linejoin="round"/>
<path d="M43.4554 35.1246C42.9832 36.6348 43.4116 38.1548 44.4518 39.3133" stroke="#172155" stroke-width="1.60556" stroke-miterlimit="1.5" stroke-linecap="round" stroke-linejoin="round"/>
<path d="M46.6212 35.1512C46.3257 36.273 46.5631 37.5266 47.2198 38.4873" stroke="#172155" stroke-width="1.60556" stroke-miterlimit="1.5" stroke-linecap="round" stroke-linejoin="round"/>
<path d="M49.271 36.1672C49.1466 38.826 49.5319 41.4791 51.1347 43.6743C52.5357 45.59 55.181 47.2414 55.1419 49.9225" stroke="#172155" stroke-width="1.60556" stroke-miterlimit="1.5" stroke-linecap="round" stroke-linejoin="round"/>
<path d="M52.8867 40.4889C53.1255 41.868 53.6004 43.0779 54.4783 44.1913C55.294 45.2113 56.4159 45.9599 57.3221 46.8901C57.8883 47.4802 58.3247 48.2185 58.6836 48.948" stroke="#172155" stroke-width="1.60556" stroke-miterlimit="1.5" stroke-linecap="round" stroke-linejoin="round"/>
<path d="M44.5278 32.7849C45.3422 32.382 46.2465 32.1125 47.1458 31.9969C47.8522 31.922 48.5469 31.9037 49.25 32.0104C53.2273 32.6387 54.0917 36.7944 55.4462 39.9408C55.8214 40.8086 56.2657 41.644 56.7749 42.4471C57.4019 43.4238 58.1165 44.3528 59.0064 45.1027C59.9984 45.9574 61.1528 46.6061 62.1323 47.4617" stroke="#172155" stroke-width="1.60556" stroke-miterlimit="1.5" stroke-linecap="round" stroke-linejoin="round"/>
<path d="M65.4297 50.3893C67.409 52.7408 69.0294 55.4093 69.2375 58.5482C69.3251 59.8816 68.9637 61.6912 67.5677 62.2583" stroke="#172155" stroke-width="1.60556" stroke-miterlimit="1.5" stroke-linecap="round" stroke-linejoin="round"/>
<path d="M66.291 55.9261C67.0098 57.5245 67.4991 59.5985 66.9104 61.3117" stroke="#172155" stroke-width="1.60556" stroke-miterlimit="1.5" stroke-linecap="round" stroke-linejoin="round"/>
<path d="M40.9258 41.075C41.1234 42.3174 40.8877 43.0166 40.4187 44.1778C39.6845 46.0122 38.3886 47.6608 38.9901 49.7412C39.0911 50.0833 39.2312 50.4228 39.4139 50.7315" stroke="#172155" stroke-width="1.60556" stroke-miterlimit="1.5" stroke-linecap="round" stroke-linejoin="round"/>
<path d="M42.1916 44.9106C41.7444 46.5028 41.8918 47.9997 42.6538 49.4696" stroke="#172155" stroke-width="1.60556" stroke-miterlimit="1.5" stroke-linecap="round" stroke-linejoin="round"/>
<path d="M41.5664 41.2569C42.2138 43.3762 42.8751 45.1598 43.5503 46.6076C43.5943 46.7023 43.6694 46.7809 43.7636 46.8304C45.1363 47.5064 46.4265 47.867 47.6328 47.9123C47.6788 47.9092 47.7261 47.9062 47.7697 47.8893C49.0576 47.3572 50.1972 46.5282 51.2045 45.4149" stroke="#172155" stroke-width="1.60556" stroke-miterlimit="1.5" stroke-linecap="round" stroke-linejoin="round"/>
<path d="M45.0625 47.4265L45.6397 49.9829C45.6397 49.9829 47.6613 51.7736 51.1036 49.6195" stroke="#172155" stroke-width="1.60556" stroke-miterlimit="1.5" stroke-linecap="round" stroke-linejoin="round"/>
<path d="M51.0254 45.7052L51.7432 49.0475" stroke="#172155" stroke-width="1.60556" stroke-miterlimit="1.5" stroke-linecap="round" stroke-linejoin="round"/>
<path d="M46.3927 40.5186C46.3927 40.5186 47.0166 39.4989 48.1663 40.0513" stroke="#172155" stroke-width="1.60556" stroke-miterlimit="1.5" stroke-linecap="round" stroke-linejoin="round"/>
<path d="M42.8261 41.493C42.8261 41.493 43.4416 40.5436 44.4836 40.9774" stroke="#172155" stroke-width="1.60556" stroke-miterlimit="1.5" stroke-linecap="round" stroke-linejoin="round"/>
<path d="M45.5445 41.718C45.5445 41.718 45.9558 43.253 45.3389 44.1868C45.3389 44.1868 45.8468 44.4042 46.4854 44.1106" stroke="#172155" stroke-width="1.60556" stroke-miterlimit="1.5" stroke-linecap="round" stroke-linejoin="round"/>
<path d="M46.5963 45.6707C46.5963 45.6707 47.6631 45.6777 48.1939 44.6741" stroke="#172155" stroke-width="1.60556" stroke-miterlimit="1.5" stroke-linecap="round" stroke-linejoin="round"/>
<path d="M51.7832 48.9882C52.0949 49.093 52.3968 49.2403 52.7107 49.3589C53.4389 49.6314 54.1967 49.8459 54.9341 50.0898" stroke="#172155" stroke-width="1.60556" stroke-miterlimit="1.5" stroke-linecap="round" stroke-linejoin="round"/>
<path d="M58.6055 51.3661C60.4744 53.3205 61.3819 55.8409 62.5255 58.234" stroke="#172155" stroke-width="1.60556" stroke-miterlimit="1.5" stroke-linecap="round" stroke-linejoin="round"/>
<path d="M65.0195 64.4518C66.1084 67.1984 67.5647 69.9204 67.8148 72.9348C67.9435 74.4873 67.5903 76.3144 66.3441 77.2611" stroke="#172155" stroke-width="1.60556" stroke-miterlimit="1.5" stroke-linecap="round" stroke-linejoin="round"/>
<path d="M54.6797 74.7808C56.6596 75.9379 56.3872 75.7231 58.5003 76.5947C59.9546 77.2068 61.3858 77.8644 62.909 78.2842" stroke="#172155" stroke-width="1.60556" stroke-miterlimit="1.5" stroke-linecap="round" stroke-linejoin="round"/>
<path d="M56.8166 67.9783C56.7146 69.3399 56.3487 70.6421 55.873 71.8901C55.5072 72.8382 55.0639 73.776 54.3972 74.5286" stroke="#172155" stroke-width="1.60556" stroke-miterlimit="1.5" stroke-linecap="round" stroke-linejoin="round"/>
<path d="M59.1719 68.9458C59.0933 70.5522 58.6969 72.0256 58.0502 73.4543C57.6393 74.3746 57.1121 75.2718 56.4288 75.9639" stroke="#172155" stroke-width="1.60556" stroke-miterlimit="1.5" stroke-linecap="round" stroke-linejoin="round"/>
<path d="M56.8184 67.9747C59.3515 69.3268 60.1409 69.2601 62.3721 70.172" stroke="#172155" stroke-width="1.60556" stroke-miterlimit="1.5" stroke-linecap="round" stroke-linejoin="round"/>
<path d="M43.7781 61.2387C44.6756 61.179 45.4909 60.7899 46.3892 60.9533C47.0139 61.0792 47.6103 61.3465 48.1863 61.6011C48.5624 61.7714 48.9609 61.9403 49.2841 62.1978C50.3777 63.0877 51.1321 64.2789 52.1111 65.274C52.7196 65.8892 55.5894 67.763 56.7794 68.3814" stroke="#172155" stroke-width="1.60556" stroke-miterlimit="1.5" stroke-linecap="round" stroke-linejoin="round"/>
<path d="M43.6791 61.3568C43.5451 61.7145 43.8669 61.8883 44.1712 61.9657C44.5649 62.0651 44.9411 61.9426 45.3353 61.9861C45.7231 62.0162 46.0926 62.2147 46.4521 62.3443" stroke="#172155" stroke-width="1.60556" stroke-miterlimit="1.5" stroke-linecap="round" stroke-linejoin="round"/>
<path d="M47.4776 62.8764C47.0199 62.7395 46.5621 62.6024 46.0905 62.5082C45.8586 62.4678 45.6258 62.4135 45.3916 62.4849C45.0832 62.5752 44.8271 62.8432 44.5938 63.054C44.3462 63.2798 44.0067 63.5954 44.0957 63.9661" stroke="#172155" stroke-width="1.60556" stroke-miterlimit="1.5" stroke-linecap="round" stroke-linejoin="round"/>
<path d="M47.379 64.1522C46.5219 63.9162 45.5582 63.506 44.715 63.9806C44.3839 64.17 43.9957 64.5305 44.1798 64.9646" stroke="#172155" stroke-width="1.60556" stroke-miterlimit="1.5" stroke-linecap="round" stroke-linejoin="round"/>
<path d="M47.098 65.5102C46.6041 65.3337 46.0768 65.2852 45.5602 65.2498C45.3042 65.2249 45.0249 65.1877 44.7717 65.2464C44.3 65.3614 43.9118 65.8057 43.9359 66.2924" stroke="#172155" stroke-width="1.60556" stroke-miterlimit="1.5" stroke-linecap="round" stroke-linejoin="round"/>
<path d="M44.5059 66.5056C44.876 66.5228 45.2484 66.5538 45.6166 66.5851C45.8212 66.6134 46.0605 66.6394 46.2451 66.7248C46.5618 66.8851 46.7955 67.2043 47.0404 67.4392C47.3562 67.753 47.7189 68.0357 48.1205 68.2321C48.5495 68.4408 49.036 68.5478 49.5095 68.5861C49.8791 68.6173 50.271 68.6054 50.6235 68.7354C50.9774 68.8653 51.2667 69.1389 51.5441 69.3995C51.9605 69.7764 54.5521 72.2547 54.9644 72.6319" stroke="#172155" stroke-width="1.60556" stroke-miterlimit="1.5" stroke-linecap="round" stroke-linejoin="round"/>
<path d="M43.4083 50.0058C44.0706 49.8779 44.7714 49.6776 45.4504 49.7163" stroke="#172155" stroke-width="1.60556" stroke-miterlimit="1.5" stroke-linecap="round" stroke-linejoin="round"/>
<path d="M39.9816 51.2518C38.4042 51.845 36.9957 52.7895 35.5779 53.6789C34.0886 54.629 32.6119 55.5363 31.2005 56.6067C30.5429 57.0969 29.6255 57.6323 29.1663 58.3324C29.0059 58.5663 28.9762 59.21 29.4172 59.2225C29.6848 59.2326 29.8485 58.566 29.6092 58.4564C29.3834 58.3598 29.0235 58.4534 28.799 58.5241C28.1149 58.7231 27.5083 59.0982 26.8715 59.4196C25.7329 59.9696 20.3701 61.7633 19.2385 62.1873" stroke="#172155" stroke-width="1.60556" stroke-miterlimit="1.5" stroke-linecap="round" stroke-linejoin="round"/>
<path d="M19.4629 62.5628C21.1408 63.8323 22.3711 65.7035 23.364 67.5348" stroke="#172155" stroke-width="1.60556" stroke-miterlimit="1.5" stroke-linecap="round" stroke-linejoin="round"/>
<path d="M21.9922 61.5574C23.4377 63.0098 24.8272 64.8566 25.5204 66.8054" stroke="#172155" stroke-width="1.60556" stroke-miterlimit="1.5" stroke-linecap="round" stroke-linejoin="round"/>
<path d="M24.0436 67.5456C27.8054 66.5142 31.5537 65.3443 35.0767 63.6452C36.757 62.8359 38.2745 61.7445 39.9312 60.8949" stroke="#172155" stroke-width="1.60556" stroke-miterlimit="1.5" stroke-linecap="round" stroke-linejoin="round"/>
<path d="M28.8066 60.1837C30.1497 61.043 31.4274 62.1578 32.4073 63.4179" stroke="#172155" stroke-width="1.60556" stroke-miterlimit="1.5" stroke-linecap="round" stroke-linejoin="round"/>
<path d="M28.8184 61.4944C29.1119 62.1445 29.4194 62.7938 29.6921 63.4453" stroke="#172155" stroke-width="1.60556" stroke-miterlimit="1.5" stroke-linecap="round" stroke-linejoin="round"/>
<path d="M43.917 66.8518C43.6786 67.7186 43.5269 68.6075 43.3326 69.4854" stroke="#172155" stroke-width="1.60556" stroke-miterlimit="1.5" stroke-linecap="round" stroke-linejoin="round"/>
<path d="M43.4927 69.3908C43.95 69.2488 44.4217 69.2175 44.8966 69.2557C45.211 69.2767 45.5217 69.3257 45.8241 69.4172C45.916 69.4529 46.0064 69.4888 46.094 69.5248C46.5082 69.7205 47.2493 70.2291 46.6923 70.6986C46.6153 70.7596 46.5258 70.8213 46.4344 70.8553C45.7332 71.153 44.7875 70.9927 44.115 70.6747C43.833 70.5539 43.5428 70.3501 43.3893 70.0813" stroke="#172155" stroke-width="1.60556" stroke-miterlimit="1.5" stroke-linecap="round" stroke-linejoin="round"/>
<path d="M47.2029 67.6376C47.1092 68.4948 47.1092 69.3736 47.0016 70.2318" stroke="#172155" stroke-width="1.60556" stroke-miterlimit="1.5" stroke-linecap="round" stroke-linejoin="round"/>
<path d="M43.5828 62.3819C42.9343 64.5594 42.3285 66.748 41.6851 68.9392" stroke="#172155" stroke-width="1.60556" stroke-miterlimit="1.5" stroke-linecap="round" stroke-linejoin="round"/>
<path d="M38.1071 68.0333C38.5653 67.8633 39.0397 67.8318 39.5244 67.8693C39.85 67.8895 40.1756 67.9515 40.4807 68.0847C41.0563 68.3115 42.0033 68.9739 41.2598 69.5813C41.161 69.6716 41.045 69.735 40.924 69.7849C39.912 70.2009 37.9076 69.8599 37.756 68.5308" stroke="#172155" stroke-width="1.60556" stroke-miterlimit="1.5" stroke-linecap="round" stroke-linejoin="round"/>
<path d="M37.9242 67.6546C39.3621 64.8247 41.042 62.1044 42.3936 59.2383" stroke="#172155" stroke-width="1.60556" stroke-miterlimit="1.5" stroke-linecap="round" stroke-linejoin="round"/>
<path d="M42.4062 59.2515C43.0848 59.304 43.9836 59.5373 44.1747 60.3058" stroke="#172155" stroke-width="1.60556" stroke-miterlimit="1.5" stroke-linecap="round" stroke-linejoin="round"/>
<path d="M44.1683 60.4314C44.114 60.6027 44.0598 60.7742 44.0041 60.9456" stroke="#172155" stroke-width="1.60556" stroke-miterlimit="1.5" stroke-linecap="round" stroke-linejoin="round"/>
<path d="M45.3753 60.9788C45.4884 60.5388 45.5891 60.0998 45.6912 59.6605" stroke="#172155" stroke-width="1.60556" stroke-miterlimit="1.5" stroke-linecap="round" stroke-linejoin="round"/>
<path d="M45.7453 59.6153C46.3677 59.3084 47.0842 59.3867 47.6 59.8695" stroke="#172155" stroke-width="1.60556" stroke-miterlimit="1.5" stroke-linecap="round" stroke-linejoin="round"/>
<path d="M47.6344 60.1032C47.6052 60.4818 47.5829 60.8599 47.5731 61.2372" stroke="#172155" stroke-width="1.60556" stroke-miterlimit="1.5" stroke-linecap="round" stroke-linejoin="round"/>
<path d="M42.8262 65.2922C43.187 65.3381 43.5515 65.3975 43.91 65.4715" stroke="#172155" stroke-width="1.60556" stroke-miterlimit="1.5" stroke-linecap="round" stroke-linejoin="round"/>
<path d="M43.6172 62.7841C43.8635 62.8516 44.1102 62.9049 44.3537 62.9726" stroke="#172155" stroke-width="1.60556" stroke-miterlimit="1.5" stroke-linecap="round" stroke-linejoin="round"/>
<path d="M40.0723 63.9823C41.1023 64.2346 42.0925 64.6014 42.7784 65.4347" stroke="#172155" stroke-width="1.60556" stroke-miterlimit="1.5" stroke-linecap="round" stroke-linejoin="round"/>
<path d="M41.1465 62.1812C41.9688 62.2102 42.8299 62.404 43.4175 63.0206" stroke="#172155" stroke-width="1.60556" stroke-miterlimit="1.5" stroke-linecap="round" stroke-linejoin="round"/>
<path d="M13.9408 64.8135C15.8192 64.1446 17.6117 63.2162 19.5137 62.6294" stroke="#172155" stroke-width="1.60556" stroke-miterlimit="1.5" stroke-linecap="round" stroke-linejoin="round"/>
<path d="M13.3643 64.9775C12.612 65.0136 11.8264 64.8845 11.0871 65.0731C10.2867 65.2659 9.59141 65.7169 8.89711 66.1397C7.97463 66.7033 7.06648 67.2937 6.19779 67.9513C5.64448 68.3508 5.0907 68.7643 4.60139 69.2433C4.47663 69.3632 4.17197 69.5926 4.1752 69.7877C4.18122 70.15 4.91304 70.0595 5.10505 70.0048C6.00851 69.7634 6.8155 69.1658 7.61276 68.6942" stroke="#172155" stroke-width="1.60556" stroke-miterlimit="1.5" stroke-linecap="round" stroke-linejoin="round"/>
<path d="M7.73633 68.909C7.8184 69.3639 8.07857 69.8069 8.48715 70.0448" stroke="#172155" stroke-width="1.60556" stroke-miterlimit="1.5" stroke-linecap="round" stroke-linejoin="round"/>
<path d="M10.6498 66.3435C9.95549 66.9337 9.15864 67.475 8.54873 68.1573" stroke="#172155" stroke-width="1.60556" stroke-miterlimit="1.5" stroke-linecap="round" stroke-linejoin="round"/>
<path d="M8.50586 68.7183C8.61483 69.0737 8.7474 69.4277 8.82808 69.799C8.84987 69.8952 8.83828 70.1609 8.91109 70.2259C9.09011 70.3953 9.36191 70.1959 9.47229 70.049C9.74501 69.6961 9.74644 69.1938 9.71492 68.7635" stroke="#172155" stroke-width="1.60556" stroke-miterlimit="1.5" stroke-linecap="round" stroke-linejoin="round"/>
<path d="M9.75129 68.6362C9.96509 68.5102 10.1743 68.3565 10.3936 68.2302C10.498 68.1813 10.6088 68.104 10.7303 68.0819C11.137 68.0409 11.5823 68.2629 11.9756 68.3346C12.566 68.449 13.0966 68.3579 13.6239 68.0713" stroke="#172155" stroke-width="1.60556" stroke-miterlimit="1.5" stroke-linecap="round" stroke-linejoin="round"/>
<path d="M8.75391 70.4594C8.96167 70.8083 9.29694 70.9955 9.69394 71.0388" stroke="#172155" stroke-width="1.60556" stroke-miterlimit="1.5" stroke-linecap="round" stroke-linejoin="round"/>
<path d="M9.72266 71.0369C10.1011 71.5558 10.7221 71.7516 11.2629 71.3529" stroke="#172155" stroke-width="1.60556" stroke-miterlimit="1.5" stroke-linecap="round" stroke-linejoin="round"/>
<path d="M11.2919 71.3788C11.4932 71.1702 11.6866 70.948 11.8596 70.7133C12.0034 70.5224 12.2065 70.2577 12.2395 70.0183C12.2886 69.6245 11.8421 69.445 11.5304 69.5494C11.0689 69.6917 10.702 70.1626 10.3936 70.504" stroke="#172155" stroke-width="1.60556" stroke-miterlimit="1.5" stroke-linecap="round" stroke-linejoin="round"/>
<path d="M11.3331 69.5208C11.2905 69.3422 11.2145 69.1659 11.0754 69.0496C10.786 68.8178 10.2215 68.8416 9.93352 69.07" stroke="#172155" stroke-width="1.60556" stroke-miterlimit="1.5" stroke-linecap="round" stroke-linejoin="round"/>
<path d="M12.3218 71.0733C13.7614 70.4474 14.5257 69.0433 15.8146 68.2321C16.5209 67.7806 17.334 67.5452 18.1275 67.311C19.3195 66.9527 20.5559 66.6752 21.7794 66.4543" stroke="#172155" stroke-width="1.60556" stroke-miterlimit="1.5" stroke-linecap="round" stroke-linejoin="round"/>
<path d="M46.1477 5.4747C45.6704 7.38975 45.7881 9.48859 45.9786 11.4429C46.0829 12.5241 46.1543 13.4681 47.1932 13.9988" stroke="#172155" stroke-width="1.60556" stroke-miterlimit="1.5" stroke-linecap="round" stroke-linejoin="round"/>
<path d="M48.3574 14.2422C51.4624 14.8449 54.611 15.0541 57.7559 15.3332C60.5933 15.5909 63.3918 16.1022 66.2408 16.2615C71.11 16.5376 75.9969 16.3661 80.8703 16.5163" stroke="#172155" stroke-width="1.60556" stroke-miterlimit="1.5" stroke-linecap="round" stroke-linejoin="round"/>
<path d="M82.704 16.5476C84.4974 16.6376 86.3196 16.4886 88.1098 16.3835C91.6082 16.1787 95.0313 15.8114 98.4555 15.0396C100.37 14.6193 102.436 14.2868 104.218 13.4289" stroke="#172155" stroke-width="1.60556" stroke-miterlimit="1.5" stroke-linecap="round" stroke-linejoin="round"/>
<path d="M104.727 13.0044C105.171 11.4543 105.438 9.88807 105.377 8.27392C105.351 7.59208 105.295 6.81463 105.02 6.1912" stroke="#172155" stroke-width="1.60556" stroke-miterlimit="1.5" stroke-linecap="round" stroke-linejoin="round"/>
<path d="M47.3457 5.28378C51.1324 6.21773 55.0583 6.09615 58.9314 6.18734C62.6546 6.27454 66.3695 6.57144 70.0978 6.58855" stroke="#172155" stroke-width="1.60556" stroke-miterlimit="1.5" stroke-linecap="round" stroke-linejoin="round"/>
<path d="M72.5332 6.76126C75.2695 6.84434 78.0081 7.06667 80.7453 7.07994C88.5234 7.13463 96.3025 6.70105 104.056 6.14353" stroke="#172155" stroke-width="1.60556" stroke-miterlimit="1.5" stroke-linecap="round" stroke-linejoin="round"/>
<path d="M51.6695 6.08404C50.9236 8.43546 50.7974 11.2342 51.2986 13.6561" stroke="#172155" stroke-width="1.60556" stroke-miterlimit="1.5" stroke-linecap="round" stroke-linejoin="round"/>
<path d="M48.7652 5.76115C48.4697 6.54807 48.2443 7.35818 48.1487 8.18761" stroke="#172155" stroke-width="1.60556" stroke-miterlimit="1.5" stroke-linecap="round" stroke-linejoin="round"/>
<path d="M48.0083 9.27131C47.6947 10.7709 47.8695 12.3634 48.2479 13.8448" stroke="#172155" stroke-width="1.60556" stroke-miterlimit="1.5" stroke-linecap="round" stroke-linejoin="round"/>
<path d="M61.5131 6.35043C60.7069 9.01277 60.6725 12.0562 61.3968 14.7423" stroke="#172155" stroke-width="1.60556" stroke-miterlimit="1.5" stroke-linecap="round" stroke-linejoin="round"/>
<path d="M66.6396 6.65108C66.1058 8.30483 65.9387 10.0736 65.9799 11.8007" stroke="#172155" stroke-width="1.60556" stroke-miterlimit="1.5" stroke-linecap="round" stroke-linejoin="round"/>
<path d="M66.0344 12.7737C66.001 13.9059 66.1387 15.0268 66.3808 16.1407" stroke="#172155" stroke-width="1.60556" stroke-miterlimit="1.5" stroke-linecap="round" stroke-linejoin="round"/>
<path d="M83.7344 7.35571C84.7699 9.99322 84.9701 13.077 84.5308 15.8545" stroke="#172155" stroke-width="1.60556" stroke-miterlimit="1.5" stroke-linecap="round" stroke-linejoin="round"/>
<path d="M88.6816 7.02675C89.0814 8.57656 89.2677 10.1128 89.3553 11.6973" stroke="#172155" stroke-width="1.60556" stroke-miterlimit="1.5" stroke-linecap="round" stroke-linejoin="round"/>
<path d="M89.415 13.0323C89.3579 14.0824 89.3445 15.1574 89.1626 16.2018" stroke="#172155" stroke-width="1.60556" stroke-miterlimit="1.5" stroke-linecap="round" stroke-linejoin="round"/>
<path d="M98.9473 6.55327C99.7908 8.28282 100.187 10.1817 100.307 12.0989" stroke="#172155" stroke-width="1.60556" stroke-miterlimit="1.5" stroke-linecap="round" stroke-linejoin="round"/>
<path d="M100.358 12.9744C100.385 13.5027 100.4 14.0316 100.379 14.5631" stroke="#172155" stroke-width="1.60556" stroke-miterlimit="1.5" stroke-linecap="round" stroke-linejoin="round"/>
<path d="M102.762 6.28563C103.758 8.29796 104.035 10.5813 104.006 12.7873" stroke="#172155" stroke-width="1.60556" stroke-miterlimit="1.5" stroke-linecap="round" stroke-linejoin="round"/>
<path d="M11 86.1579C11.192 86.3544 11.3868 86.5507 11.5788 86.7472" stroke="#172155" stroke-width="1.60556" stroke-miterlimit="1.5" stroke-linecap="round" stroke-linejoin="round"/>
<path d="M121.644 20.18C121.993 19.9057 122.341 19.6175 122.678 19.3301" stroke="#172155" stroke-width="1.60556" stroke-miterlimit="1.5" stroke-linecap="round" stroke-linejoin="round"/>
<path d="M71.4043 22.2516C71.4702 22.401 71.5402 22.5502 71.6075 22.6994" stroke="#172155" stroke-width="1.60556" stroke-miterlimit="1.5" stroke-linecap="round" stroke-linejoin="round"/>
<path d="M122.439 81.5924C122.651 81.8992 122.855 82.2345 123.053 82.5562" stroke="#172155" stroke-width="1.60556" stroke-miterlimit="1.5" stroke-linecap="round" stroke-linejoin="round"/>
<path d="M34.6934 72.5848C39.5347 74.8716 45.0689 76.6519 50.9408 77.9215" stroke="#172155" stroke-width="1.60556" stroke-miterlimit="1.5" stroke-linecap="round" stroke-linejoin="round"/>
<path d="M53.6133 78.4553C68.9407 81.3142 86.134 80.8264 99.1257 77.1026" stroke="#172155" stroke-width="1.60556" stroke-miterlimit="1.5" stroke-linecap="round" stroke-linejoin="round"/>
<path d="M102.473 76.0429C107.13 74.4079 111.095 72.3026 114.036 69.7355" stroke="#172155" stroke-width="1.60556" stroke-miterlimit="1.5" stroke-linecap="round" stroke-linejoin="round"/>
<path d="M35.2969 81.6134C37.3324 82.5662 39.4912 83.4408 41.7461 84.2256" stroke="#172155" stroke-width="1.60556" stroke-miterlimit="1.5" stroke-linecap="round" stroke-linejoin="round"/>
<path d="M43.4551 84.7956C46.804 85.8703 50.3412 86.7511 53.986 87.4433" stroke="#172155" stroke-width="1.60556" stroke-miterlimit="1.5" stroke-linecap="round" stroke-linejoin="round"/>
<path d="M62.2148 88.7096C67.5469 89.2618 73.6284 89.4433 78.8979 89.2464" stroke="#172155" stroke-width="1.60556" stroke-miterlimit="1.5" stroke-linecap="round" stroke-linejoin="round"/>
<path d="M81.2032 89.1358C84.9455 88.9009 88.5951 88.4906 92.0637 87.8826" stroke="#172155" stroke-width="1.60556" stroke-miterlimit="1.5" stroke-linecap="round" stroke-linejoin="round"/>
<path d="M102.959 84.8281C107.922 83.1588 111.549 81.4528 114.638 78.7641" stroke="#172155" stroke-width="1.60556" stroke-miterlimit="1.5" stroke-linecap="round" stroke-linejoin="round"/>
<path d="M34.1424 73.1098C34.0588 75.752 34.1537 78.4521 34.8864 81.0121" stroke="#172155" stroke-width="1.60556" stroke-miterlimit="1.5" stroke-linecap="round" stroke-linejoin="round"/>
<path d="M34.5827 72.5502C35.534 71.7894 36.7538 71.4711 37.9225 71.226C39.0356 70.9845 40.158 70.7564 41.2929 70.6531" stroke="#172155" stroke-width="1.60556" stroke-miterlimit="1.5" stroke-linecap="round" stroke-linejoin="round"/>
<path d="M66.2266 65.7587C67.6477 65.6502 69.1044 65.6789 70.5287 65.724" stroke="#172155" stroke-width="1.60556" stroke-miterlimit="1.5" stroke-linecap="round" stroke-linejoin="round"/>
<path d="M115.103 78.4814C114.89 75.8171 114.791 73.0474 114.291 70.4161" stroke="#172155" stroke-width="1.60556" stroke-miterlimit="1.5" stroke-linecap="round" stroke-linejoin="round"/>
<path d="M111.316 68.563C111.961 68.6736 113.176 68.9135 113.764 69.1953" stroke="#172155" stroke-width="1.60556" stroke-miterlimit="1.5" stroke-linecap="round" stroke-linejoin="round"/>
<path d="M38.4648 101.714C39.9973 109.912 42.0853 118.98 44.1516 126.278" stroke="#172155" stroke-width="1.60556" stroke-miterlimit="1.5" stroke-linecap="round" stroke-linejoin="round"/>
<path d="M44.6562 127.849C49.0486 130.738 53.5723 132.976 58.2304 134.55" stroke="#172155" stroke-width="1.60556" stroke-miterlimit="1.5" stroke-linecap="round" stroke-linejoin="round"/>
<path d="M60.541 135.275C70.1899 138.065 80.4117 138.027 91.2499 134.977" stroke="#172155" stroke-width="1.60556" stroke-miterlimit="1.5" stroke-linecap="round" stroke-linejoin="round"/>
<path d="M93.5671 134.278C97.4569 133.029 101.426 131.412 105.474 129.385C105.915 129.174 106.227 128.763 106.322 128.282C106.913 125.243 107.455 122.138 107.947 118.967" stroke="#172155" stroke-width="1.60556" stroke-miterlimit="1.5" stroke-linecap="round" stroke-linejoin="round"/>
<path d="M108.2 117.164C109.156 110.795 109.901 104.287 110.442 97.4847" stroke="#172155" stroke-width="1.60556" stroke-miterlimit="1.5" stroke-linecap="round" stroke-linejoin="round"/>
<path d="M37.712 83.6C38.9696 86.8226 39.9703 90.2159 40.9329 93.5418C41.2195 94.5272 41.3953 95.5478 41.4569 96.576C41.488 97.1041 41.531 97.6871 41.3158 98.1897C40.6757 99.6971 38.9078 100.428 37.4784 100.956" stroke="#172155" stroke-width="1.60556" stroke-miterlimit="1.5" stroke-linecap="round" stroke-linejoin="round"/>
<path d="M36.6408 101.193C35.9191 101.311 35.1784 101.374 34.4475 101.353C34.0111 101.326 33.5654 101.286 33.1541 101.132C30.0463 99.9855 31.1897 96.0312 31.7348 93.6234C31.8596 93.085 32.0038 92.5455 32.1425 92.0062C32.3132 91.3392 32.4978 90.6712 32.6848 90.0171C32.9288 89.1499 33.1713 88.2826 33.4292 87.4145C33.7354 86.3897 34.1185 85.3878 34.3324 84.3412" stroke="#172155" stroke-width="1.60556" stroke-miterlimit="1.5" stroke-linecap="round" stroke-linejoin="round"/>
<path d="M34.5654 83.5998C34.4397 83.1199 34.2793 82.6425 33.9519 82.2597C33.6495 81.9171 33.2382 81.6792 32.8681 81.4109C32.5467 81.1811 31.9201 80.7346 32.0398 80.2663C32.165 79.7557 33.0077 79.7555 33.3941 79.6182C34.0318 79.3944 34.3138 78.8876 34.4265 78.2523" stroke="#172155" stroke-width="1.60556" stroke-miterlimit="1.5" stroke-linecap="round" stroke-linejoin="round"/>
<path d="M35.6888 84.5438C35.4156 86.0407 35.1771 87.5354 35.0008 89.0398" stroke="#172155" stroke-width="1.60556" stroke-miterlimit="1.5" stroke-linecap="round" stroke-linejoin="round"/>
<path d="M36.7715 84.8902C37.0835 86.404 37.4466 87.8864 37.7368 89.3877" stroke="#172155" stroke-width="1.60556" stroke-miterlimit="1.5" stroke-linecap="round" stroke-linejoin="round"/>
<path d="M40.0404 94.3839C40.0747 94.6885 40.1094 94.9792 40.14 95.2701C40.2536 96.3228 40.5239 97.8394 39.6626 98.65" stroke="#172155" stroke-width="1.60556" stroke-miterlimit="1.5" stroke-linecap="round" stroke-linejoin="round"/>
<path d="M38.6758 99.1199C38.2973 99.229 37.9188 99.296 37.5311 99.3497" stroke="#172155" stroke-width="1.60556" stroke-miterlimit="1.5" stroke-linecap="round" stroke-linejoin="round"/>
<path d="M55.8419 87.5559C55.385 89.8602 54.5213 91.9127 53.5264 94.0295C52.7138 95.7576 51.6958 97.6528 52.0477 99.6383C52.7381 103.512 58.2422 103.565 61.0917 102.12C61.8895 101.718 62.8263 101.056 63.2489 100.246C63.8704 99.0472 63.4151 97.6268 62.975 96.4564C62.0545 93.9926 61.0347 91.7585 60.5377 89.1689" stroke="#172155" stroke-width="1.60556" stroke-miterlimit="1.5" stroke-linecap="round" stroke-linejoin="round"/>
<path d="M60.492 88.4885C61.127 88.0138 61.8254 87.5908 62.4149 87.0634C62.6598 86.8378 62.9265 86.5411 62.9201 86.1927C62.9131 85.8166 62.5495 85.436 62.4164 85.096C62.3334 84.8784 62.4122 84.3431 62.2504 84.2423C61.7402 83.9274 61.1786 84.5368 60.6689 84.3335C60.2116 84.1408 60.0326 83.4271 59.4988 83.4068C59.1088 83.4048 58.7113 83.6685 58.4604 83.9502C58.2452 84.2017 58.1037 84.4901 57.7387 84.4865C56.6729 84.4736 56.167 82.9449 55.0534 83.4515C53.7163 84.0426 54.3452 85.8421 55.0529 86.6879" stroke="#172155" stroke-width="1.60556" stroke-miterlimit="1.5" stroke-linecap="round" stroke-linejoin="round"/>
<path d="M57.4768 88.1868C57.2365 89.2351 56.9665 90.2575 56.7235 91.306" stroke="#172155" stroke-width="1.60556" stroke-miterlimit="1.5" stroke-linecap="round" stroke-linejoin="round"/>
<path d="M58.9512 88.8977C59.1042 90.1012 59.3105 91.287 59.4723 92.476" stroke="#172155" stroke-width="1.60556" stroke-miterlimit="1.5" stroke-linecap="round" stroke-linejoin="round"/>
<path d="M61.7216 96.3018C62.2892 97.5615 62.5337 99.0239 61.7368 100.235" stroke="#172155" stroke-width="1.60556" stroke-miterlimit="1.5" stroke-linecap="round" stroke-linejoin="round"/>
<path d="M60.8379 101.132C60.472 101.324 60.0694 101.49 59.6617 101.559" stroke="#172155" stroke-width="1.60556" stroke-miterlimit="1.5" stroke-linecap="round" stroke-linejoin="round"/>
<path d="M95.5436 86.6178C94.5403 89.949 92.9818 93.275 92.58 96.7614C92.439 97.9984 92.2831 99.5156 92.8442 100.678" stroke="#172155" stroke-width="1.60556" stroke-miterlimit="1.5" stroke-linecap="round" stroke-linejoin="round"/>
<path d="M93.7678 101.384C96.2945 102.388 98.5786 102.292 101.048 101.179C102.583 100.491 103.762 99.3523 103.758 97.5669C103.757 95.7952 102.638 94.1677 101.97 92.5939C101.094 90.5178 100.582 88.3196 99.7439 86.227" stroke="#172155" stroke-width="1.60556" stroke-miterlimit="1.5" stroke-linecap="round" stroke-linejoin="round"/>
<path d="M95.2026 86.3196C94.8316 85.9955 94.4652 85.6571 94.1401 85.2882C93.9314 85.0509 93.7324 84.8131 93.5622 84.5454C93.4514 84.3714 93.3573 84.1963 93.2817 84.0061C93.0419 83.4082 93.233 82.9213 93.9338 82.8886C94.7779 82.8464 95.5431 83.2977 96.3997 83.0873C96.9539 82.9528 97.428 82.5585 97.8709 82.2222C98.1557 82.0079 98.4688 81.7361 98.8491 81.7806C99.5633 81.8865 99.6842 82.8829 100.38 83.0877C100.812 83.2124 101.286 83.0274 101.706 82.9436C101.939 82.8863 102.225 82.8254 102.441 82.9784C102.857 83.2437 102.828 83.8176 102.617 84.2084C102.254 84.8882 101.37 85.5328 100.659 85.8173" stroke="#172155" stroke-width="1.60556" stroke-miterlimit="1.5" stroke-linecap="round" stroke-linejoin="round"/>
<path d="M97.1351 86.4142C96.6346 87.6472 96.4018 88.974 96.0608 90.2522" stroke="#172155" stroke-width="1.60556" stroke-miterlimit="1.5" stroke-linecap="round" stroke-linejoin="round"/>
<path d="M98.0801 86.7978C98.5419 88.1063 98.9927 89.4154 99.4698 90.7229" stroke="#172155" stroke-width="1.60556" stroke-miterlimit="1.5" stroke-linecap="round" stroke-linejoin="round"/>
<path d="M101.746 95.0148C102.153 96.0875 102.644 97.3289 102.531 98.5086" stroke="#172155" stroke-width="1.60556" stroke-miterlimit="1.5" stroke-linecap="round" stroke-linejoin="round"/>
<path d="M102.041 99.3884C101.62 99.6479 101.176 99.8551 100.703 100.01" stroke="#172155" stroke-width="1.60556" stroke-miterlimit="1.5" stroke-linecap="round" stroke-linejoin="round"/>
<path d="M109.522 82.8143C109.294 83.7642 109.08 84.713 108.863 85.6621C108.696 86.3847 108.527 87.1072 108.389 87.8279C107.874 90.5964 106.792 94.5049 109.602 96.4245C109.945 96.6668 110.324 96.8509 110.719 96.978C111.398 97.1979 112.123 97.2193 112.826 97.2283" stroke="#172155" stroke-width="1.60556" stroke-miterlimit="1.5" stroke-linecap="round" stroke-linejoin="round"/>
<path d="M113.945 97.1401C114.636 96.9825 115.322 96.8114 115.933 96.436C117.658 95.3865 117.521 93.1776 117.136 91.4733C116.331 87.8997 114.039 84.5367 114.209 80.7867" stroke="#172155" stroke-width="1.60556" stroke-miterlimit="1.5" stroke-linecap="round" stroke-linejoin="round"/>
<path d="M114.549 80.0666C114.734 79.6777 114.915 79.3029 115.054 78.9031C115.14 78.6463 115.221 78.3898 115.273 78.1213C115.309 77.9375 115.333 77.7545 115.331 77.5733C115.33 77.4478 115.316 77.3233 115.288 77.1996C115.199 76.8149 114.916 76.736 114.556 76.9134C114.113 77.1382 113.861 77.7408 113.359 77.8439C112.797 77.965 112.171 77.2813 111.638 77.5958C111.271 77.8155 111.068 78.2613 110.909 78.6346C110.824 78.8495 110.76 79.1188 110.56 79.2437C109.856 79.6672 108.55 78.8891 108.069 79.7442C107.633 80.5126 108.445 81.3097 108.921 81.8081" stroke="#172155" stroke-width="1.60556" stroke-miterlimit="1.5" stroke-linecap="round" stroke-linejoin="round"/>
<path d="M111.507 82.0963C111.142 83.5854 111.083 85.124 110.856 86.6457" stroke="#172155" stroke-width="1.60556" stroke-miterlimit="1.5" stroke-linecap="round" stroke-linejoin="round"/>
<path d="M112.492 82.3937C112.72 83.3551 112.974 84.3149 113.176 85.292" stroke="#172155" stroke-width="1.60556" stroke-miterlimit="1.5" stroke-linecap="round" stroke-linejoin="round"/>
<path d="M116.217 93.0251C116.105 94.0787 115.753 95.2042 114.842 95.8507" stroke="#172155" stroke-width="1.60556" stroke-miterlimit="1.5" stroke-linecap="round" stroke-linejoin="round"/>
<path d="M115.966 90.8375C116.045 91.167 116.128 91.5103 116.178 91.8558" stroke="#172155" stroke-width="1.60556" stroke-miterlimit="1.5" stroke-linecap="round" stroke-linejoin="round"/>
<path d="M38.998 85.691C39.5379 86.3666 40.1533 87.065 40.8461 87.6048C41.7644 88.2971 42.903 88.7932 43.99 89.1673C46.4851 90.0337 49.0313 90.2829 51.6257 89.7058C52.8603 89.4423 54.1733 89.118 55.2196 88.3788" stroke="#172155" stroke-width="1.60556" stroke-miterlimit="1.5" stroke-linecap="round" stroke-linejoin="round"/>
<path d="M38.5625 83.2368C39.3244 84.2883 40.2228 85.3305 41.2862 86.0828C43.7521 87.8301 47.1376 88.5537 50.0845 88.4415C51.8385 88.3806 53.6334 87.8846 55.1129 86.8515" stroke="#172155" stroke-width="1.60556" stroke-miterlimit="1.5" stroke-linecap="round" stroke-linejoin="round"/>
<path d="M61.2598 89.6786C64.6332 92.1049 68.4677 92.7287 72.523 93.0589C80.2181 93.691 88.363 92.5215 94.6785 87.8327" stroke="#172155" stroke-width="1.60556" stroke-miterlimit="1.5" stroke-linecap="round" stroke-linejoin="round"/>
<path d="M61.5957 88.3312C68.2434 92.5346 77.6044 92.2049 84.9702 90.7106C87.5141 90.1926 89.8126 89.2447 92.0393 87.9945C92.6844 87.6307 94.2924 86.5334 94.9282 86.1144" stroke="#172155" stroke-width="1.60556" stroke-miterlimit="1.5" stroke-linecap="round" stroke-linejoin="round"/>
<path d="M99.9276 86.2565C102.913 88.1227 107.426 87.069 109.135 83.9421" stroke="#172155" stroke-width="1.60556" stroke-miterlimit="1.5" stroke-linecap="round" stroke-linejoin="round"/>
<path d="M101.144 85.6736C103.626 86.1084 106.221 85.6708 108.002 83.7527C108.314 83.4251 108.555 83.0322 108.781 82.6405" stroke="#172155" stroke-width="1.60556" stroke-miterlimit="1.5" stroke-linecap="round" stroke-linejoin="round"/>
<path d="M36.7152 74.264C36.4679 76.5683 36.4928 78.9101 37.3015 81.1024" stroke="#172155" stroke-width="1.60556" stroke-miterlimit="1.5" stroke-linecap="round" stroke-linejoin="round"/>
<path d="M66.3216 80.3583C65.7816 83.0727 65.6707 85.8701 66.2243 88.5955" stroke="#172155" stroke-width="1.60556" stroke-miterlimit="1.5" stroke-linecap="round" stroke-linejoin="round"/>
<path d="M61.3275 79.6302C61.0288 80.808 60.8617 82.0746 60.9813 83.2804" stroke="#172155" stroke-width="1.60556" stroke-miterlimit="1.5" stroke-linecap="round" stroke-linejoin="round"/>
<path d="M87.9609 80.2028C88.3787 81.7514 88.7223 83.3187 88.7561 84.9347" stroke="#172155" stroke-width="1.60556" stroke-miterlimit="1.5" stroke-linecap="round" stroke-linejoin="round"/>
<path d="M88.7781 86.063C88.7279 86.8615 88.682 87.7018 88.4788 88.4686" stroke="#172155" stroke-width="1.60556" stroke-miterlimit="1.5" stroke-linecap="round" stroke-linejoin="round"/>
<path d="M93.2793 78.6772C93.7208 79.8057 93.9716 80.9888 93.947 82.1901" stroke="#172155" stroke-width="1.60556" stroke-miterlimit="1.5" stroke-linecap="round" stroke-linejoin="round"/>
<path d="M111.705 71.788C112.325 73.4348 112.779 75.1343 112.944 76.8812" stroke="#172155" stroke-width="1.60556" stroke-miterlimit="1.5" stroke-linecap="round" stroke-linejoin="round"/>
<path d="M47.5547 92.0832C48.2339 96.7114 48.9531 101.142 49.7107 105.416" stroke="#172155" stroke-width="1.60556" stroke-miterlimit="1.5" stroke-linecap="round" stroke-linejoin="round"/>
<path d="M50.0293 107.208C51.3025 114.225 52.6755 120.787 54.1329 126.982" stroke="#172155" stroke-width="1.60556" stroke-miterlimit="1.5" stroke-linecap="round" stroke-linejoin="round"/>
<path d="M66.8455 94.2319C67.1577 101.884 67.5785 109.11 68.0804 116.024" stroke="#172155" stroke-width="1.60556" stroke-miterlimit="1.5" stroke-linecap="round" stroke-linejoin="round"/>
<path d="M68.2715 118.606C68.5658 122.451 69.0308 128.391 69.3696 132.065" stroke="#172155" stroke-width="1.60556" stroke-miterlimit="1.5" stroke-linecap="round" stroke-linejoin="round"/>
<path d="M85.6585 92.9809C85.6941 95.3362 85.7102 97.6926 85.7082 100.05" stroke="#172155" stroke-width="1.60556" stroke-miterlimit="1.5" stroke-linecap="round" stroke-linejoin="round"/>
<path d="M85.6973 101.823C85.6482 110.824 85.0457 123.071 84.4952 132.078" stroke="#172155" stroke-width="1.60556" stroke-miterlimit="1.5" stroke-linecap="round" stroke-linejoin="round"/>
<path d="M99.9045 103.249C99.6905 106.137 99.4502 108.985 99.1894 111.821" stroke="#172155" stroke-width="1.60556" stroke-miterlimit="1.5" stroke-linecap="round" stroke-linejoin="round"/>
<path d="M98.9893 113.968C98.5323 118.7 98.0219 123.366 97.4837 127.991" stroke="#172155" stroke-width="1.60556" stroke-miterlimit="1.5" stroke-linecap="round" stroke-linejoin="round"/>
<path d="M47.8004 15.0745L47.2171 30.6679" stroke="#172155" stroke-width="1.60556" stroke-miterlimit="1.5" stroke-linecap="round" stroke-linejoin="round"/>
<path d="M48.9156 31.3301L49.4649 15.573" stroke="#172155" stroke-width="1.60556" stroke-miterlimit="1.5" stroke-linecap="round" stroke-linejoin="round"/>
<path d="M62.7354 17.1362L62.8503 30.3956" stroke="#172155" stroke-width="1.60556" stroke-miterlimit="1.5" stroke-linecap="round" stroke-linejoin="round"/>
<path d="M64.4909 16.3199L64.7236 43.2217" stroke="#172155" stroke-width="1.60556" stroke-miterlimit="1.5" stroke-linecap="round" stroke-linejoin="round"/>
<path d="M64.6391 45.6087L64.9247 78.6154" stroke="#172155" stroke-width="1.60556" stroke-miterlimit="1.5" stroke-linecap="round" stroke-linejoin="round"/>
<path d="M62.9898 32.4414L62.8825 62.2003" stroke="#172155" stroke-width="1.60556" stroke-miterlimit="1.5" stroke-linecap="round" stroke-linejoin="round"/>
<path d="M63.036 64.0316L63.122 79.7062" stroke="#172155" stroke-width="1.60556" stroke-miterlimit="1.5" stroke-linecap="round" stroke-linejoin="round"/>
<path d="M87.5391 16.6168L87.9747 23.1445" stroke="#172155" stroke-width="1.60556" stroke-miterlimit="1.5" stroke-linecap="round" stroke-linejoin="round"/>
<path d="M86.4299 25.4236L85.9219 17.8125" stroke="#172155" stroke-width="1.60556" stroke-miterlimit="1.5" stroke-linecap="round" stroke-linejoin="round"/>
<path d="M102.088 15.6494L105.51 38.44" stroke="#172155" stroke-width="1.60556" stroke-miterlimit="1.5" stroke-linecap="round" stroke-linejoin="round"/>
<path d="M105.812 40.4566L107.355 50.6215" stroke="#172155" stroke-width="1.60556" stroke-miterlimit="1.5" stroke-linecap="round" stroke-linejoin="round"/>
<path d="M103.479 13.8133L105.915 29.8892" stroke="#172155" stroke-width="1.60556" stroke-miterlimit="1.5" stroke-linecap="round" stroke-linejoin="round"/>
<path d="M106.25 32.0989L109.174 51.3933" stroke="#172155" stroke-width="1.60556" stroke-miterlimit="1.5" stroke-linecap="round" stroke-linejoin="round"/>
<path d="M71.9712 67.4133C74.932 65.6679 77.8516 63.8276 80.9224 62.2841" stroke="#172155" stroke-width="1.60556" stroke-miterlimit="1.5" stroke-linecap="round" stroke-linejoin="round"/>
<path d="M82.6108 68.603C81.7695 69.3983 80.5882 70.3976 79.7775 71.2328" stroke="#172155" stroke-width="1.60556" stroke-miterlimit="1.5" stroke-linecap="round" stroke-linejoin="round"/>
<path d="M80.1543 54.0348C80.9732 56.2124 81.5106 58.4646 81.709 60.7671" stroke="#172155" stroke-width="1.60556" stroke-miterlimit="1.5" stroke-linecap="round" stroke-linejoin="round"/>
<path d="M46.7855 52.0411C48.4222 52.4623 50.2616 51.9632 51.6794 51.1156C52.3227 50.7241 52.9586 50.1797 53.3389 49.5127" stroke="#172155" stroke-width="1.60556" stroke-miterlimit="1.5" stroke-linecap="round" stroke-linejoin="round"/>
<path d="M44.7246 50.7411C44.9968 51.1136 45.3577 51.4523 45.7463 51.7055" stroke="#172155" stroke-width="1.60556" stroke-miterlimit="1.5" stroke-linecap="round" stroke-linejoin="round"/>
<path d="M101.724 51.8756C99.8261 54.8787 98.2051 58.0739 96.4603 61.1511C94.8751 63.951 93.3543 66.8028 91.7438 69.5903C91.2651 70.408 90.6578 71.1642 90.1902 71.9952" stroke="#172155" stroke-width="1.60556" stroke-miterlimit="1.5" stroke-linecap="round" stroke-linejoin="round"/>
<path d="M96.7988 60.7282C98.3192 61.8363 100.22 62.5344 101.893 63.3713C104.853 64.8646 107.781 66.4011 110.736 67.8946" stroke="#172155" stroke-width="1.60556" stroke-miterlimit="1.5" stroke-linecap="round" stroke-linejoin="round"/>
<path d="M101.948 63.4084C100.516 65.8725 99.8582 68.2142 98.6128 70.7651" stroke="#172155" stroke-width="1.60556" stroke-miterlimit="1.5" stroke-linecap="round" stroke-linejoin="round"/>
<path d="M91.873 53.5901C94.1605 54.5394 96.414 55.524 98.6676 56.5578" stroke="#172155" stroke-width="1.60556" stroke-miterlimit="1.5" stroke-linecap="round" stroke-linejoin="round"/>
<path fill-rule="evenodd" clip-rule="evenodd" d="M99.2699 59.782C99.0539 59.5788 98.9986 59.2498 99.1338 58.9721C99.5044 58.2054 99.8392 57.3642 100.268 56.6576C100.701 55.9379 101.207 55.2518 101.823 54.6735C102.087 54.4384 102.42 54.1474 102.807 54.1985C103.107 54.2425 103.336 54.5217 103.461 54.7692C103.765 55.3887 103.567 56.08 103.693 56.737C103.899 57.8108 104.581 58.7633 104.41 59.9261C104.331 60.4688 103.869 60.8194 103.386 61.0178C102.432 61.4011 101.301 61.2078 100.442 60.6763C100.047 60.434 99.6289 60.1291 99.2699 59.782Z" stroke="#172155" stroke-width="1.60556" stroke-miterlimit="1.5" stroke-linecap="round" stroke-linejoin="round"/>
<path fill-rule="evenodd" clip-rule="evenodd" d="M96.7334 63.1111C96.8619 62.8083 97.2094 62.6573 97.5254 62.7643C98.2396 62.9983 98.9848 63.2557 99.4161 63.8795C100.067 64.8342 99.4402 66.1041 99.0169 67.0023C98.8029 67.4643 98.4979 68.0221 97.9879 68.1967C97.4001 68.4149 96.9867 67.5213 96.4189 67.5207C95.8493 67.5329 95.3873 67.9858 94.9772 68.333C94.7314 68.5285 94.4217 68.8048 94.2971 68.3397C94.1227 67.686 94.62 66.8981 94.9357 66.3653C95.5563 65.3133 96.2399 64.2442 96.7334 63.1111Z" stroke="#172155" stroke-width="1.60556" stroke-miterlimit="1.5" stroke-linecap="round" stroke-linejoin="round"/>
<path fill-rule="evenodd" clip-rule="evenodd" d="M93.2717 55.6901C93.4635 55.6646 93.6609 55.7025 93.8217 55.807C94.3534 56.1683 95.0956 56.3235 95.6689 56.5413C96.1015 56.7044 96.5465 56.918 96.6638 57.4092C96.7434 57.7366 96.6664 58.1001 96.5668 58.4137C96.3397 59.1582 95.8891 59.9174 95.243 60.357C94.881 60.5986 94.2991 60.8675 93.8806 60.5883C93.2974 60.2049 93.9844 59.3788 93.7688 58.8557C93.5226 58.258 92.7705 58.1288 92.4328 57.6011C91.939 56.8279 92.458 55.8466 93.2717 55.6901Z" stroke="#172155" stroke-width="1.60556" stroke-miterlimit="1.5" stroke-linecap="round" stroke-linejoin="round"/>
<path d="M100.669 70.4621C101.083 69.3726 101.212 68.1998 101.584 67.1004C101.736 66.6424 101.936 66.0406 102.317 65.7209C102.808 65.3044 103.266 65.9906 103.616 66.2616C103.736 66.3559 103.866 66.4368 104.007 66.4915C104.56 66.7233 105.198 66.6168 105.776 66.7319C106.732 66.937 107.601 67.8388 107.892 68.7662" stroke="#172155" stroke-width="1.60556" stroke-miterlimit="1.5" stroke-linecap="round" stroke-linejoin="round"/>
<path d="M88.8061 35.7029C89.0534 35.6864 89.2404 35.473 89.224 35.2262C89.2075 34.9794 88.9937 34.7926 88.7465 34.809C88.4993 34.8255 88.3122 35.0389 88.3287 35.2857C88.3451 35.5325 88.5589 35.7193 88.8061 35.7029Z" fill="#172155"/>
<path d="M93.7495 35.3742C93.9967 35.3578 94.1838 35.1443 94.1673 34.8975C94.1509 34.6507 93.9371 34.4639 93.6898 34.4804C93.4426 34.4968 93.2555 34.7103 93.272 34.9571C93.2885 35.2039 93.5023 35.3907 93.7495 35.3742Z" fill="#172155"/>
<path d="M43.9978 43.0595C44.2299 43.0441 44.4055 42.8437 44.39 42.612C44.3746 42.3803 44.1739 42.2049 43.9418 42.2203C43.7096 42.2358 43.534 42.4362 43.5495 42.6679C43.565 42.8996 43.7657 43.0749 43.9978 43.0595Z" fill="#172155"/>
<path d="M47.4294 42.1415C47.6615 42.1261 47.8371 41.9257 47.8217 41.694C47.8062 41.4623 47.6055 41.2869 47.3734 41.3024C47.1413 41.3178 46.9657 41.5182 46.9811 41.7499C46.9966 41.9816 47.1973 42.157 47.4294 42.1415Z" fill="#172155"/>
<path fill-rule="evenodd" clip-rule="evenodd" d="M91.2132 42.6103L86.9766 44.1203L86.8125 41.662C86.8125 41.662 88.277 42.1146 89.2808 42.2525C90.2868 42.4031 91.2132 42.6103 91.2132 42.6103Z" fill="#172155"/>
<path fill-rule="evenodd" clip-rule="evenodd" d="M50.7533 46.0814C50.7533 46.0814 49.3439 48.6062 47.8343 48.9369C46.4821 49.2444 45.3494 48.3088 45.3494 48.3088L45.1938 47.398C45.1938 47.398 47.0262 47.9669 47.5808 47.9045C48.1355 47.842 50.7533 46.0814 50.7533 46.0814Z" fill="#172155"/>
</svg>
