<svg width="48" height="33" viewBox="0 0 48 33" fill="none" xmlns="http://www.w3.org/2000/svg">
<g clip-path="url(#clip0_232_4351)">
<path d="M26.6199 11.6209H22.0067L21.3833 14.0453H25.9965L26.6199 11.6209Z" fill="#172155"/>
<path d="M0.0214844 22.8192C0.0214844 23.9585 0.945423 24.882 2.08507 24.882H27.7599C28.6444 24.882 29.504 25.1752 30.2042 25.7157L38.2671 31.9401C38.8435 32.3851 39.6801 31.9743 39.6801 31.2462V28.8819C39.6801 26.6728 41.471 24.8819 43.6801 24.8819H45.9152C47.0548 24.8819 47.9788 23.9584 47.9788 22.8191V4.15295C47.9788 1.94381 46.1879 0.152954 43.9788 0.152954H4.02149C1.81235 0.152954 0.0214844 1.94382 0.0214844 4.15295V22.8192ZM44.1503 19.5365H42.8028C42.328 19.5365 41.943 19.1517 41.943 18.677C41.943 18.2023 42.328 17.8175 42.8028 17.8175H44.1503C44.6251 17.8175 45.0101 18.2023 45.0101 18.677C45.0101 19.1517 44.6251 19.5365 44.1503 19.5365ZM44.1503 15.4302H41.3351C40.8602 15.4302 40.4752 15.0454 40.4752 14.5707C40.4752 14.096 40.8602 13.7112 41.3351 13.7112H44.1503C44.6251 13.7112 45.0101 14.096 45.0101 14.5707C45.0101 15.0453 44.6251 15.4302 44.1503 15.4302ZM44.1503 11.3238H39.7357C39.2608 11.3238 38.8759 10.939 38.8759 10.4643C38.8759 9.98955 39.2608 9.60477 39.7357 9.60477H44.1502C44.625 9.60477 45.01 9.98955 45.01 10.4643C45.0101 10.9389 44.6251 11.3238 44.1503 11.3238ZM37.9681 5.49835H44.1503C44.6251 5.49835 45.0101 5.8832 45.0101 6.35785C45.0101 6.83257 44.6251 7.21735 44.1503 7.21735H37.9681C37.4933 7.21735 37.1083 6.83257 37.1083 6.35785C37.1083 5.88313 37.4932 5.49835 37.9681 5.49835ZM17.8524 13.9716H17.9551C18.6186 13.9716 19.198 13.5224 19.3633 12.8797L19.6119 11.9133C19.7227 11.4828 19.3975 11.0634 18.9529 11.0634V11.0634C18.4781 11.0634 18.0931 10.6785 18.0931 10.2039C18.0931 9.72915 18.4781 9.34437 18.9529 9.34437V9.34437C19.7298 9.34437 20.4081 8.81846 20.6016 8.06611L21.0462 6.33784C21.1644 5.87811 21.6331 5.60129 22.093 5.71949C22.5529 5.83768 22.8299 6.30621 22.7116 6.76594V6.76594C22.3756 8.07211 23.362 9.34437 24.7107 9.34437H25.5059C26.7292 9.34437 27.7973 8.51622 28.1021 7.33149L28.3577 6.33784C28.4759 5.87811 28.9446 5.60129 29.4045 5.71949C29.8644 5.83768 30.1414 6.30621 30.0231 6.76594L29.5561 8.58127C29.4567 8.96784 29.7486 9.34437 30.1478 9.34437V9.34437C30.6226 9.34437 31.0076 9.72915 31.0076 10.2039C31.0076 10.6785 30.6226 11.0634 30.1478 11.0634H30.0451C29.3815 11.0634 28.8021 11.5126 28.6368 12.1552L28.3882 13.1216C28.2774 13.5522 28.6026 13.9716 29.0472 13.9716V13.9716C29.522 13.9716 29.907 14.3564 29.907 14.8311C29.907 15.3057 29.522 15.6906 29.0472 15.6906V15.6906C28.2703 15.6906 27.592 16.2165 27.3985 16.9688L26.954 18.697C26.8357 19.1568 26.367 19.4336 25.9071 19.3154C25.4472 19.1972 25.1703 18.7287 25.2885 18.2689V18.2689C25.6245 16.9628 24.6381 15.6906 23.2895 15.6906H22.4942C21.2709 15.6906 20.2028 16.5187 19.898 17.7034L19.6424 18.697C19.5242 19.1568 19.0555 19.4336 18.5956 19.3154C18.1357 19.1972 17.8588 18.7287 17.977 18.2689L18.444 16.4537C18.5434 16.0671 18.2515 15.6906 17.8524 15.6906V15.6906C17.3775 15.6906 16.9925 15.3057 16.9925 14.8311C16.9925 14.3564 17.3775 13.9716 17.8524 13.9716ZM3.85006 5.49835H10.0322C10.5071 5.49835 10.8921 5.8832 10.8921 6.35785C10.8921 6.83257 10.5071 7.21735 10.0322 7.21735H3.85006C3.37523 7.21735 2.99023 6.83257 2.99023 6.35785C2.99023 5.88313 3.37516 5.49835 3.85006 5.49835ZM3.85006 9.60477H8.26457C8.73947 9.60477 9.12439 9.98955 9.12439 10.4643C9.12439 10.939 8.73947 11.3238 8.26457 11.3238H3.85006C3.37523 11.3238 2.99023 10.939 2.99023 10.4643C2.99023 9.98955 3.37516 9.60477 3.85006 9.60477ZM3.85006 13.7112H6.66528C7.14018 13.7112 7.52511 14.096 7.52511 14.5707C7.52511 15.0454 7.14018 15.4302 6.66528 15.4302H3.85006C3.37523 15.4302 2.99023 15.0454 2.99023 14.5707C2.99023 14.096 3.37516 13.7112 3.85006 13.7112ZM3.85006 17.8175H5.19752C5.67235 17.8175 6.05735 18.2023 6.05735 18.677C6.05735 19.1517 5.67235 19.5365 5.19752 19.5365H3.85006C3.37523 19.5365 2.99023 19.1517 2.99023 18.677C2.99023 18.2024 3.37516 17.8175 3.85006 17.8175Z" fill="#172155"/>
</g>
<defs>
<clipPath id="clip0_232_4351">
<rect width="47.9573" height="31.9715" fill="white" transform="translate(0.0214844 0.152954)"/>
</clipPath>
</defs>
</svg>
