<svg width="38" height="38" viewBox="0 0 38 38" fill="none" xmlns="http://www.w3.org/2000/svg">
<g clip-path="url(#clip0_232_3675)">
<path d="M11.2051 17.8957C10.6855 17.3761 9.84104 17.3761 9.32138 17.8957C8.80173 18.4154 8.80173 19.2598 9.32138 19.7795L15.4598 25.9179C15.7197 26.1778 16.0445 26.3077 16.4017 26.3077C16.4342 26.3077 16.4342 26.3077 16.4667 26.3077C16.8239 26.2752 17.1812 26.1128 17.441 25.8205L32.8034 7.40512C33.2581 6.85298 33.1932 6.00854 32.641 5.52136C32.0889 5.06666 31.2445 5.13162 30.7573 5.68375L16.3043 22.9949L11.2051 17.8957Z" fill="#F8561B"/>
<path d="M28.9383 3.02051C21.4682 -1.65641 11.887 -0.552135 5.65112 5.68376C-1.68905 13.0239 -1.68905 25.0086 5.65112 32.3487C9.32121 36.0188 14.1605 37.8701 18.9674 37.8701C23.7742 37.8701 28.6135 36.0188 32.2836 32.3487C38.552 26.0803 39.6238 16.4667 34.9144 8.99658C34.5246 8.37949 33.7127 8.18462 33.0956 8.57436C32.4785 8.9641 32.2836 9.77607 32.6733 10.3932C36.7332 16.8239 35.7913 25.0735 30.3998 30.465C24.099 36.7658 13.8033 36.7658 7.50241 30.465C1.20155 24.1641 1.20155 13.8684 7.50241 7.56752C12.8939 2.20855 21.111 1.26667 27.5417 5.26154C28.1588 5.65128 28.9708 5.45641 29.3605 4.83932C29.7503 4.22222 29.5554 3.41026 28.9383 3.02051Z" fill="#F8561B"/>
</g>
<defs>
<clipPath id="clip0_232_3675">
<rect width="38" height="38" fill="white"/>
</clipPath>
</defs>
</svg>
