<svg width="156" height="46" viewBox="0 0 156 46" fill="none" xmlns="http://www.w3.org/2000/svg">
<path d="M22.5335 1.90345V5.15517H6.81534V13.9983H21.5093V17.131H6.81534V26.8862H22.7305V30.1379H3.1123V1.90345H22.5335ZM43.307 9.67586L36.2161 19.1138L44.1343 30.1379H39.8404L34.1283 21.731L28.4949 30.1379H24.4373L32.0798 19.3517L25.0283 9.67586H29.2828L34.207 16.6948L39.2495 9.67586H43.307ZM50.145 9.67586V12.5707C51.6026 10.231 53.8875 9.04138 56.9996 9.04138C59.836 9.04138 62.0814 10.0328 63.736 11.9362C65.3905 13.8793 66.2572 16.4966 66.2572 19.7879C66.2572 23.119 65.4299 25.7362 63.7753 27.719C62.1208 29.7017 59.9147 30.6534 57.1572 30.6534C54.242 30.6534 51.9572 29.5431 50.342 27.2828V38.0293H46.9935V9.67586H50.145ZM56.4875 11.8569C54.5178 11.8569 52.9814 12.5707 51.8784 13.9983C50.7753 15.4259 50.2238 17.369 50.2238 19.8276C50.2238 22.3259 50.7753 24.269 51.9178 25.6966C53.0602 27.1241 54.636 27.8379 56.6057 27.8379C58.4966 27.8379 60.0329 27.1241 61.136 25.6966C62.239 24.269 62.7905 22.3259 62.7905 19.8672C62.7905 17.369 62.1996 15.4259 61.0966 13.9983C59.9935 12.5707 58.4572 11.8569 56.4875 11.8569Z" fill="#F8561B"/>
<path d="M87.7176 23.6741C86.6934 28.4328 83.7388 30.8121 78.854 30.8121C75.86 30.8121 73.4964 29.9 71.8025 27.9965C70.1085 26.1328 69.2812 23.5155 69.2812 20.1845C69.2812 16.8931 70.1479 14.2362 71.8813 12.1741C73.6146 10.1121 75.8994 9.08103 78.7358 9.08103C81.8479 9.08103 84.1722 10.1517 85.6691 12.2931C87.1661 14.4345 87.954 17.0914 87.954 20.3431V20.819H72.6691L72.6297 21.0569C72.6297 23.2379 73.1813 24.9431 74.3237 26.1724C75.4267 27.4414 77.0025 28.0362 78.9722 28.0362C80.4297 28.0362 81.5722 27.719 82.4388 27.0052C83.3055 26.331 83.9752 25.2207 84.4479 23.6741H87.7176ZM84.4873 18.0828C84.3297 16.1397 83.7388 14.6328 82.7146 13.5224C81.6903 12.4121 80.3116 11.8569 78.657 11.8569C77.0025 11.8569 75.6631 12.4121 74.5994 13.5224C73.4964 14.6328 72.8661 16.1793 72.6691 18.0828H84.4873ZM109.822 1.90345V30.1379H106.67V27.1241C105.37 29.5034 103.125 30.6931 99.9734 30.6931C97.0582 30.6931 94.7734 29.7414 93.0794 27.7983C91.3855 25.8552 90.5582 23.1983 90.5582 19.8672C90.5582 16.7741 91.3461 14.2362 92.9219 12.1741C94.4976 10.1121 96.8219 9.08103 99.8158 9.08103C102.731 9.08103 104.937 10.1914 106.473 12.4121V1.90345H109.822ZM100.249 11.9759C98.3188 11.9759 96.7825 12.6897 95.6794 14.0776C94.5764 15.5052 94.0249 17.4086 94.0249 19.7879C94.0249 22.2862 94.5764 24.269 95.7188 25.7362C96.8613 27.2034 98.3976 27.9172 100.328 27.9172C102.258 27.9172 103.795 27.2431 104.898 25.8155C106.001 24.3879 106.552 22.4448 106.552 19.9069C106.552 17.6862 106.001 15.7828 104.976 14.2759C103.952 12.769 102.376 11.9759 100.249 11.9759ZM118.401 1.90345V6.02759H115.013V1.90345H118.401ZM118.401 9.67586V30.1379H115.013V9.67586H118.401ZM132.294 9.67586V12.4517H128.237V24.3879C128.237 25.0621 128.237 25.4983 128.237 25.6966C128.237 25.9345 128.316 26.2121 128.473 26.569C128.591 26.9259 128.828 27.1638 129.143 27.2431C129.458 27.3621 129.891 27.4017 130.482 27.4017C130.955 27.4017 131.585 27.3621 132.294 27.2828V30.1776C131.349 30.2966 130.482 30.3362 129.734 30.3362C128.788 30.3362 128 30.2569 127.37 30.019C126.74 29.8207 126.228 29.5828 125.913 29.3052C125.597 29.0672 125.361 28.5914 125.203 27.9172C125.046 27.2431 124.928 26.6879 124.928 26.2121C124.888 25.7362 124.888 24.9828 124.888 23.8724V23.7138V23.5155V23.3172V12.4517H121.461V9.67586H124.888V3.60862H128.237V9.67586H132.294ZM153.387 23.6741C152.363 28.4328 149.408 30.8121 144.523 30.8121C141.529 30.8121 139.166 29.9 137.472 27.9965C135.778 26.1328 134.951 23.5155 134.951 20.1845C134.951 16.8931 135.817 14.2362 137.551 12.1741C139.284 10.1121 141.569 9.08103 144.405 9.08103C147.517 9.08103 149.842 10.1517 151.339 12.2931C152.835 14.4345 153.623 17.0914 153.623 20.3431V20.819H138.339L138.299 21.0569C138.299 23.2379 138.851 24.9431 139.993 26.1724C141.096 27.4414 142.672 28.0362 144.642 28.0362C146.099 28.0362 147.242 27.719 148.108 27.0052C148.975 26.331 149.645 25.2207 150.117 23.6741H153.387ZM150.157 18.0828C149.999 16.1397 149.408 14.6328 148.384 13.5224C147.36 12.4121 145.981 11.8569 144.326 11.8569C142.672 11.8569 141.332 12.4121 140.269 13.5224C139.166 14.6328 138.535 16.1793 138.339 18.0828H150.157Z" fill="#172155"/>
<path d="M77.5274 33.7926V34.5286H72.6488V37.7771H76.9853V38.5131H72.6488V42.8276H71.8042V33.7926H77.5274ZM83.857 33.5768C85.105 33.5768 86.1261 34.021 86.9077 34.8966C87.6893 35.7848 88.0926 36.9269 88.0926 38.3354C88.0926 39.744 87.7019 40.8861 86.9203 41.749C86.1387 42.6119 85.105 43.0433 83.8444 43.0433C82.5838 43.0433 81.5627 42.6119 80.7937 41.7363C80.0122 40.8734 79.634 39.7313 79.634 38.3101C79.634 36.9015 80.0122 35.7595 80.7937 34.8839C81.5753 34.021 82.5964 33.5768 83.857 33.5768ZM83.8444 34.3255C82.8359 34.3255 82.0291 34.6935 81.4114 35.4168C80.7937 36.1528 80.4912 37.1046 80.4912 38.2847C80.4912 39.5029 80.7937 40.4673 81.4114 41.2033C82.0165 41.9393 82.8359 42.2946 83.857 42.2946C84.8655 42.2946 85.6849 41.9393 86.3026 41.2033C86.9203 40.48 87.2354 39.5156 87.2354 38.3228C87.2354 37.1299 86.9203 36.1655 86.3026 35.4295C85.6723 34.6935 84.8529 34.3255 83.8444 34.3255ZM90.9569 33.7926H95.0161C95.8607 33.7926 96.5414 33.9956 97.0456 34.4017C97.5499 34.8077 97.8146 35.4168 97.8146 36.229C97.8146 36.8127 97.6507 37.3076 97.3482 37.6883C97.0456 38.069 96.617 38.3354 96.0624 38.4623C96.6044 38.5639 96.9952 38.7796 97.2221 39.0968C97.449 39.4141 97.5877 39.8836 97.6381 40.5054C97.6381 40.5308 97.6381 40.645 97.6507 40.848C97.6507 41.0637 97.6633 41.2414 97.6759 41.3937C97.6885 41.5459 97.7137 41.7363 97.739 41.9393C97.7642 42.155 97.8146 42.3327 97.865 42.485C97.9154 42.6372 97.9911 42.7514 98.0667 42.8276H97.0961C97.0204 42.7388 96.9574 42.5738 96.9322 42.3327C96.8944 42.1043 96.8691 41.7997 96.8565 41.419C96.8313 41.051 96.8313 40.848 96.8313 40.8226C96.7683 40.0105 96.5666 39.4648 96.2388 39.1983C95.8985 38.9319 95.306 38.7923 94.4488 38.7923H91.8141V42.8276H90.9569V33.7926ZM91.8141 34.5286V38.107H94.3479C94.7135 38.107 95.0287 38.0943 95.306 38.0436C95.5707 38.0055 95.8354 37.9294 96.1128 37.8025C96.3901 37.6883 96.5918 37.4979 96.7431 37.2441C96.8944 36.9903 96.97 36.6604 96.97 36.2797C96.97 35.1123 96.2262 34.5286 94.7387 34.5286H91.8141ZM109.589 33.7926V42.8276H108.769V37.371C108.769 36.4954 108.794 35.5437 108.87 34.5286C108.693 35.0869 108.492 35.6326 108.277 36.1655L105.63 42.8276H104.861L102.176 36.2417C101.987 35.7975 101.785 35.2392 101.584 34.5793C101.647 35.5691 101.685 36.4955 101.685 37.3457V42.8276H100.865V33.7926H102.025L104.634 40.2389C104.71 40.4546 104.924 41.0257 105.252 41.9393C105.29 41.8378 105.378 41.584 105.517 41.1779C105.643 40.7846 105.756 40.48 105.845 40.2643L108.416 33.7926H109.589ZM116.446 33.7672L120.026 42.8276H119.081L117.997 39.9851H113.887L112.791 42.8276H111.87L115.501 33.7672H116.446ZM117.732 39.2872L115.967 34.5793L114.152 39.2872H117.732ZM127.66 33.7926V34.5286H124.508V42.8276H123.651V34.5286H120.499V33.7926H127.66ZM130.92 33.7926V42.8276H130.063V33.7926H130.92ZM138.064 33.5768C139.312 33.5768 140.333 34.021 141.115 34.8966C141.896 35.7848 142.3 36.9269 142.3 38.3354C142.3 39.744 141.909 40.8861 141.127 41.749C140.346 42.6119 139.312 43.0433 138.051 43.0433C136.791 43.0433 135.77 42.6119 135.001 41.7363C134.219 40.8734 133.841 39.7313 133.841 38.3101C133.841 36.9015 134.219 35.7595 135.001 34.8839C135.782 34.021 136.803 33.5768 138.064 33.5768ZM138.051 34.3255C137.043 34.3255 136.236 34.6935 135.618 35.4168C135.001 36.1528 134.698 37.1046 134.698 38.2847C134.698 39.5029 135.001 40.4673 135.618 41.2033C136.224 41.9393 137.043 42.2946 138.064 42.2946C139.073 42.2946 139.892 41.9393 140.51 41.2033C141.127 40.48 141.442 39.5156 141.442 38.3228C141.442 37.1299 141.127 36.1655 140.51 35.4295C139.879 34.6935 139.06 34.3255 138.051 34.3255ZM152.223 33.7926V42.8276H151.278L147.105 36.7619C146.551 35.9498 146.147 35.3153 145.92 34.8331C145.958 35.4422 145.983 36.1528 145.983 36.9903V42.8276H145.151V33.7926H146.097L150.295 39.9217C150.761 40.6069 151.152 41.2414 151.467 41.8124C151.417 40.4927 151.404 39.6932 151.404 39.4268V33.7926H152.223Z" fill="#172155"/>
</svg>
