<svg width="18" height="24" viewBox="0 0 18 24" fill="none" xmlns="http://www.w3.org/2000/svg">
<path d="M17.6507 15.7308C17.5649 15.7308 17.4653 15.7308 17.3658 15.7308C16.0603 15.7308 14.7554 15.7222 13.45 15.7336C12.1191 15.7451 11.0604 16.7484 10.9104 18.1176C10.7684 19.4128 11.6256 20.655 12.8753 20.9435C13.1108 20.998 13.358 21.0181 13.6 21.0195C14.8738 21.0267 16.1476 21.0228 17.4214 21.0228C17.4988 21.0228 17.5762 21.0228 17.6488 21.0228C17.9763 22.3644 17.0775 23.2028 16.0236 23.1393C15.7178 23.1206 15.4102 23.1364 15.1036 23.1364C10.6216 23.1359 6.14016 23.1331 1.65821 23.1374C1.10245 23.1378 0.642936 22.9611 0.303252 22.5053C0.1018 22.2358 0.00178214 21.9287 0.00131036 21.5928C-0.000104991 18.3919 -0.00152034 15.1904 0.00366928 11.989C0.00508463 11.1692 0.587737 10.5042 1.39449 10.4612C2.24134 10.4158 3.09196 10.433 3.9407 10.4325C7.47908 10.4301 11.017 10.4311 14.5554 10.4325C15.121 10.4325 15.6886 10.4206 16.2524 10.4573C17.0535 10.5094 17.6465 11.0913 17.6705 11.9083C17.7069 13.1571 17.6823 14.4084 17.6828 15.6582C17.6828 15.672 17.671 15.6863 17.6507 15.7308Z" fill="white"/>
<path d="M6.00684 9.36091C6.1328 8.97919 6.25263 8.61036 6.37577 8.24297C6.83246 6.87994 7.29292 5.51835 7.74536 4.15389C7.79725 3.99766 7.86189 3.92791 8.03881 3.92457C8.66486 3.91119 9.17345 3.63266 9.5688 3.1487C9.66882 3.02591 9.74525 2.99056 9.90188 3.04598C10.8063 3.36607 11.7145 3.67375 12.6231 3.98142C12.7345 4.01916 12.7845 4.06837 12.7854 4.19832C12.7906 4.8452 13.0458 5.38936 13.4997 5.83271C13.6356 5.96552 13.6502 6.07397 13.5931 6.24644C13.2676 7.22631 12.9524 8.20953 12.6392 9.19322C12.5977 9.32317 12.5448 9.38432 12.3957 9.38384C10.3199 9.37811 8.2445 9.37907 6.16866 9.37763C6.12289 9.37763 6.07713 9.36856 6.00731 9.36091H6.00684ZM11.613 5.56182C11.6154 4.96033 11.1766 4.48545 10.6195 4.4864C10.0552 4.48784 9.53578 4.98995 9.53955 5.52981C9.5438 6.07684 10.0076 6.55316 10.5416 6.55842C11.1384 6.56415 11.6102 6.12462 11.6126 5.56182H11.613Z" fill="white"/>
<path d="M3.75195 9.49813C4.0855 8.48052 4.4016 7.51546 4.71864 6.55088C5.37772 4.54432 6.0368 2.53728 6.69777 0.531198C6.87139 0.00423681 7.06906 -0.0951357 7.58142 0.0782884C10.4565 1.05004 13.3315 2.02226 16.2066 2.99401C16.6576 3.14641 16.7944 3.42112 16.6439 3.87929C16.0584 5.65987 15.4692 7.43902 14.8903 9.22151C14.8327 9.39924 14.7535 9.45705 14.5747 9.44701C14.302 9.43173 14.0274 9.44319 13.7184 9.44319C13.7514 9.33426 13.7745 9.254 13.8005 9.17422C14.142 8.13319 14.4855 7.09217 14.8261 6.05067C14.9596 5.64219 14.8474 5.40809 14.4487 5.24279C13.9661 5.04309 13.6929 4.51374 13.8057 3.99777C13.9028 3.55442 13.7844 3.34516 13.3575 3.20279C12.1271 2.79144 10.8971 2.37867 9.6667 1.9678C9.24493 1.82686 9.02083 1.93436 8.85052 2.35526C8.65426 2.84018 8.1386 3.10867 7.61539 2.99879C7.17616 2.90658 6.98131 3.02315 6.83695 3.46125C6.19862 5.39997 5.55794 7.33726 4.92575 9.27789C4.87291 9.43985 4.81064 9.51151 4.63466 9.50196C4.35489 9.48667 4.07324 9.49813 3.75195 9.49813Z" fill="white"/>
<path d="M17.7342 16.795V19.9549C17.655 19.9596 17.5804 19.9682 17.5059 19.9682C16.1939 19.9687 14.8814 19.9711 13.5693 19.9668C12.6593 19.9639 11.9941 19.2836 11.9912 18.3644C11.9884 17.4744 12.6701 16.785 13.5674 16.7816C14.8795 16.7773 16.1915 16.7802 17.504 16.7807C17.5729 16.7807 17.6422 16.7888 17.7342 16.7945V16.795ZM14.0737 18.3391C14.0699 18.0644 13.8345 17.8499 13.542 17.8551C13.2495 17.8604 13.0457 18.0711 13.0438 18.3706C13.0424 18.6602 13.2872 18.91 13.5641 18.9009C13.8147 18.8928 14.0774 18.6033 14.0737 18.3391Z" fill="white"/>
<path d="M1.04535 9.38852C0.682081 9.55669 0.357022 9.70766 0.0163945 9.86579C0.0116766 9.8185 0.000353838 9.76069 0.000353838 9.70288C-0.000117946 6.97253 -0.000117946 4.24217 0.000353838 1.51182C0.000353838 1.14012 0.203693 0.917014 0.556587 0.916059C2.15216 0.912237 3.74726 0.913192 5.34283 0.913192C5.37397 0.913192 5.40511 0.91797 5.47493 0.923703C5.35981 1.26004 5.25461 1.5873 5.13006 1.90692C5.11354 1.94991 4.9989 1.97189 4.92908 1.97285C4.37898 1.97858 3.82888 1.97571 3.27878 1.97858C2.80652 1.98097 2.64612 2.13242 2.60224 2.60874C2.55459 3.12996 2.1649 3.51217 1.62329 3.57045C1.16943 3.61918 1.04583 3.75773 1.04583 4.23023C1.04488 5.87799 1.04535 7.52576 1.04535 9.17305C1.04535 9.25236 1.04535 9.33119 1.04535 9.38852Z" fill="white"/>
<path d="M4.79891 3.03316C4.55547 3.78132 4.32902 4.48171 4.09879 5.18114C3.67041 6.48492 3.23306 7.78584 2.81648 9.09393C2.74194 9.32755 2.64003 9.42071 2.40461 9.38058C2.30743 9.36434 2.20552 9.37771 2.08144 9.37771C2.08144 9.07339 2.08144 8.79725 2.08144 8.5211C2.08144 7.27226 2.08427 6.02294 2.07814 4.77409C2.0772 4.62217 2.1239 4.55433 2.26497 4.50034C2.87026 4.26815 3.29345 3.83722 3.52604 3.22761C3.58549 3.07186 3.65861 3.02361 3.81525 3.02982C4.12709 3.04128 4.43942 3.03316 4.79891 3.03316Z" fill="white"/>
</svg>
